ISO-10303-21;
HEADER;
/* Generated by software containing ST-Developer
 * from STEP Tools, Inc. (www.steptools.com) 
 */

FILE_DESCRIPTION(
/* description */ (''),
/* implementation_level */ '2;1');

FILE_NAME(
/* name */ 'frame_joint.step',
/* time_stamp */ '2026-05-12T02:04:44+09:00',
/* author */ (''),
/* organization */ (''),
/* preprocessor_version */ 'ST-DEVELOPER v20.1',
/* originating_system */ 'Autodesk Translation Framework v15.8.0.0',
/* authorisation */ '');

FILE_SCHEMA (('AUTOMOTIVE_DESIGN { 1 0 10303 214 3 1 1 }'));
ENDSEC;

DATA;
#10=MECHANICAL_DESIGN_GEOMETRIC_PRESENTATION_REPRESENTATION('',(#13),#609);
#11=SHAPE_REPRESENTATION_RELATIONSHIP('SRR','None',#616,#12);
#12=ADVANCED_BREP_SHAPE_REPRESENTATION('',(#14),#608);
#13=STYLED_ITEM('',(#625),#14);
#14=MANIFOLD_SOLID_BREP('\X2\30DC30C730A3\X0\1',#361);
#15=FACE_BOUND('',#56,.T.);
#16=FACE_BOUND('',#57,.T.);
#17=FACE_BOUND('',#65,.T.);
#18=FACE_BOUND('',#68,.T.);
#19=FACE_BOUND('',#75,.T.);
#20=PLANE('',#381);
#21=PLANE('',#382);
#22=PLANE('',#389);
#23=PLANE('',#392);
#24=PLANE('',#397);
#25=PLANE('',#398);
#26=PLANE('',#399);
#27=PLANE('',#400);
#28=PLANE('',#401);
#29=PLANE('',#402);
#30=PLANE('',#403);
#31=PLANE('',#404);
#32=PLANE('',#405);
#33=FACE_OUTER_BOUND('',#52,.T.);
#34=FACE_OUTER_BOUND('',#53,.T.);
#35=FACE_OUTER_BOUND('',#54,.T.);
#36=FACE_OUTER_BOUND('',#55,.T.);
#37=FACE_OUTER_BOUND('',#58,.T.);
#38=FACE_OUTER_BOUND('',#59,.T.);
#39=FACE_OUTER_BOUND('',#60,.T.);
#40=FACE_OUTER_BOUND('',#61,.T.);
#41=FACE_OUTER_BOUND('',#62,.T.);
#42=FACE_OUTER_BOUND('',#63,.T.);
#43=FACE_OUTER_BOUND('',#64,.T.);
#44=FACE_OUTER_BOUND('',#66,.T.);
#45=FACE_OUTER_BOUND('',#67,.T.);
#46=FACE_OUTER_BOUND('',#69,.T.);
#47=FACE_OUTER_BOUND('',#70,.T.);
#48=FACE_OUTER_BOUND('',#71,.T.);
#49=FACE_OUTER_BOUND('',#72,.T.);
#50=FACE_OUTER_BOUND('',#73,.T.);
#51=FACE_OUTER_BOUND('',#74,.T.);
#52=EDGE_LOOP('',(#240,#241,#242,#243));
#53=EDGE_LOOP('',(#244,#245,#246,#247));
#54=EDGE_LOOP('',(#248,#249,#250,#251));
#55=EDGE_LOOP('',(#252,#253,#254,#255,#256,#257,#258,#259));
#56=EDGE_LOOP('',(#260));
#57=EDGE_LOOP('',(#261));
#58=EDGE_LOOP('',(#262,#263,#264,#265));
#59=EDGE_LOOP('',(#266,#267,#268,#269,#270,#271));
#60=EDGE_LOOP('',(#272,#273,#274,#275));
#61=EDGE_LOOP('',(#276,#277,#278,#279));
#62=EDGE_LOOP('',(#280,#281,#282,#283));
#63=EDGE_LOOP('',(#284,#285,#286,#287));
#64=EDGE_LOOP('',(#288,#289,#290,#291,#292,#293));
#65=EDGE_LOOP('',(#294));
#66=EDGE_LOOP('',(#295,#296,#297,#298));
#67=EDGE_LOOP('',(#299,#300,#301,#302));
#68=EDGE_LOOP('',(#303));
#69=EDGE_LOOP('',(#304,#305,#306,#307));
#70=EDGE_LOOP('',(#308,#309,#310,#311));
#71=EDGE_LOOP('',(#312,#313,#314,#315));
#72=EDGE_LOOP('',(#316,#317,#318,#319));
#73=EDGE_LOOP('',(#320,#321,#322,#323,#324,#325));
#74=EDGE_LOOP('',(#326,#327,#328,#329,#330,#331));
#75=EDGE_LOOP('',(#332,#333,#334,#335));
#76=LINE('',#511,#112);
#77=LINE('',#518,#113);
#78=LINE('',#521,#114);
#79=LINE('',#524,#115);
#80=LINE('',#526,#116);
#81=LINE('',#527,#117);
#82=LINE('',#530,#118);
#83=LINE('',#534,#119);
#84=LINE('',#538,#120);
#85=LINE('',#545,#121);
#86=LINE('',#548,#122);
#87=LINE('',#550,#123);
#88=LINE('',#552,#124);
#89=LINE('',#553,#125);
#90=LINE('',#557,#126);
#91=LINE('',#560,#127);
#92=LINE('',#561,#128);
#93=LINE('',#565,#129);
#94=LINE('',#569,#130);
#95=LINE('',#572,#131);
#96=LINE('',#573,#132);
#97=LINE('',#576,#133);
#98=LINE('',#577,#134);
#99=LINE('',#581,#135);
#100=LINE('',#583,#136);
#101=LINE('',#585,#137);
#102=LINE('',#586,#138);
#103=LINE('',#589,#139);
#104=LINE('',#591,#140);
#105=LINE('',#592,#141);
#106=LINE('',#595,#142);
#107=LINE('',#596,#143);
#108=LINE('',#599,#144);
#109=LINE('',#600,#145);
#110=LINE('',#602,#146);
#111=LINE('',#604,#147);
#112=VECTOR('',#412,3.);
#113=VECTOR('',#419,10.);
#114=VECTOR('',#422,10.);
#115=VECTOR('',#425,10.);
#116=VECTOR('',#426,10.);
#117=VECTOR('',#427,10.);
#118=VECTOR('',#430,10.);
#119=VECTOR('',#433,10.);
#120=VECTOR('',#436,10.);
#121=VECTOR('',#445,10.);
#122=VECTOR('',#448,10.);
#123=VECTOR('',#449,10.);
#124=VECTOR('',#450,10.);
#125=VECTOR('',#451,10.);
#126=VECTOR('',#456,10.);
#127=VECTOR('',#459,10.);
#128=VECTOR('',#460,10.);
#129=VECTOR('',#465,10.);
#130=VECTOR('',#470,2.6);
#131=VECTOR('',#473,10.);
#132=VECTOR('',#474,10.);
#133=VECTOR('',#477,10.);
#134=VECTOR('',#478,10.);
#135=VECTOR('',#481,10.);
#136=VECTOR('',#482,10.);
#137=VECTOR('',#483,10.);
#138=VECTOR('',#484,10.);
#139=VECTOR('',#487,10.);
#140=VECTOR('',#488,10.);
#141=VECTOR('',#489,10.);
#142=VECTOR('',#492,10.);
#143=VECTOR('',#493,10.);
#144=VECTOR('',#496,10.);
#145=VECTOR('',#497,10.);
#146=VECTOR('',#500,10.);
#147=VECTOR('',#503,10.);
#148=CIRCLE('',#376,3.);
#149=CIRCLE('',#377,3.);
#150=CIRCLE('',#379,1.);
#151=CIRCLE('',#380,1.);
#152=CIRCLE('',#383,1.);
#153=CIRCLE('',#384,1.);
#154=CIRCLE('',#385,1.);
#155=CIRCLE('',#386,2.6);
#156=CIRCLE('',#388,1.);
#157=CIRCLE('',#391,1.);
#158=CIRCLE('',#394,1.);
#159=CIRCLE('',#396,2.6);
#160=VERTEX_POINT('',#508);
#161=VERTEX_POINT('',#510);
#162=VERTEX_POINT('',#514);
#163=VERTEX_POINT('',#515);
#164=VERTEX_POINT('',#517);
#165=VERTEX_POINT('',#519);
#166=VERTEX_POINT('',#523);
#167=VERTEX_POINT('',#525);
#168=VERTEX_POINT('',#529);
#169=VERTEX_POINT('',#531);
#170=VERTEX_POINT('',#533);
#171=VERTEX_POINT('',#535);
#172=VERTEX_POINT('',#537);
#173=VERTEX_POINT('',#540);
#174=VERTEX_POINT('',#543);
#175=VERTEX_POINT('',#547);
#176=VERTEX_POINT('',#549);
#177=VERTEX_POINT('',#551);
#178=VERTEX_POINT('',#555);
#179=VERTEX_POINT('',#559);
#180=VERTEX_POINT('',#563);
#181=VERTEX_POINT('',#567);
#182=VERTEX_POINT('',#571);
#183=VERTEX_POINT('',#575);
#184=VERTEX_POINT('',#579);
#185=VERTEX_POINT('',#580);
#186=VERTEX_POINT('',#582);
#187=VERTEX_POINT('',#584);
#188=VERTEX_POINT('',#588);
#189=VERTEX_POINT('',#590);
#190=VERTEX_POINT('',#594);
#191=VERTEX_POINT('',#598);
#192=EDGE_CURVE('',#160,#160,#148,.T.);
#193=EDGE_CURVE('',#160,#161,#76,.T.);
#194=EDGE_CURVE('',#161,#161,#149,.T.);
#195=EDGE_CURVE('',#162,#163,#150,.T.);
#196=EDGE_CURVE('',#163,#164,#77,.T.);
#197=EDGE_CURVE('',#164,#165,#151,.T.);
#198=EDGE_CURVE('',#165,#162,#78,.T.);
#199=EDGE_CURVE('',#165,#166,#79,.T.);
#200=EDGE_CURVE('',#167,#166,#80,.T.);
#201=EDGE_CURVE('',#162,#167,#81,.T.);
#202=EDGE_CURVE('',#168,#164,#82,.T.);
#203=EDGE_CURVE('',#169,#168,#152,.T.);
#204=EDGE_CURVE('',#170,#169,#83,.T.);
#205=EDGE_CURVE('',#171,#170,#153,.T.);
#206=EDGE_CURVE('',#172,#171,#84,.T.);
#207=EDGE_CURVE('',#166,#172,#154,.T.);
#208=EDGE_CURVE('',#173,#173,#155,.T.);
#209=EDGE_CURVE('',#174,#167,#156,.T.);
#210=EDGE_CURVE('',#172,#174,#85,.T.);
#211=EDGE_CURVE('',#175,#171,#86,.T.);
#212=EDGE_CURVE('',#176,#175,#87,.T.);
#213=EDGE_CURVE('',#177,#176,#88,.T.);
#214=EDGE_CURVE('',#174,#177,#89,.T.);
#215=EDGE_CURVE('',#178,#175,#157,.T.);
#216=EDGE_CURVE('',#170,#178,#90,.T.);
#217=EDGE_CURVE('',#179,#169,#91,.T.);
#218=EDGE_CURVE('',#178,#179,#92,.T.);
#219=EDGE_CURVE('',#180,#179,#158,.T.);
#220=EDGE_CURVE('',#168,#180,#93,.T.);
#221=EDGE_CURVE('',#181,#181,#159,.T.);
#222=EDGE_CURVE('',#181,#173,#94,.T.);
#223=EDGE_CURVE('',#182,#177,#95,.T.);
#224=EDGE_CURVE('',#182,#163,#96,.T.);
#225=EDGE_CURVE('',#183,#176,#97,.T.);
#226=EDGE_CURVE('',#182,#183,#98,.T.);
#227=EDGE_CURVE('',#184,#185,#99,.T.);
#228=EDGE_CURVE('',#186,#184,#100,.T.);
#229=EDGE_CURVE('',#187,#186,#101,.T.);
#230=EDGE_CURVE('',#185,#187,#102,.T.);
#231=EDGE_CURVE('',#186,#188,#103,.T.);
#232=EDGE_CURVE('',#189,#188,#104,.T.);
#233=EDGE_CURVE('',#187,#189,#105,.T.);
#234=EDGE_CURVE('',#184,#190,#106,.T.);
#235=EDGE_CURVE('',#188,#190,#107,.T.);
#236=EDGE_CURVE('',#191,#189,#108,.T.);
#237=EDGE_CURVE('',#185,#191,#109,.T.);
#238=EDGE_CURVE('',#190,#191,#110,.T.);
#239=EDGE_CURVE('',#180,#183,#111,.T.);
#240=ORIENTED_EDGE('',*,*,#192,.F.);
#241=ORIENTED_EDGE('',*,*,#193,.T.);
#242=ORIENTED_EDGE('',*,*,#194,.F.);
#243=ORIENTED_EDGE('',*,*,#193,.F.);
#244=ORIENTED_EDGE('',*,*,#195,.T.);
#245=ORIENTED_EDGE('',*,*,#196,.T.);
#246=ORIENTED_EDGE('',*,*,#197,.T.);
#247=ORIENTED_EDGE('',*,*,#198,.T.);
#248=ORIENTED_EDGE('',*,*,#198,.F.);
#249=ORIENTED_EDGE('',*,*,#199,.T.);
#250=ORIENTED_EDGE('',*,*,#200,.F.);
#251=ORIENTED_EDGE('',*,*,#201,.F.);
#252=ORIENTED_EDGE('',*,*,#197,.F.);
#253=ORIENTED_EDGE('',*,*,#202,.F.);
#254=ORIENTED_EDGE('',*,*,#203,.F.);
#255=ORIENTED_EDGE('',*,*,#204,.F.);
#256=ORIENTED_EDGE('',*,*,#205,.F.);
#257=ORIENTED_EDGE('',*,*,#206,.F.);
#258=ORIENTED_EDGE('',*,*,#207,.F.);
#259=ORIENTED_EDGE('',*,*,#199,.F.);
#260=ORIENTED_EDGE('',*,*,#192,.T.);
#261=ORIENTED_EDGE('',*,*,#208,.F.);
#262=ORIENTED_EDGE('',*,*,#209,.T.);
#263=ORIENTED_EDGE('',*,*,#200,.T.);
#264=ORIENTED_EDGE('',*,*,#207,.T.);
#265=ORIENTED_EDGE('',*,*,#210,.T.);
#266=ORIENTED_EDGE('',*,*,#210,.F.);
#267=ORIENTED_EDGE('',*,*,#206,.T.);
#268=ORIENTED_EDGE('',*,*,#211,.F.);
#269=ORIENTED_EDGE('',*,*,#212,.F.);
#270=ORIENTED_EDGE('',*,*,#213,.F.);
#271=ORIENTED_EDGE('',*,*,#214,.F.);
#272=ORIENTED_EDGE('',*,*,#215,.T.);
#273=ORIENTED_EDGE('',*,*,#211,.T.);
#274=ORIENTED_EDGE('',*,*,#205,.T.);
#275=ORIENTED_EDGE('',*,*,#216,.T.);
#276=ORIENTED_EDGE('',*,*,#216,.F.);
#277=ORIENTED_EDGE('',*,*,#204,.T.);
#278=ORIENTED_EDGE('',*,*,#217,.F.);
#279=ORIENTED_EDGE('',*,*,#218,.F.);
#280=ORIENTED_EDGE('',*,*,#219,.T.);
#281=ORIENTED_EDGE('',*,*,#217,.T.);
#282=ORIENTED_EDGE('',*,*,#203,.T.);
#283=ORIENTED_EDGE('',*,*,#220,.T.);
#284=ORIENTED_EDGE('',*,*,#221,.F.);
#285=ORIENTED_EDGE('',*,*,#222,.T.);
#286=ORIENTED_EDGE('',*,*,#208,.T.);
#287=ORIENTED_EDGE('',*,*,#222,.F.);
#288=ORIENTED_EDGE('',*,*,#195,.F.);
#289=ORIENTED_EDGE('',*,*,#201,.T.);
#290=ORIENTED_EDGE('',*,*,#209,.F.);
#291=ORIENTED_EDGE('',*,*,#214,.T.);
#292=ORIENTED_EDGE('',*,*,#223,.F.);
#293=ORIENTED_EDGE('',*,*,#224,.T.);
#294=ORIENTED_EDGE('',*,*,#221,.T.);
#295=ORIENTED_EDGE('',*,*,#223,.T.);
#296=ORIENTED_EDGE('',*,*,#213,.T.);
#297=ORIENTED_EDGE('',*,*,#225,.F.);
#298=ORIENTED_EDGE('',*,*,#226,.F.);
#299=ORIENTED_EDGE('',*,*,#227,.F.);
#300=ORIENTED_EDGE('',*,*,#228,.F.);
#301=ORIENTED_EDGE('',*,*,#229,.F.);
#302=ORIENTED_EDGE('',*,*,#230,.F.);
#303=ORIENTED_EDGE('',*,*,#194,.T.);
#304=ORIENTED_EDGE('',*,*,#229,.T.);
#305=ORIENTED_EDGE('',*,*,#231,.T.);
#306=ORIENTED_EDGE('',*,*,#232,.F.);
#307=ORIENTED_EDGE('',*,*,#233,.F.);
#308=ORIENTED_EDGE('',*,*,#228,.T.);
#309=ORIENTED_EDGE('',*,*,#234,.T.);
#310=ORIENTED_EDGE('',*,*,#235,.F.);
#311=ORIENTED_EDGE('',*,*,#231,.F.);
#312=ORIENTED_EDGE('',*,*,#230,.T.);
#313=ORIENTED_EDGE('',*,*,#233,.T.);
#314=ORIENTED_EDGE('',*,*,#236,.F.);
#315=ORIENTED_EDGE('',*,*,#237,.F.);
#316=ORIENTED_EDGE('',*,*,#227,.T.);
#317=ORIENTED_EDGE('',*,*,#237,.T.);
#318=ORIENTED_EDGE('',*,*,#238,.F.);
#319=ORIENTED_EDGE('',*,*,#234,.F.);
#320=ORIENTED_EDGE('',*,*,#196,.F.);
#321=ORIENTED_EDGE('',*,*,#224,.F.);
#322=ORIENTED_EDGE('',*,*,#226,.T.);
#323=ORIENTED_EDGE('',*,*,#239,.F.);
#324=ORIENTED_EDGE('',*,*,#220,.F.);
#325=ORIENTED_EDGE('',*,*,#202,.T.);
#326=ORIENTED_EDGE('',*,*,#215,.F.);
#327=ORIENTED_EDGE('',*,*,#218,.T.);
#328=ORIENTED_EDGE('',*,*,#219,.F.);
#329=ORIENTED_EDGE('',*,*,#239,.T.);
#330=ORIENTED_EDGE('',*,*,#225,.T.);
#331=ORIENTED_EDGE('',*,*,#212,.T.);
#332=ORIENTED_EDGE('',*,*,#238,.T.);
#333=ORIENTED_EDGE('',*,*,#236,.T.);
#334=ORIENTED_EDGE('',*,*,#232,.T.);
#335=ORIENTED_EDGE('',*,*,#235,.T.);
#336=CYLINDRICAL_SURFACE('',#375,3.);
#337=CYLINDRICAL_SURFACE('',#378,1.);
#338=CYLINDRICAL_SURFACE('',#387,1.);
#339=CYLINDRICAL_SURFACE('',#390,1.);
#340=CYLINDRICAL_SURFACE('',#393,1.);
#341=CYLINDRICAL_SURFACE('',#395,2.6);
#342=ADVANCED_FACE('',(#33),#336,.F.);
#343=ADVANCED_FACE('',(#34),#337,.T.);
#344=ADVANCED_FACE('',(#35),#20,.T.);
#345=ADVANCED_FACE('',(#36,#15,#16),#21,.F.);
#346=ADVANCED_FACE('',(#37),#338,.T.);
#347=ADVANCED_FACE('',(#38),#22,.T.);
#348=ADVANCED_FACE('',(#39),#339,.T.);
#349=ADVANCED_FACE('',(#40),#23,.T.);
#350=ADVANCED_FACE('',(#41),#340,.T.);
#351=ADVANCED_FACE('',(#42),#341,.F.);
#352=ADVANCED_FACE('',(#43,#17),#24,.T.);
#353=ADVANCED_FACE('',(#44),#25,.T.);
#354=ADVANCED_FACE('',(#45,#18),#26,.T.);
#355=ADVANCED_FACE('',(#46),#27,.T.);
#356=ADVANCED_FACE('',(#47),#28,.T.);
#357=ADVANCED_FACE('',(#48),#29,.T.);
#358=ADVANCED_FACE('',(#49),#30,.T.);
#359=ADVANCED_FACE('',(#50),#31,.T.);
#360=ADVANCED_FACE('',(#51,#19),#32,.T.);
#361=CLOSED_SHELL('',(#342,#343,#344,#345,#346,#347,#348,#349,#350,#351,
#352,#353,#354,#355,#356,#357,#358,#359,#360));
#362=DERIVED_UNIT_ELEMENT(#364,1.);
#363=DERIVED_UNIT_ELEMENT(#611,-3.);
#364=(
MASS_UNIT()
NAMED_UNIT(*)
SI_UNIT(.KILO.,.GRAM.)
);
#365=DERIVED_UNIT((#362,#363));
#366=MEASURE_REPRESENTATION_ITEM('density measure',
POSITIVE_RATIO_MEASURE(7850.),#365);
#367=PROPERTY_DEFINITION_REPRESENTATION(#372,#369);
#368=PROPERTY_DEFINITION_REPRESENTATION(#373,#370);
#369=REPRESENTATION('material name',(#371),#608);
#370=REPRESENTATION('density',(#366),#608);
#371=DESCRIPTIVE_REPRESENTATION_ITEM('\X2\92FC\X0\','\X2\92FC\X0\');
#372=PROPERTY_DEFINITION('material property','material name',#618);
#373=PROPERTY_DEFINITION('material property','density of part',#618);
#374=AXIS2_PLACEMENT_3D('',#506,#406,#407);
#375=AXIS2_PLACEMENT_3D('',#507,#408,#409);
#376=AXIS2_PLACEMENT_3D('',#509,#410,#411);
#377=AXIS2_PLACEMENT_3D('',#512,#413,#414);
#378=AXIS2_PLACEMENT_3D('',#513,#415,#416);
#379=AXIS2_PLACEMENT_3D('',#516,#417,#418);
#380=AXIS2_PLACEMENT_3D('',#520,#420,#421);
#381=AXIS2_PLACEMENT_3D('',#522,#423,#424);
#382=AXIS2_PLACEMENT_3D('',#528,#428,#429);
#383=AXIS2_PLACEMENT_3D('',#532,#431,#432);
#384=AXIS2_PLACEMENT_3D('',#536,#434,#435);
#385=AXIS2_PLACEMENT_3D('',#539,#437,#438);
#386=AXIS2_PLACEMENT_3D('',#541,#439,#440);
#387=AXIS2_PLACEMENT_3D('',#542,#441,#442);
#388=AXIS2_PLACEMENT_3D('',#544,#443,#444);
#389=AXIS2_PLACEMENT_3D('',#546,#446,#447);
#390=AXIS2_PLACEMENT_3D('',#554,#452,#453);
#391=AXIS2_PLACEMENT_3D('',#556,#454,#455);
#392=AXIS2_PLACEMENT_3D('',#558,#457,#458);
#393=AXIS2_PLACEMENT_3D('',#562,#461,#462);
#394=AXIS2_PLACEMENT_3D('',#564,#463,#464);
#395=AXIS2_PLACEMENT_3D('',#566,#466,#467);
#396=AXIS2_PLACEMENT_3D('',#568,#468,#469);
#397=AXIS2_PLACEMENT_3D('',#570,#471,#472);
#398=AXIS2_PLACEMENT_3D('',#574,#475,#476);
#399=AXIS2_PLACEMENT_3D('',#578,#479,#480);
#400=AXIS2_PLACEMENT_3D('',#587,#485,#486);
#401=AXIS2_PLACEMENT_3D('',#593,#490,#491);
#402=AXIS2_PLACEMENT_3D('',#597,#494,#495);
#403=AXIS2_PLACEMENT_3D('',#601,#498,#499);
#404=AXIS2_PLACEMENT_3D('',#603,#501,#502);
#405=AXIS2_PLACEMENT_3D('',#605,#504,#505);
#406=DIRECTION('axis',(0.,0.,1.));
#407=DIRECTION('refdir',(1.,0.,0.));
#408=DIRECTION('center_axis',(0.,0.,1.));
#409=DIRECTION('ref_axis',(1.,0.,0.));
#410=DIRECTION('center_axis',(0.,0.,1.));
#411=DIRECTION('ref_axis',(1.,0.,0.));
#412=DIRECTION('',(0.,0.,1.));
#413=DIRECTION('center_axis',(0.,0.,-1.));
#414=DIRECTION('ref_axis',(1.,0.,0.));
#415=DIRECTION('center_axis',(0.,0.,1.));
#416=DIRECTION('ref_axis',(0.707106781186548,0.707106781186548,0.));
#417=DIRECTION('center_axis',(0.,0.,-1.));
#418=DIRECTION('ref_axis',(0.707106781186548,0.707106781186548,0.));
#419=DIRECTION('',(0.,0.,-1.));
#420=DIRECTION('center_axis',(0.,0.,1.));
#421=DIRECTION('ref_axis',(0.707106781186548,0.707106781186548,0.));
#422=DIRECTION('',(0.,0.,1.));
#423=DIRECTION('center_axis',(0.,1.,0.));
#424=DIRECTION('ref_axis',(-1.,0.,0.));
#425=DIRECTION('',(-1.,0.,0.));
#426=DIRECTION('',(0.,0.,-1.));
#427=DIRECTION('',(-1.,0.,0.));
#428=DIRECTION('center_axis',(0.,0.,1.));
#429=DIRECTION('ref_axis',(1.,0.,0.));
#430=DIRECTION('',(0.,1.,0.));
#431=DIRECTION('center_axis',(0.,0.,1.));
#432=DIRECTION('ref_axis',(0.707106781186549,-0.707106781186546,0.));
#433=DIRECTION('',(1.,0.,0.));
#434=DIRECTION('center_axis',(0.,0.,1.));
#435=DIRECTION('ref_axis',(-0.707106781186547,-0.707106781186548,0.));
#436=DIRECTION('',(0.,-1.,0.));
#437=DIRECTION('center_axis',(0.,0.,1.));
#438=DIRECTION('ref_axis',(-0.707106781186549,0.707106781186546,0.));
#439=DIRECTION('center_axis',(0.,0.,-1.));
#440=DIRECTION('ref_axis',(1.,0.,0.));
#441=DIRECTION('center_axis',(0.,0.,1.));
#442=DIRECTION('ref_axis',(-0.707106781186549,0.707106781186546,0.));
#443=DIRECTION('center_axis',(0.,0.,-1.));
#444=DIRECTION('ref_axis',(-0.707106781186549,0.707106781186546,0.));
#445=DIRECTION('',(0.,0.,1.));
#446=DIRECTION('center_axis',(-1.,0.,0.));
#447=DIRECTION('ref_axis',(0.,-1.,0.));
#448=DIRECTION('',(0.,0.,-1.));
#449=DIRECTION('',(0.,-1.,0.));
#450=DIRECTION('',(0.,0.,1.));
#451=DIRECTION('',(0.,-1.,0.));
#452=DIRECTION('center_axis',(0.,0.,1.));
#453=DIRECTION('ref_axis',(-0.707106781186547,-0.707106781186548,0.));
#454=DIRECTION('center_axis',(0.,0.,-1.));
#455=DIRECTION('ref_axis',(-0.707106781186547,-0.707106781186548,0.));
#456=DIRECTION('',(0.,0.,1.));
#457=DIRECTION('center_axis',(0.,-1.,0.));
#458=DIRECTION('ref_axis',(1.,0.,0.));
#459=DIRECTION('',(0.,0.,-1.));
#460=DIRECTION('',(1.,0.,0.));
#461=DIRECTION('center_axis',(0.,0.,1.));
#462=DIRECTION('ref_axis',(0.707106781186549,-0.707106781186546,0.));
#463=DIRECTION('center_axis',(0.,0.,-1.));
#464=DIRECTION('ref_axis',(0.707106781186549,-0.707106781186546,0.));
#465=DIRECTION('',(0.,0.,1.));
#466=DIRECTION('center_axis',(0.,0.,1.));
#467=DIRECTION('ref_axis',(1.,0.,0.));
#468=DIRECTION('center_axis',(0.,0.,-1.));
#469=DIRECTION('ref_axis',(1.,0.,0.));
#470=DIRECTION('',(0.,0.,-1.));
#471=DIRECTION('center_axis',(0.,0.,1.));
#472=DIRECTION('ref_axis',(1.,0.,0.));
#473=DIRECTION('',(-1.,0.,0.));
#474=DIRECTION('',(0.,1.,0.));
#475=DIRECTION('center_axis',(0.,1.,0.));
#476=DIRECTION('ref_axis',(-1.,0.,0.));
#477=DIRECTION('',(-1.,0.,0.));
#478=DIRECTION('',(0.,0.,1.));
#479=DIRECTION('center_axis',(0.,0.,1.));
#480=DIRECTION('ref_axis',(1.,0.,0.));
#481=DIRECTION('',(-1.84652478108134E-16,-1.,0.));
#482=DIRECTION('',(1.,1.77281121696632E-16,0.));
#483=DIRECTION('',(2.30815597635168E-16,1.,0.));
#484=DIRECTION('',(-1.,-2.2160140212079E-17,0.));
#485=DIRECTION('center_axis',(1.,-2.30815597635168E-16,0.));
#486=DIRECTION('ref_axis',(2.30815597635168E-16,1.,0.));
#487=DIRECTION('',(0.,0.,1.));
#488=DIRECTION('',(2.30815597635168E-16,1.,0.));
#489=DIRECTION('',(0.,0.,1.));
#490=DIRECTION('center_axis',(1.77281121696632E-16,-1.,0.));
#491=DIRECTION('ref_axis',(1.,1.77281121696632E-16,0.));
#492=DIRECTION('',(0.,0.,1.));
#493=DIRECTION('',(1.,1.77281121696632E-16,0.));
#494=DIRECTION('center_axis',(-2.2160140212079E-17,1.,0.));
#495=DIRECTION('ref_axis',(-1.,-2.2160140212079E-17,0.));
#496=DIRECTION('',(-1.,-2.2160140212079E-17,0.));
#497=DIRECTION('',(0.,0.,1.));
#498=DIRECTION('center_axis',(-1.,1.84652478108134E-16,0.));
#499=DIRECTION('ref_axis',(-1.84652478108134E-16,-1.,0.));
#500=DIRECTION('',(-1.84652478108134E-16,-1.,0.));
#501=DIRECTION('center_axis',(1.,0.,0.));
#502=DIRECTION('ref_axis',(0.,1.,0.));
#503=DIRECTION('',(0.,1.,0.));
#504=DIRECTION('center_axis',(0.,0.,1.));
#505=DIRECTION('ref_axis',(1.,0.,0.));
#506=CARTESIAN_POINT('',(0.,0.,0.));
#507=CARTESIAN_POINT('Origin',(15.,15.,0.));
#508=CARTESIAN_POINT('',(12.,15.,0.));
#509=CARTESIAN_POINT('Origin',(15.,15.,0.));
#510=CARTESIAN_POINT('',(12.,15.,2.));
#511=CARTESIAN_POINT('',(12.,15.,0.));
#512=CARTESIAN_POINT('Origin',(15.,15.,2.));
#513=CARTESIAN_POINT('Origin',(29.,49.,0.));
#514=CARTESIAN_POINT('',(29.,50.,2.));
#515=CARTESIAN_POINT('',(30.,49.,2.));
#516=CARTESIAN_POINT('Origin',(29.,49.,2.));
#517=CARTESIAN_POINT('',(30.,49.,0.));
#518=CARTESIAN_POINT('',(30.,49.,0.));
#519=CARTESIAN_POINT('',(29.,50.,0.));
#520=CARTESIAN_POINT('Origin',(29.,49.,0.));
#521=CARTESIAN_POINT('',(29.,50.,0.));
#522=CARTESIAN_POINT('Origin',(30.,50.,0.));
#523=CARTESIAN_POINT('',(1.,50.,0.));
#524=CARTESIAN_POINT('',(30.,50.,0.));
#525=CARTESIAN_POINT('',(1.,50.,2.));
#526=CARTESIAN_POINT('',(1.,50.,0.));
#527=CARTESIAN_POINT('',(30.,50.,2.));
#528=CARTESIAN_POINT('Origin',(15.,15.,0.));
#529=CARTESIAN_POINT('',(30.,1.,0.));
#530=CARTESIAN_POINT('',(30.,0.,0.));
#531=CARTESIAN_POINT('',(29.,0.,0.));
#532=CARTESIAN_POINT('Origin',(29.,1.,0.));
#533=CARTESIAN_POINT('',(1.,0.,0.));
#534=CARTESIAN_POINT('',(0.,0.,0.));
#535=CARTESIAN_POINT('',(0.,0.999999999999996,0.));
#536=CARTESIAN_POINT('Origin',(1.,1.,0.));
#537=CARTESIAN_POINT('',(0.,49.,0.));
#538=CARTESIAN_POINT('',(0.,50.,0.));
#539=CARTESIAN_POINT('Origin',(1.,49.,0.));
#540=CARTESIAN_POINT('',(12.4,40.,0.));
#541=CARTESIAN_POINT('Origin',(15.,40.,0.));
#542=CARTESIAN_POINT('Origin',(1.,49.,0.));
#543=CARTESIAN_POINT('',(0.,49.,2.));
#544=CARTESIAN_POINT('Origin',(1.,49.,2.));
#545=CARTESIAN_POINT('',(0.,49.,0.));
#546=CARTESIAN_POINT('Origin',(0.,30.,0.));
#547=CARTESIAN_POINT('',(0.,1.,10.));
#548=CARTESIAN_POINT('',(0.,1.,0.));
#549=CARTESIAN_POINT('',(0.,30.,10.));
#550=CARTESIAN_POINT('',(0.,30.,10.));
#551=CARTESIAN_POINT('',(0.,30.,2.));
#552=CARTESIAN_POINT('',(0.,30.,0.));
#553=CARTESIAN_POINT('',(0.,50.,2.));
#554=CARTESIAN_POINT('Origin',(1.,1.,0.));
#555=CARTESIAN_POINT('',(1.,0.,10.));
#556=CARTESIAN_POINT('Origin',(1.,1.,10.));
#557=CARTESIAN_POINT('',(1.,0.,0.));
#558=CARTESIAN_POINT('Origin',(0.,0.,0.));
#559=CARTESIAN_POINT('',(29.,0.,10.));
#560=CARTESIAN_POINT('',(29.,0.,0.));
#561=CARTESIAN_POINT('',(0.,0.,10.));
#562=CARTESIAN_POINT('Origin',(29.,1.,0.));
#563=CARTESIAN_POINT('',(30.,1.,10.));
#564=CARTESIAN_POINT('Origin',(29.,1.,10.));
#565=CARTESIAN_POINT('',(30.,1.,0.));
#566=CARTESIAN_POINT('Origin',(15.,40.,0.));
#567=CARTESIAN_POINT('',(12.4,40.,2.));
#568=CARTESIAN_POINT('Origin',(15.,40.,2.));
#569=CARTESIAN_POINT('',(12.4,40.,0.));
#570=CARTESIAN_POINT('Origin',(15.,40.,2.));
#571=CARTESIAN_POINT('',(30.,30.,2.));
#572=CARTESIAN_POINT('',(22.5,30.,2.));
#573=CARTESIAN_POINT('',(30.,30.,2.));
#574=CARTESIAN_POINT('Origin',(30.,30.,0.));
#575=CARTESIAN_POINT('',(30.,30.,10.));
#576=CARTESIAN_POINT('',(0.,30.,10.));
#577=CARTESIAN_POINT('',(30.,30.,0.));
#578=CARTESIAN_POINT('Origin',(15.,15.,2.));
#579=CARTESIAN_POINT('',(27.525,27.025,2.));
#580=CARTESIAN_POINT('',(27.525,2.975,2.));
#581=CARTESIAN_POINT('',(27.525,21.0125,2.));
#582=CARTESIAN_POINT('',(2.475,27.025,2.));
#583=CARTESIAN_POINT('',(8.7375,27.025,2.));
#584=CARTESIAN_POINT('',(2.475,2.97499999999999,2.));
#585=CARTESIAN_POINT('',(2.475,8.9875,2.));
#586=CARTESIAN_POINT('',(21.2625,2.975,2.));
#587=CARTESIAN_POINT('Origin',(2.475,2.97499999999999,0.));
#588=CARTESIAN_POINT('',(2.475,27.025,10.));
#589=CARTESIAN_POINT('',(2.475,27.025,0.));
#590=CARTESIAN_POINT('',(2.475,2.97499999999999,10.));
#591=CARTESIAN_POINT('',(2.475,27.025,10.));
#592=CARTESIAN_POINT('',(2.475,2.97499999999999,0.));
#593=CARTESIAN_POINT('Origin',(2.475,27.025,0.));
#594=CARTESIAN_POINT('',(27.525,27.025,10.));
#595=CARTESIAN_POINT('',(27.525,27.025,0.));
#596=CARTESIAN_POINT('',(27.525,27.025,10.));
#597=CARTESIAN_POINT('Origin',(27.525,2.975,0.));
#598=CARTESIAN_POINT('',(27.525,2.97499999999999,10.));
#599=CARTESIAN_POINT('',(2.475,2.97499999999999,10.));
#600=CARTESIAN_POINT('',(27.525,2.975,0.));
#601=CARTESIAN_POINT('Origin',(27.525,27.025,0.));
#602=CARTESIAN_POINT('',(27.525,2.975,10.));
#603=CARTESIAN_POINT('Origin',(30.,0.,0.));
#604=CARTESIAN_POINT('',(30.,0.,10.));
#605=CARTESIAN_POINT('Origin',(15.,15.,10.));
#606=UNCERTAINTY_MEASURE_WITH_UNIT(LENGTH_MEASURE(0.01),#610,
'DISTANCE_ACCURACY_VALUE',
'Maximum model space distance between geometric entities at asserted c
onnectivities');
#607=UNCERTAINTY_MEASURE_WITH_UNIT(LENGTH_MEASURE(0.01),#610,
'DISTANCE_ACCURACY_VALUE',
'Maximum model space distance between geometric entities at asserted c
onnectivities');
#608=(
GEOMETRIC_REPRESENTATION_CONTEXT(3)
GLOBAL_UNCERTAINTY_ASSIGNED_CONTEXT((#606))
GLOBAL_UNIT_ASSIGNED_CONTEXT((#610,#612,#613))
REPRESENTATION_CONTEXT('','3D')
);
#609=(
GEOMETRIC_REPRESENTATION_CONTEXT(3)
GLOBAL_UNCERTAINTY_ASSIGNED_CONTEXT((#607))
GLOBAL_UNIT_ASSIGNED_CONTEXT((#610,#612,#613))
REPRESENTATION_CONTEXT('','3D')
);
#610=(
LENGTH_UNIT()
NAMED_UNIT(*)
SI_UNIT(.MILLI.,.METRE.)
);
#611=(
LENGTH_UNIT()
NAMED_UNIT(*)
SI_UNIT($,.METRE.)
);
#612=(
NAMED_UNIT(*)
PLANE_ANGLE_UNIT()
SI_UNIT($,.RADIAN.)
);
#613=(
NAMED_UNIT(*)
SI_UNIT($,.STERADIAN.)
SOLID_ANGLE_UNIT()
);
#614=SHAPE_DEFINITION_REPRESENTATION(#615,#616);
#615=PRODUCT_DEFINITION_SHAPE('',$,#618);
#616=SHAPE_REPRESENTATION('',(#374),#608);
#617=PRODUCT_DEFINITION_CONTEXT('part definition',#622,'design');
#618=PRODUCT_DEFINITION('frame_joint','frame_joint v4',#619,#617);
#619=PRODUCT_DEFINITION_FORMATION('',$,#624);
#620=PRODUCT_RELATED_PRODUCT_CATEGORY('frame_joint v4','frame_joint v4',
(#624));
#621=APPLICATION_PROTOCOL_DEFINITION('international standard',
'automotive_design',2009,#622);
#622=APPLICATION_CONTEXT(
'Core Data for Automotive Mechanical Design Process');
#623=PRODUCT_CONTEXT('part definition',#622,'mechanical');
#624=PRODUCT('frame_joint','frame_joint v4',$,(#623));
#625=PRESENTATION_STYLE_ASSIGNMENT((#626));
#626=SURFACE_STYLE_USAGE(.BOTH.,#627);
#627=SURFACE_SIDE_STYLE('',(#628));
#628=SURFACE_STYLE_FILL_AREA(#629);
#629=FILL_AREA_STYLE('\X2\92FC\X0\ - \X2\30B530C630F3\X0\',(#630));
#630=FILL_AREA_STYLE_COLOUR('\X2\92FC\X0\ - \X2\30B530C630F3\X0\',#631);
#631=COLOUR_RGB('\X2\92FC\X0\ - \X2\30B530C630F3\X0\',0.627450980392157,
0.627450980392157,0.627450980392157);
ENDSEC;
END-ISO-10303-21;
