ISO-10303-21;
HEADER;
/* Generated by software containing ST-Developer
 * from STEP Tools, Inc. (www.steptools.com) 
 */

FILE_DESCRIPTION(
/* description */ (''),
/* implementation_level */ '2;1');

FILE_NAME(
/* name */ 'moton_ctrl_wheel.step',
/* time_stamp */ '2026-05-10T12:53:23+09:00',
/* author */ (''),
/* organization */ (''),
/* preprocessor_version */ 'ST-DEVELOPER v20.1',
/* originating_system */ 'Autodesk Translation Framework v15.8.0.0',
/* authorisation */ '');

FILE_SCHEMA (('AUTOMOTIVE_DESIGN { 1 0 10303 214 3 1 1 }'));
ENDSEC;

DATA;
#10=MECHANICAL_DESIGN_GEOMETRIC_PRESENTATION_REPRESENTATION('',(#13),#1313);
#11=SHAPE_REPRESENTATION_RELATIONSHIP('SRR','None',#1320,#12);
#12=ADVANCED_BREP_SHAPE_REPRESENTATION('',(#14),#1312);
#13=STYLED_ITEM('',(#1329),#14);
#14=MANIFOLD_SOLID_BREP('\X2\30DC30C730A3\X0\1',#793);
#15=FACE_BOUND('',#104,.T.);
#16=FACE_BOUND('',#113,.T.);
#17=FACE_BOUND('',#116,.T.);
#18=FACE_BOUND('',#125,.T.);
#19=FACE_BOUND('',#130,.T.);
#20=FACE_BOUND('',#132,.T.);
#21=FACE_BOUND('',#143,.T.);
#22=CYLINDRICAL_SURFACE('',#815,3.1);
#23=CYLINDRICAL_SURFACE('',#820,20.);
#24=CYLINDRICAL_SURFACE('',#842,2.55);
#25=CYLINDRICAL_SURFACE('',#844,2.55);
#26=CYLINDRICAL_SURFACE('',#847,1.);
#27=CYLINDRICAL_SURFACE('',#849,1.);
#28=CYLINDRICAL_SURFACE('',#851,1.);
#29=CYLINDRICAL_SURFACE('',#853,1.);
#30=CYLINDRICAL_SURFACE('',#855,2.55);
#31=CYLINDRICAL_SURFACE('',#867,12.5);
#32=CYLINDRICAL_SURFACE('',#868,12.5);
#33=CIRCLE('',#810,12.5);
#34=CIRCLE('',#811,12.5);
#35=CIRCLE('',#816,3.1);
#36=CIRCLE('',#817,3.1);
#37=CIRCLE('',#819,20.);
#38=CIRCLE('',#821,20.);
#39=CIRCLE('',#829,2.55);
#40=CIRCLE('',#831,1.);
#41=CIRCLE('',#832,1.);
#42=CIRCLE('',#834,2.55);
#43=CIRCLE('',#836,12.5);
#44=CIRCLE('',#837,1.);
#45=CIRCLE('',#838,1.);
#46=CIRCLE('',#839,1.);
#47=CIRCLE('',#840,1.);
#48=CIRCLE('',#841,12.5);
#49=CIRCLE('',#843,2.55);
#50=CIRCLE('',#845,2.55);
#51=CIRCLE('',#848,1.);
#52=CIRCLE('',#850,1.);
#53=CIRCLE('',#856,2.55);
#54=CIRCLE('',#857,2.55);
#55=FACE_OUTER_BOUND('',#96,.T.);
#56=FACE_OUTER_BOUND('',#97,.T.);
#57=FACE_OUTER_BOUND('',#98,.T.);
#58=FACE_OUTER_BOUND('',#99,.T.);
#59=FACE_OUTER_BOUND('',#100,.T.);
#60=FACE_OUTER_BOUND('',#101,.T.);
#61=FACE_OUTER_BOUND('',#102,.T.);
#62=FACE_OUTER_BOUND('',#103,.T.);
#63=FACE_OUTER_BOUND('',#105,.T.);
#64=FACE_OUTER_BOUND('',#106,.T.);
#65=FACE_OUTER_BOUND('',#107,.T.);
#66=FACE_OUTER_BOUND('',#108,.T.);
#67=FACE_OUTER_BOUND('',#109,.T.);
#68=FACE_OUTER_BOUND('',#110,.T.);
#69=FACE_OUTER_BOUND('',#111,.T.);
#70=FACE_OUTER_BOUND('',#112,.T.);
#71=FACE_OUTER_BOUND('',#114,.T.);
#72=FACE_OUTER_BOUND('',#115,.T.);
#73=FACE_OUTER_BOUND('',#117,.T.);
#74=FACE_OUTER_BOUND('',#118,.T.);
#75=FACE_OUTER_BOUND('',#119,.T.);
#76=FACE_OUTER_BOUND('',#120,.T.);
#77=FACE_OUTER_BOUND('',#121,.T.);
#78=FACE_OUTER_BOUND('',#122,.T.);
#79=FACE_OUTER_BOUND('',#123,.T.);
#80=FACE_OUTER_BOUND('',#124,.T.);
#81=FACE_OUTER_BOUND('',#126,.T.);
#82=FACE_OUTER_BOUND('',#127,.T.);
#83=FACE_OUTER_BOUND('',#128,.T.);
#84=FACE_OUTER_BOUND('',#129,.T.);
#85=FACE_OUTER_BOUND('',#131,.T.);
#86=FACE_OUTER_BOUND('',#133,.T.);
#87=FACE_OUTER_BOUND('',#134,.T.);
#88=FACE_OUTER_BOUND('',#135,.T.);
#89=FACE_OUTER_BOUND('',#136,.T.);
#90=FACE_OUTER_BOUND('',#137,.T.);
#91=FACE_OUTER_BOUND('',#138,.T.);
#92=FACE_OUTER_BOUND('',#139,.T.);
#93=FACE_OUTER_BOUND('',#140,.T.);
#94=FACE_OUTER_BOUND('',#141,.T.);
#95=FACE_OUTER_BOUND('',#142,.T.);
#96=EDGE_LOOP('',(#502,#503,#504,#505));
#97=EDGE_LOOP('',(#506,#507,#508,#509));
#98=EDGE_LOOP('',(#510,#511,#512,#513,#514,#515,#516));
#99=EDGE_LOOP('',(#517,#518,#519,#520));
#100=EDGE_LOOP('',(#521,#522,#523,#524,#525,#526,#527,#528));
#101=EDGE_LOOP('',(#529,#530,#531,#532));
#102=EDGE_LOOP('',(#533,#534,#535,#536));
#103=EDGE_LOOP('',(#537,#538,#539,#540,#541,#542,#543));
#104=EDGE_LOOP('',(#544));
#105=EDGE_LOOP('',(#545,#546,#547,#548));
#106=EDGE_LOOP('',(#549,#550,#551,#552,#553,#554,#555,#556));
#107=EDGE_LOOP('',(#557,#558,#559,#560,#561));
#108=EDGE_LOOP('',(#562,#563,#564,#565));
#109=EDGE_LOOP('',(#566,#567,#568,#569));
#110=EDGE_LOOP('',(#570,#571,#572,#573));
#111=EDGE_LOOP('',(#574,#575,#576,#577));
#112=EDGE_LOOP('',(#578,#579,#580,#581));
#113=EDGE_LOOP('',(#582));
#114=EDGE_LOOP('',(#583,#584,#585,#586,#587,#588,#589,#590,#591,#592,#593,
#594,#595,#596,#597));
#115=EDGE_LOOP('',(#598,#599,#600,#601));
#116=EDGE_LOOP('',(#602));
#117=EDGE_LOOP('',(#603,#604,#605,#606,#607,#608,#609,#610,#611,#612,#613,
#614,#615,#616,#617,#618,#619,#620,#621,#622,#623,#624,#625,#626,#627,#628));
#118=EDGE_LOOP('',(#629,#630,#631,#632));
#119=EDGE_LOOP('',(#633,#634,#635,#636));
#120=EDGE_LOOP('',(#637,#638,#639,#640));
#121=EDGE_LOOP('',(#641,#642,#643,#644));
#122=EDGE_LOOP('',(#645,#646,#647,#648));
#123=EDGE_LOOP('',(#649,#650,#651,#652));
#124=EDGE_LOOP('',(#653,#654,#655,#656));
#125=EDGE_LOOP('',(#657));
#126=EDGE_LOOP('',(#658,#659,#660,#661));
#127=EDGE_LOOP('',(#662,#663,#664,#665));
#128=EDGE_LOOP('',(#666,#667,#668,#669));
#129=EDGE_LOOP('',(#670));
#130=EDGE_LOOP('',(#671));
#131=EDGE_LOOP('',(#672,#673,#674,#675));
#132=EDGE_LOOP('',(#676));
#133=EDGE_LOOP('',(#677,#678,#679,#680,#681,#682));
#134=EDGE_LOOP('',(#683,#684,#685,#686));
#135=EDGE_LOOP('',(#687,#688,#689,#690));
#136=EDGE_LOOP('',(#691,#692,#693,#694));
#137=EDGE_LOOP('',(#695,#696,#697,#698));
#138=EDGE_LOOP('',(#699,#700,#701,#702,#703));
#139=EDGE_LOOP('',(#704,#705,#706,#707));
#140=EDGE_LOOP('',(#708,#709,#710,#711));
#141=EDGE_LOOP('',(#712,#713,#714,#715,#716));
#142=EDGE_LOOP('',(#717,#718,#719,#720));
#143=EDGE_LOOP('',(#721));
#144=LINE('',#1090,#232);
#145=LINE('',#1092,#233);
#146=LINE('',#1094,#234);
#147=LINE('',#1095,#235);
#148=LINE('',#1098,#236);
#149=LINE('',#1100,#237);
#150=LINE('',#1101,#238);
#151=LINE('',#1104,#239);
#152=LINE('',#1108,#240);
#153=LINE('',#1110,#241);
#154=LINE('',#1114,#242);
#155=LINE('',#1116,#243);
#156=LINE('',#1117,#244);
#157=LINE('',#1120,#245);
#158=LINE('',#1122,#246);
#159=LINE('',#1124,#247);
#160=LINE('',#1126,#248);
#161=LINE('',#1128,#249);
#162=LINE('',#1130,#250);
#163=LINE('',#1131,#251);
#164=LINE('',#1134,#252);
#165=LINE('',#1135,#253);
#166=LINE('',#1140,#254);
#167=LINE('',#1145,#255);
#168=LINE('',#1148,#256);
#169=LINE('',#1150,#257);
#170=LINE('',#1151,#258);
#171=LINE('',#1154,#259);
#172=LINE('',#1158,#260);
#173=LINE('',#1160,#261);
#174=LINE('',#1162,#262);
#175=LINE('',#1164,#263);
#176=LINE('',#1166,#264);
#177=LINE('',#1167,#265);
#178=LINE('',#1171,#266);
#179=LINE('',#1172,#267);
#180=LINE('',#1174,#268);
#181=LINE('',#1176,#269);
#182=LINE('',#1177,#270);
#183=LINE('',#1181,#271);
#184=LINE('',#1183,#272);
#185=LINE('',#1185,#273);
#186=LINE('',#1186,#274);
#187=LINE('',#1188,#275);
#188=LINE('',#1190,#276);
#189=LINE('',#1193,#277);
#190=LINE('',#1195,#278);
#191=LINE('',#1196,#279);
#192=LINE('',#1199,#280);
#193=LINE('',#1201,#281);
#194=LINE('',#1202,#282);
#195=LINE('',#1207,#283);
#196=LINE('',#1211,#284);
#197=LINE('',#1214,#285);
#198=LINE('',#1216,#286);
#199=LINE('',#1218,#287);
#200=LINE('',#1220,#288);
#201=LINE('',#1222,#289);
#202=LINE('',#1223,#290);
#203=LINE('',#1226,#291);
#204=LINE('',#1228,#292);
#205=LINE('',#1229,#293);
#206=LINE('',#1237,#294);
#207=LINE('',#1240,#295);
#208=LINE('',#1242,#296);
#209=LINE('',#1244,#297);
#210=LINE('',#1246,#298);
#211=LINE('',#1247,#299);
#212=LINE('',#1249,#300);
#213=LINE('',#1253,#301);
#214=LINE('',#1257,#302);
#215=LINE('',#1262,#303);
#216=LINE('',#1265,#304);
#217=LINE('',#1268,#305);
#218=LINE('',#1272,#306);
#219=LINE('',#1275,#307);
#220=LINE('',#1278,#308);
#221=LINE('',#1280,#309);
#222=LINE('',#1282,#310);
#223=LINE('',#1284,#311);
#224=LINE('',#1289,#312);
#225=LINE('',#1293,#313);
#226=LINE('',#1295,#314);
#227=LINE('',#1297,#315);
#228=LINE('',#1299,#316);
#229=LINE('',#1300,#317);
#230=LINE('',#1302,#318);
#231=LINE('',#1304,#319);
#232=VECTOR('',#874,10.);
#233=VECTOR('',#875,10.);
#234=VECTOR('',#876,10.);
#235=VECTOR('',#877,10.);
#236=VECTOR('',#880,10.);
#237=VECTOR('',#881,10.);
#238=VECTOR('',#882,10.);
#239=VECTOR('',#885,10.);
#240=VECTOR('',#888,10.);
#241=VECTOR('',#889,10.);
#242=VECTOR('',#894,10.);
#243=VECTOR('',#895,10.);
#244=VECTOR('',#896,10.);
#245=VECTOR('',#899,10.);
#246=VECTOR('',#900,10.);
#247=VECTOR('',#901,10.);
#248=VECTOR('',#902,10.);
#249=VECTOR('',#903,10.);
#250=VECTOR('',#904,10.);
#251=VECTOR('',#905,10.);
#252=VECTOR('',#908,10.);
#253=VECTOR('',#909,10.);
#254=VECTOR('',#914,3.1);
#255=VECTOR('',#919,10.);
#256=VECTOR('',#922,10.);
#257=VECTOR('',#923,10.);
#258=VECTOR('',#924,10.);
#259=VECTOR('',#927,10.);
#260=VECTOR('',#932,10.);
#261=VECTOR('',#933,10.);
#262=VECTOR('',#934,10.);
#263=VECTOR('',#935,10.);
#264=VECTOR('',#936,10.);
#265=VECTOR('',#937,10.);
#266=VECTOR('',#940,10.);
#267=VECTOR('',#941,10.);
#268=VECTOR('',#942,10.);
#269=VECTOR('',#943,10.);
#270=VECTOR('',#944,10.);
#271=VECTOR('',#947,10.);
#272=VECTOR('',#948,10.);
#273=VECTOR('',#949,10.);
#274=VECTOR('',#950,10.);
#275=VECTOR('',#953,10.);
#276=VECTOR('',#956,10.);
#277=VECTOR('',#959,10.);
#278=VECTOR('',#960,10.);
#279=VECTOR('',#961,10.);
#280=VECTOR('',#964,10.);
#281=VECTOR('',#965,10.);
#282=VECTOR('',#966,10.);
#283=VECTOR('',#971,10.);
#284=VECTOR('',#974,10.);
#285=VECTOR('',#977,10.);
#286=VECTOR('',#978,10.);
#287=VECTOR('',#979,10.);
#288=VECTOR('',#980,10.);
#289=VECTOR('',#981,10.);
#290=VECTOR('',#982,10.);
#291=VECTOR('',#985,10.);
#292=VECTOR('',#986,10.);
#293=VECTOR('',#987,10.);
#294=VECTOR('',#996,10.);
#295=VECTOR('',#999,10.);
#296=VECTOR('',#1000,10.);
#297=VECTOR('',#1001,10.);
#298=VECTOR('',#1002,10.);
#299=VECTOR('',#1003,10.);
#300=VECTOR('',#1004,10.);
#301=VECTOR('',#1007,10.);
#302=VECTOR('',#1010,10.);
#303=VECTOR('',#1017,2.55);
#304=VECTOR('',#1020,2.55);
#305=VECTOR('',#1025,10.);
#306=VECTOR('',#1030,10.);
#307=VECTOR('',#1033,10.);
#308=VECTOR('',#1038,10.);
#309=VECTOR('',#1041,10.);
#310=VECTOR('',#1044,10.);
#311=VECTOR('',#1047,10.);
#312=VECTOR('',#1052,2.55);
#313=VECTOR('',#1059,10.);
#314=VECTOR('',#1062,10.);
#315=VECTOR('',#1065,10.);
#316=VECTOR('',#1068,10.);
#317=VECTOR('',#1069,10.);
#318=VECTOR('',#1072,10.);
#319=VECTOR('',#1075,10.);
#320=VERTEX_POINT('',#1088);
#321=VERTEX_POINT('',#1089);
#322=VERTEX_POINT('',#1091);
#323=VERTEX_POINT('',#1093);
#324=VERTEX_POINT('',#1097);
#325=VERTEX_POINT('',#1099);
#326=VERTEX_POINT('',#1103);
#327=VERTEX_POINT('',#1105);
#328=VERTEX_POINT('',#1107);
#329=VERTEX_POINT('',#1109);
#330=VERTEX_POINT('',#1113);
#331=VERTEX_POINT('',#1115);
#332=VERTEX_POINT('',#1119);
#333=VERTEX_POINT('',#1121);
#334=VERTEX_POINT('',#1123);
#335=VERTEX_POINT('',#1125);
#336=VERTEX_POINT('',#1127);
#337=VERTEX_POINT('',#1129);
#338=VERTEX_POINT('',#1133);
#339=VERTEX_POINT('',#1137);
#340=VERTEX_POINT('',#1139);
#341=VERTEX_POINT('',#1143);
#342=VERTEX_POINT('',#1144);
#343=VERTEX_POINT('',#1147);
#344=VERTEX_POINT('',#1149);
#345=VERTEX_POINT('',#1153);
#346=VERTEX_POINT('',#1157);
#347=VERTEX_POINT('',#1159);
#348=VERTEX_POINT('',#1161);
#349=VERTEX_POINT('',#1163);
#350=VERTEX_POINT('',#1165);
#351=VERTEX_POINT('',#1169);
#352=VERTEX_POINT('',#1170);
#353=VERTEX_POINT('',#1173);
#354=VERTEX_POINT('',#1175);
#355=VERTEX_POINT('',#1179);
#356=VERTEX_POINT('',#1180);
#357=VERTEX_POINT('',#1182);
#358=VERTEX_POINT('',#1184);
#359=VERTEX_POINT('',#1192);
#360=VERTEX_POINT('',#1194);
#361=VERTEX_POINT('',#1198);
#362=VERTEX_POINT('',#1200);
#363=VERTEX_POINT('',#1203);
#364=VERTEX_POINT('',#1206);
#365=VERTEX_POINT('',#1208);
#366=VERTEX_POINT('',#1210);
#367=VERTEX_POINT('',#1212);
#368=VERTEX_POINT('',#1215);
#369=VERTEX_POINT('',#1217);
#370=VERTEX_POINT('',#1219);
#371=VERTEX_POINT('',#1221);
#372=VERTEX_POINT('',#1225);
#373=VERTEX_POINT('',#1227);
#374=VERTEX_POINT('',#1230);
#375=VERTEX_POINT('',#1234);
#376=VERTEX_POINT('',#1236);
#377=VERTEX_POINT('',#1239);
#378=VERTEX_POINT('',#1241);
#379=VERTEX_POINT('',#1243);
#380=VERTEX_POINT('',#1245);
#381=VERTEX_POINT('',#1248);
#382=VERTEX_POINT('',#1250);
#383=VERTEX_POINT('',#1252);
#384=VERTEX_POINT('',#1254);
#385=VERTEX_POINT('',#1256);
#386=VERTEX_POINT('',#1260);
#387=VERTEX_POINT('',#1264);
#388=VERTEX_POINT('',#1270);
#389=VERTEX_POINT('',#1274);
#390=VERTEX_POINT('',#1286);
#391=VERTEX_POINT('',#1288);
#392=EDGE_CURVE('',#320,#321,#144,.T.);
#393=EDGE_CURVE('',#322,#320,#145,.T.);
#394=EDGE_CURVE('',#323,#322,#146,.T.);
#395=EDGE_CURVE('',#321,#323,#147,.T.);
#396=EDGE_CURVE('',#324,#323,#148,.T.);
#397=EDGE_CURVE('',#325,#324,#149,.T.);
#398=EDGE_CURVE('',#325,#321,#150,.T.);
#399=EDGE_CURVE('',#322,#326,#151,.T.);
#400=EDGE_CURVE('',#326,#327,#33,.T.);
#401=EDGE_CURVE('',#327,#328,#152,.T.);
#402=EDGE_CURVE('',#329,#328,#153,.T.);
#403=EDGE_CURVE('',#329,#324,#34,.T.);
#404=EDGE_CURVE('',#330,#328,#154,.T.);
#405=EDGE_CURVE('',#331,#327,#155,.T.);
#406=EDGE_CURVE('',#330,#331,#156,.T.);
#407=EDGE_CURVE('',#332,#329,#157,.T.);
#408=EDGE_CURVE('',#328,#333,#158,.T.);
#409=EDGE_CURVE('',#333,#334,#159,.T.);
#410=EDGE_CURVE('',#334,#335,#160,.T.);
#411=EDGE_CURVE('',#335,#336,#161,.T.);
#412=EDGE_CURVE('',#337,#336,#162,.T.);
#413=EDGE_CURVE('',#332,#337,#163,.T.);
#414=EDGE_CURVE('',#338,#320,#164,.T.);
#415=EDGE_CURVE('',#326,#338,#165,.T.);
#416=EDGE_CURVE('',#339,#339,#35,.T.);
#417=EDGE_CURVE('',#339,#340,#166,.T.);
#418=EDGE_CURVE('',#340,#340,#36,.T.);
#419=EDGE_CURVE('',#341,#342,#167,.T.);
#420=EDGE_CURVE('',#333,#341,#37,.T.);
#421=EDGE_CURVE('',#343,#330,#168,.T.);
#422=EDGE_CURVE('',#344,#343,#169,.T.);
#423=EDGE_CURVE('',#342,#344,#170,.T.);
#424=EDGE_CURVE('',#345,#341,#171,.T.);
#425=EDGE_CURVE('',#334,#345,#38,.T.);
#426=EDGE_CURVE('',#346,#342,#172,.T.);
#427=EDGE_CURVE('',#346,#347,#173,.T.);
#428=EDGE_CURVE('',#348,#347,#174,.T.);
#429=EDGE_CURVE('',#349,#348,#175,.T.);
#430=EDGE_CURVE('',#349,#350,#176,.T.);
#431=EDGE_CURVE('',#350,#345,#177,.T.);
#432=EDGE_CURVE('',#351,#352,#178,.T.);
#433=EDGE_CURVE('',#344,#351,#179,.T.);
#434=EDGE_CURVE('',#353,#344,#180,.T.);
#435=EDGE_CURVE('',#354,#353,#181,.T.);
#436=EDGE_CURVE('',#352,#354,#182,.T.);
#437=EDGE_CURVE('',#355,#356,#183,.T.);
#438=EDGE_CURVE('',#357,#355,#184,.T.);
#439=EDGE_CURVE('',#358,#357,#185,.T.);
#440=EDGE_CURVE('',#356,#358,#186,.T.);
#441=EDGE_CURVE('',#351,#346,#187,.T.);
#442=EDGE_CURVE('',#347,#352,#188,.T.);
#443=EDGE_CURVE('',#359,#356,#189,.T.);
#444=EDGE_CURVE('',#360,#359,#190,.T.);
#445=EDGE_CURVE('',#355,#360,#191,.T.);
#446=EDGE_CURVE('',#358,#361,#192,.T.);
#447=EDGE_CURVE('',#362,#357,#193,.T.);
#448=EDGE_CURVE('',#361,#362,#194,.T.);
#449=EDGE_CURVE('',#363,#363,#39,.T.);
#450=EDGE_CURVE('',#331,#364,#195,.T.);
#451=EDGE_CURVE('',#365,#364,#40,.T.);
#452=EDGE_CURVE('',#365,#366,#196,.T.);
#453=EDGE_CURVE('',#367,#366,#41,.T.);
#454=EDGE_CURVE('',#367,#359,#197,.T.);
#455=EDGE_CURVE('',#361,#368,#198,.T.);
#456=EDGE_CURVE('',#368,#369,#199,.T.);
#457=EDGE_CURVE('',#369,#370,#200,.T.);
#458=EDGE_CURVE('',#370,#371,#201,.T.);
#459=EDGE_CURVE('',#371,#343,#202,.T.);
#460=EDGE_CURVE('',#372,#353,#203,.T.);
#461=EDGE_CURVE('',#373,#372,#204,.T.);
#462=EDGE_CURVE('',#354,#373,#205,.T.);
#463=EDGE_CURVE('',#374,#374,#42,.T.);
#464=EDGE_CURVE('',#325,#332,#43,.T.);
#465=EDGE_CURVE('',#375,#337,#44,.T.);
#466=EDGE_CURVE('',#375,#376,#206,.T.);
#467=EDGE_CURVE('',#348,#376,#45,.T.);
#468=EDGE_CURVE('',#373,#377,#207,.T.);
#469=EDGE_CURVE('',#377,#378,#208,.T.);
#470=EDGE_CURVE('',#378,#379,#209,.T.);
#471=EDGE_CURVE('',#379,#380,#210,.T.);
#472=EDGE_CURVE('',#380,#362,#211,.T.);
#473=EDGE_CURVE('',#360,#381,#212,.T.);
#474=EDGE_CURVE('',#382,#381,#46,.T.);
#475=EDGE_CURVE('',#382,#383,#213,.T.);
#476=EDGE_CURVE('',#384,#383,#47,.T.);
#477=EDGE_CURVE('',#384,#385,#214,.T.);
#478=EDGE_CURVE('',#385,#338,#48,.T.);
#479=EDGE_CURVE('',#386,#386,#49,.T.);
#480=EDGE_CURVE('',#386,#363,#215,.T.);
#481=EDGE_CURVE('',#374,#387,#216,.T.);
#482=EDGE_CURVE('',#387,#387,#50,.T.);
#483=EDGE_CURVE('',#381,#367,#217,.T.);
#484=EDGE_CURVE('',#336,#388,#51,.T.);
#485=EDGE_CURVE('',#388,#375,#218,.T.);
#486=EDGE_CURVE('',#376,#389,#219,.T.);
#487=EDGE_CURVE('',#389,#349,#52,.T.);
#488=EDGE_CURVE('',#366,#382,#220,.T.);
#489=EDGE_CURVE('',#383,#365,#221,.T.);
#490=EDGE_CURVE('',#364,#384,#222,.T.);
#491=EDGE_CURVE('',#331,#385,#223,.T.);
#492=EDGE_CURVE('',#390,#390,#53,.T.);
#493=EDGE_CURVE('',#390,#391,#224,.T.);
#494=EDGE_CURVE('',#391,#391,#54,.T.);
#495=EDGE_CURVE('',#350,#335,#225,.T.);
#496=EDGE_CURVE('',#388,#389,#226,.T.);
#497=EDGE_CURVE('',#343,#372,#227,.T.);
#498=EDGE_CURVE('',#379,#369,#228,.T.);
#499=EDGE_CURVE('',#380,#368,#229,.T.);
#500=EDGE_CURVE('',#378,#370,#230,.T.);
#501=EDGE_CURVE('',#371,#377,#231,.T.);
#502=ORIENTED_EDGE('',*,*,#392,.F.);
#503=ORIENTED_EDGE('',*,*,#393,.F.);
#504=ORIENTED_EDGE('',*,*,#394,.F.);
#505=ORIENTED_EDGE('',*,*,#395,.F.);
#506=ORIENTED_EDGE('',*,*,#395,.T.);
#507=ORIENTED_EDGE('',*,*,#396,.F.);
#508=ORIENTED_EDGE('',*,*,#397,.F.);
#509=ORIENTED_EDGE('',*,*,#398,.T.);
#510=ORIENTED_EDGE('',*,*,#394,.T.);
#511=ORIENTED_EDGE('',*,*,#399,.T.);
#512=ORIENTED_EDGE('',*,*,#400,.T.);
#513=ORIENTED_EDGE('',*,*,#401,.T.);
#514=ORIENTED_EDGE('',*,*,#402,.F.);
#515=ORIENTED_EDGE('',*,*,#403,.T.);
#516=ORIENTED_EDGE('',*,*,#396,.T.);
#517=ORIENTED_EDGE('',*,*,#404,.T.);
#518=ORIENTED_EDGE('',*,*,#401,.F.);
#519=ORIENTED_EDGE('',*,*,#405,.F.);
#520=ORIENTED_EDGE('',*,*,#406,.F.);
#521=ORIENTED_EDGE('',*,*,#407,.T.);
#522=ORIENTED_EDGE('',*,*,#402,.T.);
#523=ORIENTED_EDGE('',*,*,#408,.T.);
#524=ORIENTED_EDGE('',*,*,#409,.T.);
#525=ORIENTED_EDGE('',*,*,#410,.T.);
#526=ORIENTED_EDGE('',*,*,#411,.T.);
#527=ORIENTED_EDGE('',*,*,#412,.F.);
#528=ORIENTED_EDGE('',*,*,#413,.F.);
#529=ORIENTED_EDGE('',*,*,#393,.T.);
#530=ORIENTED_EDGE('',*,*,#414,.F.);
#531=ORIENTED_EDGE('',*,*,#415,.F.);
#532=ORIENTED_EDGE('',*,*,#399,.F.);
#533=ORIENTED_EDGE('',*,*,#416,.F.);
#534=ORIENTED_EDGE('',*,*,#417,.T.);
#535=ORIENTED_EDGE('',*,*,#418,.T.);
#536=ORIENTED_EDGE('',*,*,#417,.F.);
#537=ORIENTED_EDGE('',*,*,#419,.F.);
#538=ORIENTED_EDGE('',*,*,#420,.F.);
#539=ORIENTED_EDGE('',*,*,#408,.F.);
#540=ORIENTED_EDGE('',*,*,#404,.F.);
#541=ORIENTED_EDGE('',*,*,#421,.F.);
#542=ORIENTED_EDGE('',*,*,#422,.F.);
#543=ORIENTED_EDGE('',*,*,#423,.F.);
#544=ORIENTED_EDGE('',*,*,#418,.F.);
#545=ORIENTED_EDGE('',*,*,#420,.T.);
#546=ORIENTED_EDGE('',*,*,#424,.F.);
#547=ORIENTED_EDGE('',*,*,#425,.F.);
#548=ORIENTED_EDGE('',*,*,#409,.F.);
#549=ORIENTED_EDGE('',*,*,#419,.T.);
#550=ORIENTED_EDGE('',*,*,#426,.F.);
#551=ORIENTED_EDGE('',*,*,#427,.T.);
#552=ORIENTED_EDGE('',*,*,#428,.F.);
#553=ORIENTED_EDGE('',*,*,#429,.F.);
#554=ORIENTED_EDGE('',*,*,#430,.T.);
#555=ORIENTED_EDGE('',*,*,#431,.T.);
#556=ORIENTED_EDGE('',*,*,#424,.T.);
#557=ORIENTED_EDGE('',*,*,#432,.F.);
#558=ORIENTED_EDGE('',*,*,#433,.F.);
#559=ORIENTED_EDGE('',*,*,#434,.F.);
#560=ORIENTED_EDGE('',*,*,#435,.F.);
#561=ORIENTED_EDGE('',*,*,#436,.F.);
#562=ORIENTED_EDGE('',*,*,#437,.F.);
#563=ORIENTED_EDGE('',*,*,#438,.F.);
#564=ORIENTED_EDGE('',*,*,#439,.F.);
#565=ORIENTED_EDGE('',*,*,#440,.F.);
#566=ORIENTED_EDGE('',*,*,#433,.T.);
#567=ORIENTED_EDGE('',*,*,#441,.T.);
#568=ORIENTED_EDGE('',*,*,#426,.T.);
#569=ORIENTED_EDGE('',*,*,#423,.T.);
#570=ORIENTED_EDGE('',*,*,#432,.T.);
#571=ORIENTED_EDGE('',*,*,#442,.F.);
#572=ORIENTED_EDGE('',*,*,#427,.F.);
#573=ORIENTED_EDGE('',*,*,#441,.F.);
#574=ORIENTED_EDGE('',*,*,#437,.T.);
#575=ORIENTED_EDGE('',*,*,#443,.F.);
#576=ORIENTED_EDGE('',*,*,#444,.F.);
#577=ORIENTED_EDGE('',*,*,#445,.F.);
#578=ORIENTED_EDGE('',*,*,#446,.F.);
#579=ORIENTED_EDGE('',*,*,#439,.T.);
#580=ORIENTED_EDGE('',*,*,#447,.F.);
#581=ORIENTED_EDGE('',*,*,#448,.F.);
#582=ORIENTED_EDGE('',*,*,#449,.F.);
#583=ORIENTED_EDGE('',*,*,#406,.T.);
#584=ORIENTED_EDGE('',*,*,#450,.T.);
#585=ORIENTED_EDGE('',*,*,#451,.F.);
#586=ORIENTED_EDGE('',*,*,#452,.T.);
#587=ORIENTED_EDGE('',*,*,#453,.F.);
#588=ORIENTED_EDGE('',*,*,#454,.T.);
#589=ORIENTED_EDGE('',*,*,#443,.T.);
#590=ORIENTED_EDGE('',*,*,#440,.T.);
#591=ORIENTED_EDGE('',*,*,#446,.T.);
#592=ORIENTED_EDGE('',*,*,#455,.T.);
#593=ORIENTED_EDGE('',*,*,#456,.T.);
#594=ORIENTED_EDGE('',*,*,#457,.T.);
#595=ORIENTED_EDGE('',*,*,#458,.T.);
#596=ORIENTED_EDGE('',*,*,#459,.T.);
#597=ORIENTED_EDGE('',*,*,#421,.T.);
#598=ORIENTED_EDGE('',*,*,#460,.F.);
#599=ORIENTED_EDGE('',*,*,#461,.F.);
#600=ORIENTED_EDGE('',*,*,#462,.F.);
#601=ORIENTED_EDGE('',*,*,#435,.T.);
#602=ORIENTED_EDGE('',*,*,#463,.F.);
#603=ORIENTED_EDGE('',*,*,#392,.T.);
#604=ORIENTED_EDGE('',*,*,#398,.F.);
#605=ORIENTED_EDGE('',*,*,#464,.T.);
#606=ORIENTED_EDGE('',*,*,#413,.T.);
#607=ORIENTED_EDGE('',*,*,#465,.F.);
#608=ORIENTED_EDGE('',*,*,#466,.T.);
#609=ORIENTED_EDGE('',*,*,#467,.F.);
#610=ORIENTED_EDGE('',*,*,#428,.T.);
#611=ORIENTED_EDGE('',*,*,#442,.T.);
#612=ORIENTED_EDGE('',*,*,#436,.T.);
#613=ORIENTED_EDGE('',*,*,#462,.T.);
#614=ORIENTED_EDGE('',*,*,#468,.T.);
#615=ORIENTED_EDGE('',*,*,#469,.T.);
#616=ORIENTED_EDGE('',*,*,#470,.T.);
#617=ORIENTED_EDGE('',*,*,#471,.T.);
#618=ORIENTED_EDGE('',*,*,#472,.T.);
#619=ORIENTED_EDGE('',*,*,#447,.T.);
#620=ORIENTED_EDGE('',*,*,#438,.T.);
#621=ORIENTED_EDGE('',*,*,#445,.T.);
#622=ORIENTED_EDGE('',*,*,#473,.T.);
#623=ORIENTED_EDGE('',*,*,#474,.F.);
#624=ORIENTED_EDGE('',*,*,#475,.T.);
#625=ORIENTED_EDGE('',*,*,#476,.F.);
#626=ORIENTED_EDGE('',*,*,#477,.T.);
#627=ORIENTED_EDGE('',*,*,#478,.T.);
#628=ORIENTED_EDGE('',*,*,#414,.T.);
#629=ORIENTED_EDGE('',*,*,#479,.F.);
#630=ORIENTED_EDGE('',*,*,#480,.T.);
#631=ORIENTED_EDGE('',*,*,#449,.T.);
#632=ORIENTED_EDGE('',*,*,#480,.F.);
#633=ORIENTED_EDGE('',*,*,#463,.T.);
#634=ORIENTED_EDGE('',*,*,#481,.T.);
#635=ORIENTED_EDGE('',*,*,#482,.F.);
#636=ORIENTED_EDGE('',*,*,#481,.F.);
#637=ORIENTED_EDGE('',*,*,#444,.T.);
#638=ORIENTED_EDGE('',*,*,#454,.F.);
#639=ORIENTED_EDGE('',*,*,#483,.F.);
#640=ORIENTED_EDGE('',*,*,#473,.F.);
#641=ORIENTED_EDGE('',*,*,#465,.T.);
#642=ORIENTED_EDGE('',*,*,#412,.T.);
#643=ORIENTED_EDGE('',*,*,#484,.T.);
#644=ORIENTED_EDGE('',*,*,#485,.T.);
#645=ORIENTED_EDGE('',*,*,#467,.T.);
#646=ORIENTED_EDGE('',*,*,#486,.T.);
#647=ORIENTED_EDGE('',*,*,#487,.T.);
#648=ORIENTED_EDGE('',*,*,#429,.T.);
#649=ORIENTED_EDGE('',*,*,#474,.T.);
#650=ORIENTED_EDGE('',*,*,#483,.T.);
#651=ORIENTED_EDGE('',*,*,#453,.T.);
#652=ORIENTED_EDGE('',*,*,#488,.T.);
#653=ORIENTED_EDGE('',*,*,#488,.F.);
#654=ORIENTED_EDGE('',*,*,#452,.F.);
#655=ORIENTED_EDGE('',*,*,#489,.F.);
#656=ORIENTED_EDGE('',*,*,#475,.F.);
#657=ORIENTED_EDGE('',*,*,#479,.T.);
#658=ORIENTED_EDGE('',*,*,#476,.T.);
#659=ORIENTED_EDGE('',*,*,#489,.T.);
#660=ORIENTED_EDGE('',*,*,#451,.T.);
#661=ORIENTED_EDGE('',*,*,#490,.T.);
#662=ORIENTED_EDGE('',*,*,#490,.F.);
#663=ORIENTED_EDGE('',*,*,#450,.F.);
#664=ORIENTED_EDGE('',*,*,#491,.T.);
#665=ORIENTED_EDGE('',*,*,#477,.F.);
#666=ORIENTED_EDGE('',*,*,#492,.F.);
#667=ORIENTED_EDGE('',*,*,#493,.T.);
#668=ORIENTED_EDGE('',*,*,#494,.F.);
#669=ORIENTED_EDGE('',*,*,#493,.F.);
#670=ORIENTED_EDGE('',*,*,#416,.T.);
#671=ORIENTED_EDGE('',*,*,#492,.T.);
#672=ORIENTED_EDGE('',*,*,#425,.T.);
#673=ORIENTED_EDGE('',*,*,#431,.F.);
#674=ORIENTED_EDGE('',*,*,#495,.T.);
#675=ORIENTED_EDGE('',*,*,#410,.F.);
#676=ORIENTED_EDGE('',*,*,#494,.T.);
#677=ORIENTED_EDGE('',*,*,#484,.F.);
#678=ORIENTED_EDGE('',*,*,#411,.F.);
#679=ORIENTED_EDGE('',*,*,#495,.F.);
#680=ORIENTED_EDGE('',*,*,#430,.F.);
#681=ORIENTED_EDGE('',*,*,#487,.F.);
#682=ORIENTED_EDGE('',*,*,#496,.F.);
#683=ORIENTED_EDGE('',*,*,#422,.T.);
#684=ORIENTED_EDGE('',*,*,#497,.T.);
#685=ORIENTED_EDGE('',*,*,#460,.T.);
#686=ORIENTED_EDGE('',*,*,#434,.T.);
#687=ORIENTED_EDGE('',*,*,#471,.F.);
#688=ORIENTED_EDGE('',*,*,#498,.T.);
#689=ORIENTED_EDGE('',*,*,#456,.F.);
#690=ORIENTED_EDGE('',*,*,#499,.F.);
#691=ORIENTED_EDGE('',*,*,#470,.F.);
#692=ORIENTED_EDGE('',*,*,#500,.T.);
#693=ORIENTED_EDGE('',*,*,#457,.F.);
#694=ORIENTED_EDGE('',*,*,#498,.F.);
#695=ORIENTED_EDGE('',*,*,#469,.F.);
#696=ORIENTED_EDGE('',*,*,#501,.F.);
#697=ORIENTED_EDGE('',*,*,#458,.F.);
#698=ORIENTED_EDGE('',*,*,#500,.F.);
#699=ORIENTED_EDGE('',*,*,#501,.T.);
#700=ORIENTED_EDGE('',*,*,#468,.F.);
#701=ORIENTED_EDGE('',*,*,#461,.T.);
#702=ORIENTED_EDGE('',*,*,#497,.F.);
#703=ORIENTED_EDGE('',*,*,#459,.F.);
#704=ORIENTED_EDGE('',*,*,#499,.T.);
#705=ORIENTED_EDGE('',*,*,#455,.F.);
#706=ORIENTED_EDGE('',*,*,#448,.T.);
#707=ORIENTED_EDGE('',*,*,#472,.F.);
#708=ORIENTED_EDGE('',*,*,#407,.F.);
#709=ORIENTED_EDGE('',*,*,#464,.F.);
#710=ORIENTED_EDGE('',*,*,#397,.T.);
#711=ORIENTED_EDGE('',*,*,#403,.F.);
#712=ORIENTED_EDGE('',*,*,#415,.T.);
#713=ORIENTED_EDGE('',*,*,#478,.F.);
#714=ORIENTED_EDGE('',*,*,#491,.F.);
#715=ORIENTED_EDGE('',*,*,#405,.T.);
#716=ORIENTED_EDGE('',*,*,#400,.F.);
#717=ORIENTED_EDGE('',*,*,#485,.F.);
#718=ORIENTED_EDGE('',*,*,#496,.T.);
#719=ORIENTED_EDGE('',*,*,#486,.F.);
#720=ORIENTED_EDGE('',*,*,#466,.F.);
#721=ORIENTED_EDGE('',*,*,#482,.T.);
#722=PLANE('',#807);
#723=PLANE('',#808);
#724=PLANE('',#809);
#725=PLANE('',#812);
#726=PLANE('',#813);
#727=PLANE('',#814);
#728=PLANE('',#818);
#729=PLANE('',#822);
#730=PLANE('',#823);
#731=PLANE('',#824);
#732=PLANE('',#825);
#733=PLANE('',#826);
#734=PLANE('',#827);
#735=PLANE('',#828);
#736=PLANE('',#830);
#737=PLANE('',#833);
#738=PLANE('',#835);
#739=PLANE('',#846);
#740=PLANE('',#852);
#741=PLANE('',#854);
#742=PLANE('',#858);
#743=PLANE('',#859);
#744=PLANE('',#860);
#745=PLANE('',#861);
#746=PLANE('',#862);
#747=PLANE('',#863);
#748=PLANE('',#864);
#749=PLANE('',#865);
#750=PLANE('',#866);
#751=PLANE('',#869);
#752=ADVANCED_FACE('',(#55),#722,.F.);
#753=ADVANCED_FACE('',(#56),#723,.T.);
#754=ADVANCED_FACE('',(#57),#724,.T.);
#755=ADVANCED_FACE('',(#58),#725,.T.);
#756=ADVANCED_FACE('',(#59),#726,.T.);
#757=ADVANCED_FACE('',(#60),#727,.T.);
#758=ADVANCED_FACE('',(#61),#22,.T.);
#759=ADVANCED_FACE('',(#62,#15),#728,.T.);
#760=ADVANCED_FACE('',(#63),#23,.T.);
#761=ADVANCED_FACE('',(#64),#729,.T.);
#762=ADVANCED_FACE('',(#65),#730,.F.);
#763=ADVANCED_FACE('',(#66),#731,.F.);
#764=ADVANCED_FACE('',(#67),#732,.F.);
#765=ADVANCED_FACE('',(#68),#733,.F.);
#766=ADVANCED_FACE('',(#69),#734,.F.);
#767=ADVANCED_FACE('',(#70,#16),#735,.T.);
#768=ADVANCED_FACE('',(#71),#736,.F.);
#769=ADVANCED_FACE('',(#72,#17),#737,.T.);
#770=ADVANCED_FACE('',(#73),#738,.T.);
#771=ADVANCED_FACE('',(#74),#24,.F.);
#772=ADVANCED_FACE('',(#75),#25,.F.);
#773=ADVANCED_FACE('',(#76),#739,.T.);
#774=ADVANCED_FACE('',(#77),#26,.T.);
#775=ADVANCED_FACE('',(#78),#27,.T.);
#776=ADVANCED_FACE('',(#79),#28,.T.);
#777=ADVANCED_FACE('',(#80,#18),#740,.T.);
#778=ADVANCED_FACE('',(#81),#29,.T.);
#779=ADVANCED_FACE('',(#82),#741,.T.);
#780=ADVANCED_FACE('',(#83),#30,.F.);
#781=ADVANCED_FACE('',(#84,#19),#742,.T.);
#782=ADVANCED_FACE('',(#85,#20),#743,.F.);
#783=ADVANCED_FACE('',(#86),#744,.F.);
#784=ADVANCED_FACE('',(#87),#745,.T.);
#785=ADVANCED_FACE('',(#88),#746,.F.);
#786=ADVANCED_FACE('',(#89),#747,.F.);
#787=ADVANCED_FACE('',(#90),#748,.F.);
#788=ADVANCED_FACE('',(#91),#749,.T.);
#789=ADVANCED_FACE('',(#92),#750,.T.);
#790=ADVANCED_FACE('',(#93),#31,.T.);
#791=ADVANCED_FACE('',(#94),#32,.T.);
#792=ADVANCED_FACE('',(#95,#21),#751,.T.);
#793=CLOSED_SHELL('',(#752,#753,#754,#755,#756,#757,#758,#759,#760,#761,
#762,#763,#764,#765,#766,#767,#768,#769,#770,#771,#772,#773,#774,#775,#776,
#777,#778,#779,#780,#781,#782,#783,#784,#785,#786,#787,#788,#789,#790,#791,
#792));
#794=DERIVED_UNIT_ELEMENT(#796,1.);
#795=DERIVED_UNIT_ELEMENT(#1315,-3.);
#796=(
MASS_UNIT()
NAMED_UNIT(*)
SI_UNIT(.KILO.,.GRAM.)
);
#797=DERIVED_UNIT((#794,#795));
#798=MEASURE_REPRESENTATION_ITEM('density measure',
POSITIVE_RATIO_MEASURE(7850.),#797);
#799=PROPERTY_DEFINITION_REPRESENTATION(#804,#801);
#800=PROPERTY_DEFINITION_REPRESENTATION(#805,#802);
#801=REPRESENTATION('material name',(#803),#1312);
#802=REPRESENTATION('density',(#798),#1312);
#803=DESCRIPTIVE_REPRESENTATION_ITEM('\X2\92FC\X0\','\X2\92FC\X0\');
#804=PROPERTY_DEFINITION('material property','material name',#1322);
#805=PROPERTY_DEFINITION('material property','density of part',#1322);
#806=AXIS2_PLACEMENT_3D('',#1086,#870,#871);
#807=AXIS2_PLACEMENT_3D('',#1087,#872,#873);
#808=AXIS2_PLACEMENT_3D('',#1096,#878,#879);
#809=AXIS2_PLACEMENT_3D('',#1102,#883,#884);
#810=AXIS2_PLACEMENT_3D('',#1106,#886,#887);
#811=AXIS2_PLACEMENT_3D('',#1111,#890,#891);
#812=AXIS2_PLACEMENT_3D('',#1112,#892,#893);
#813=AXIS2_PLACEMENT_3D('',#1118,#897,#898);
#814=AXIS2_PLACEMENT_3D('',#1132,#906,#907);
#815=AXIS2_PLACEMENT_3D('',#1136,#910,#911);
#816=AXIS2_PLACEMENT_3D('',#1138,#912,#913);
#817=AXIS2_PLACEMENT_3D('',#1141,#915,#916);
#818=AXIS2_PLACEMENT_3D('',#1142,#917,#918);
#819=AXIS2_PLACEMENT_3D('',#1146,#920,#921);
#820=AXIS2_PLACEMENT_3D('',#1152,#925,#926);
#821=AXIS2_PLACEMENT_3D('',#1155,#928,#929);
#822=AXIS2_PLACEMENT_3D('',#1156,#930,#931);
#823=AXIS2_PLACEMENT_3D('',#1168,#938,#939);
#824=AXIS2_PLACEMENT_3D('',#1178,#945,#946);
#825=AXIS2_PLACEMENT_3D('',#1187,#951,#952);
#826=AXIS2_PLACEMENT_3D('',#1189,#954,#955);
#827=AXIS2_PLACEMENT_3D('',#1191,#957,#958);
#828=AXIS2_PLACEMENT_3D('',#1197,#962,#963);
#829=AXIS2_PLACEMENT_3D('',#1204,#967,#968);
#830=AXIS2_PLACEMENT_3D('',#1205,#969,#970);
#831=AXIS2_PLACEMENT_3D('',#1209,#972,#973);
#832=AXIS2_PLACEMENT_3D('',#1213,#975,#976);
#833=AXIS2_PLACEMENT_3D('',#1224,#983,#984);
#834=AXIS2_PLACEMENT_3D('',#1231,#988,#989);
#835=AXIS2_PLACEMENT_3D('',#1232,#990,#991);
#836=AXIS2_PLACEMENT_3D('',#1233,#992,#993);
#837=AXIS2_PLACEMENT_3D('',#1235,#994,#995);
#838=AXIS2_PLACEMENT_3D('',#1238,#997,#998);
#839=AXIS2_PLACEMENT_3D('',#1251,#1005,#1006);
#840=AXIS2_PLACEMENT_3D('',#1255,#1008,#1009);
#841=AXIS2_PLACEMENT_3D('',#1258,#1011,#1012);
#842=AXIS2_PLACEMENT_3D('',#1259,#1013,#1014);
#843=AXIS2_PLACEMENT_3D('',#1261,#1015,#1016);
#844=AXIS2_PLACEMENT_3D('',#1263,#1018,#1019);
#845=AXIS2_PLACEMENT_3D('',#1266,#1021,#1022);
#846=AXIS2_PLACEMENT_3D('',#1267,#1023,#1024);
#847=AXIS2_PLACEMENT_3D('',#1269,#1026,#1027);
#848=AXIS2_PLACEMENT_3D('',#1271,#1028,#1029);
#849=AXIS2_PLACEMENT_3D('',#1273,#1031,#1032);
#850=AXIS2_PLACEMENT_3D('',#1276,#1034,#1035);
#851=AXIS2_PLACEMENT_3D('',#1277,#1036,#1037);
#852=AXIS2_PLACEMENT_3D('',#1279,#1039,#1040);
#853=AXIS2_PLACEMENT_3D('',#1281,#1042,#1043);
#854=AXIS2_PLACEMENT_3D('',#1283,#1045,#1046);
#855=AXIS2_PLACEMENT_3D('',#1285,#1048,#1049);
#856=AXIS2_PLACEMENT_3D('',#1287,#1050,#1051);
#857=AXIS2_PLACEMENT_3D('',#1290,#1053,#1054);
#858=AXIS2_PLACEMENT_3D('',#1291,#1055,#1056);
#859=AXIS2_PLACEMENT_3D('',#1292,#1057,#1058);
#860=AXIS2_PLACEMENT_3D('',#1294,#1060,#1061);
#861=AXIS2_PLACEMENT_3D('',#1296,#1063,#1064);
#862=AXIS2_PLACEMENT_3D('',#1298,#1066,#1067);
#863=AXIS2_PLACEMENT_3D('',#1301,#1070,#1071);
#864=AXIS2_PLACEMENT_3D('',#1303,#1073,#1074);
#865=AXIS2_PLACEMENT_3D('',#1305,#1076,#1077);
#866=AXIS2_PLACEMENT_3D('',#1306,#1078,#1079);
#867=AXIS2_PLACEMENT_3D('',#1307,#1080,#1081);
#868=AXIS2_PLACEMENT_3D('',#1308,#1082,#1083);
#869=AXIS2_PLACEMENT_3D('',#1309,#1084,#1085);
#870=DIRECTION('axis',(0.,0.,1.));
#871=DIRECTION('refdir',(1.,0.,0.));
#872=DIRECTION('center_axis',(0.,1.,0.));
#873=DIRECTION('ref_axis',(0.,0.,1.));
#874=DIRECTION('',(1.,0.,0.));
#875=DIRECTION('',(0.,0.,1.));
#876=DIRECTION('',(-1.,0.,0.));
#877=DIRECTION('',(0.,0.,-1.));
#878=DIRECTION('center_axis',(1.,0.,0.));
#879=DIRECTION('ref_axis',(0.,0.,1.));
#880=DIRECTION('',(0.,-1.,0.));
#881=DIRECTION('',(0.,0.,-1.));
#882=DIRECTION('',(0.,-1.,0.));
#883=DIRECTION('center_axis',(0.,0.,-1.));
#884=DIRECTION('ref_axis',(1.,0.,0.));
#885=DIRECTION('',(0.,1.,0.));
#886=DIRECTION('center_axis',(0.,0.,-1.));
#887=DIRECTION('ref_axis',(-1.,7.10542735760101E-16,0.));
#888=DIRECTION('',(1.,0.,0.));
#889=DIRECTION('',(-1.,0.,0.));
#890=DIRECTION('center_axis',(0.,0.,-1.));
#891=DIRECTION('ref_axis',(0.474973683481517,0.88,0.));
#892=DIRECTION('center_axis',(0.,1.,0.));
#893=DIRECTION('ref_axis',(1.,0.,0.));
#894=DIRECTION('',(0.,0.,-1.));
#895=DIRECTION('',(0.,0.,-1.));
#896=DIRECTION('',(-1.,0.,0.));
#897=DIRECTION('center_axis',(0.,-1.,0.));
#898=DIRECTION('ref_axis',(1.,0.,0.));
#899=DIRECTION('',(0.,0.,-1.));
#900=DIRECTION('',(0.,0.,-1.));
#901=DIRECTION('',(1.,0.,0.));
#902=DIRECTION('',(0.,0.,1.));
#903=DIRECTION('',(1.,0.,0.));
#904=DIRECTION('',(0.,0.,-1.));
#905=DIRECTION('',(1.,0.,0.));
#906=DIRECTION('center_axis',(-1.,0.,0.));
#907=DIRECTION('ref_axis',(0.,0.,-1.));
#908=DIRECTION('',(0.,-1.,0.));
#909=DIRECTION('',(0.,0.,1.));
#910=DIRECTION('center_axis',(1.,0.,0.));
#911=DIRECTION('ref_axis',(0.,-1.,0.));
#912=DIRECTION('center_axis',(-1.,0.,0.));
#913=DIRECTION('ref_axis',(0.,-1.,0.));
#914=DIRECTION('',(1.,0.,0.));
#915=DIRECTION('center_axis',(-1.,0.,0.));
#916=DIRECTION('ref_axis',(0.,-1.,0.));
#917=DIRECTION('center_axis',(-1.,0.,0.));
#918=DIRECTION('ref_axis',(0.,-1.,0.));
#919=DIRECTION('',(0.,0.,1.));
#920=DIRECTION('center_axis',(1.,0.,0.));
#921=DIRECTION('ref_axis',(0.,-1.,0.));
#922=DIRECTION('',(0.,-1.,0.));
#923=DIRECTION('',(0.,-1.,0.));
#924=DIRECTION('',(0.,-1.,0.));
#925=DIRECTION('center_axis',(1.,0.,0.));
#926=DIRECTION('ref_axis',(0.,-1.,0.));
#927=DIRECTION('',(-1.,0.,0.));
#928=DIRECTION('center_axis',(1.,0.,0.));
#929=DIRECTION('ref_axis',(0.,-1.,0.));
#930=DIRECTION('center_axis',(0.,1.,0.));
#931=DIRECTION('ref_axis',(-1.,0.,0.));
#932=DIRECTION('',(1.,0.,0.));
#933=DIRECTION('',(0.,0.,1.));
#934=DIRECTION('',(-1.,0.,0.));
#935=DIRECTION('',(0.,0.,1.));
#936=DIRECTION('',(-1.,0.,0.));
#937=DIRECTION('',(0.,0.,-1.));
#938=DIRECTION('center_axis',(0.,1.,0.));
#939=DIRECTION('ref_axis',(0.,0.,1.));
#940=DIRECTION('',(0.,0.,1.));
#941=DIRECTION('',(-1.,0.,0.));
#942=DIRECTION('',(-1.,0.,0.));
#943=DIRECTION('',(0.,0.,-1.));
#944=DIRECTION('',(1.,0.,0.));
#945=DIRECTION('center_axis',(0.,1.,0.));
#946=DIRECTION('ref_axis',(0.,0.,1.));
#947=DIRECTION('',(0.,0.,-1.));
#948=DIRECTION('',(1.,0.,0.));
#949=DIRECTION('',(0.,0.,1.));
#950=DIRECTION('',(-1.,0.,0.));
#951=DIRECTION('center_axis',(0.,0.,1.));
#952=DIRECTION('ref_axis',(1.,0.,0.));
#953=DIRECTION('',(-1.77635683940025E-15,1.,0.));
#954=DIRECTION('center_axis',(1.,1.77635683940025E-15,0.));
#955=DIRECTION('ref_axis',(1.77635683940025E-15,-1.,0.));
#956=DIRECTION('',(1.77635683940025E-15,-1.,0.));
#957=DIRECTION('center_axis',(-1.,1.77635683940025E-15,0.));
#958=DIRECTION('ref_axis',(1.77635683940025E-15,1.,0.));
#959=DIRECTION('',(-1.77635683940025E-15,-1.,0.));
#960=DIRECTION('',(0.,0.,-1.));
#961=DIRECTION('',(1.77635683940025E-15,1.,0.));
#962=DIRECTION('center_axis',(1.,0.,0.));
#963=DIRECTION('ref_axis',(0.,1.,0.));
#964=DIRECTION('',(0.,-1.,0.));
#965=DIRECTION('',(0.,1.,0.));
#966=DIRECTION('',(0.,0.,1.));
#967=DIRECTION('center_axis',(1.,0.,0.));
#968=DIRECTION('ref_axis',(0.,-1.,0.));
#969=DIRECTION('center_axis',(0.,0.,1.));
#970=DIRECTION('ref_axis',(1.,0.,0.));
#971=DIRECTION('',(-1.,0.,0.));
#972=DIRECTION('center_axis',(0.,0.,1.));
#973=DIRECTION('ref_axis',(-0.707106781186547,-0.707106781186548,0.));
#974=DIRECTION('',(0.,1.,0.));
#975=DIRECTION('center_axis',(0.,0.,1.));
#976=DIRECTION('ref_axis',(-0.707106781186549,0.707106781186546,0.));
#977=DIRECTION('',(1.,0.,0.));
#978=DIRECTION('',(1.,0.,0.));
#979=DIRECTION('',(0.,-1.,0.));
#980=DIRECTION('',(1.,0.,0.));
#981=DIRECTION('',(0.,1.,0.));
#982=DIRECTION('',(1.,0.,0.));
#983=DIRECTION('center_axis',(-1.,0.,0.));
#984=DIRECTION('ref_axis',(0.,-1.,0.));
#985=DIRECTION('',(0.,1.,0.));
#986=DIRECTION('',(0.,0.,-1.));
#987=DIRECTION('',(0.,-1.,0.));
#988=DIRECTION('center_axis',(-1.,0.,0.));
#989=DIRECTION('ref_axis',(0.,-1.,0.));
#990=DIRECTION('center_axis',(0.,0.,1.));
#991=DIRECTION('ref_axis',(1.,0.,0.));
#992=DIRECTION('center_axis',(0.,0.,1.));
#993=DIRECTION('ref_axis',(1.,0.,0.));
#994=DIRECTION('center_axis',(0.,0.,-1.));
#995=DIRECTION('ref_axis',(0.707106781186549,-0.707106781186546,0.));
#996=DIRECTION('',(0.,1.,0.));
#997=DIRECTION('center_axis',(0.,0.,-1.));
#998=DIRECTION('ref_axis',(0.707106781186544,0.707106781186551,0.));
#999=DIRECTION('',(-1.,0.,0.));
#1000=DIRECTION('',(0.,-1.,0.));
#1001=DIRECTION('',(-1.,0.,0.));
#1002=DIRECTION('',(0.,1.,0.));
#1003=DIRECTION('',(-1.,0.,0.));
#1004=DIRECTION('',(-1.,0.,0.));
#1005=DIRECTION('center_axis',(0.,0.,-1.));
#1006=DIRECTION('ref_axis',(-0.707106781186549,0.707106781186546,0.));
#1007=DIRECTION('',(0.,-1.,0.));
#1008=DIRECTION('center_axis',(0.,0.,-1.));
#1009=DIRECTION('ref_axis',(-0.707106781186547,-0.707106781186548,0.));
#1010=DIRECTION('',(1.,0.,0.));
#1011=DIRECTION('center_axis',(0.,0.,1.));
#1012=DIRECTION('ref_axis',(1.,0.,0.));
#1013=DIRECTION('center_axis',(1.,0.,0.));
#1014=DIRECTION('ref_axis',(0.,-1.,0.));
#1015=DIRECTION('center_axis',(1.,0.,0.));
#1016=DIRECTION('ref_axis',(0.,-1.,0.));
#1017=DIRECTION('',(1.,0.,0.));
#1018=DIRECTION('center_axis',(1.,0.,0.));
#1019=DIRECTION('ref_axis',(0.,-1.,0.));
#1020=DIRECTION('',(1.,0.,0.));
#1021=DIRECTION('center_axis',(-1.,0.,0.));
#1022=DIRECTION('ref_axis',(0.,-1.,0.));
#1023=DIRECTION('center_axis',(0.,1.,0.));
#1024=DIRECTION('ref_axis',(-1.,0.,0.));
#1025=DIRECTION('',(0.,0.,-1.));
#1026=DIRECTION('center_axis',(0.,0.,1.));
#1027=DIRECTION('ref_axis',(0.707106781186549,-0.707106781186546,0.));
#1028=DIRECTION('center_axis',(0.,0.,1.));
#1029=DIRECTION('ref_axis',(0.707106781186549,-0.707106781186546,0.));
#1030=DIRECTION('',(0.,0.,1.));
#1031=DIRECTION('center_axis',(0.,0.,1.));
#1032=DIRECTION('ref_axis',(0.707106781186544,0.707106781186551,0.));
#1033=DIRECTION('',(0.,0.,-1.));
#1034=DIRECTION('center_axis',(0.,0.,1.));
#1035=DIRECTION('ref_axis',(0.707106781186544,0.707106781186551,0.));
#1036=DIRECTION('center_axis',(0.,0.,1.));
#1037=DIRECTION('ref_axis',(-0.707106781186549,0.707106781186546,0.));
#1038=DIRECTION('',(0.,0.,1.));
#1039=DIRECTION('center_axis',(-1.,0.,0.));
#1040=DIRECTION('ref_axis',(0.,-1.,0.));
#1041=DIRECTION('',(0.,0.,-1.));
#1042=DIRECTION('center_axis',(0.,0.,1.));
#1043=DIRECTION('ref_axis',(-0.707106781186547,-0.707106781186548,0.));
#1044=DIRECTION('',(0.,0.,1.));
#1045=DIRECTION('center_axis',(0.,-1.,0.));
#1046=DIRECTION('ref_axis',(1.,0.,0.));
#1047=DIRECTION('',(0.,0.,1.));
#1048=DIRECTION('center_axis',(1.,0.,0.));
#1049=DIRECTION('ref_axis',(0.,-1.,0.));
#1050=DIRECTION('center_axis',(1.,0.,0.));
#1051=DIRECTION('ref_axis',(0.,-1.,0.));
#1052=DIRECTION('',(1.,0.,0.));
#1053=DIRECTION('center_axis',(-1.,0.,0.));
#1054=DIRECTION('ref_axis',(0.,-1.,0.));
#1055=DIRECTION('center_axis',(-1.,0.,0.));
#1056=DIRECTION('ref_axis',(0.,1.,0.));
#1057=DIRECTION('center_axis',(-1.,0.,0.));
#1058=DIRECTION('ref_axis',(0.,-1.,0.));
#1059=DIRECTION('',(0.,-1.,0.));
#1060=DIRECTION('center_axis',(0.,0.,1.));
#1061=DIRECTION('ref_axis',(1.,0.,0.));
#1062=DIRECTION('',(0.,1.,0.));
#1063=DIRECTION('center_axis',(0.,0.,1.));
#1064=DIRECTION('ref_axis',(1.,0.,0.));
#1065=DIRECTION('',(1.,0.,0.));
#1066=DIRECTION('center_axis',(-1.,0.,0.));
#1067=DIRECTION('ref_axis',(0.,1.,0.));
#1068=DIRECTION('',(0.,0.,-1.));
#1069=DIRECTION('',(0.,0.,-1.));
#1070=DIRECTION('center_axis',(0.,-1.,0.));
#1071=DIRECTION('ref_axis',(-1.,0.,0.));
#1072=DIRECTION('',(0.,0.,-1.));
#1073=DIRECTION('center_axis',(1.,0.,0.));
#1074=DIRECTION('ref_axis',(0.,-1.,0.));
#1075=DIRECTION('',(0.,0.,1.));
#1076=DIRECTION('center_axis',(0.,1.,0.));
#1077=DIRECTION('ref_axis',(-1.,0.,0.));
#1078=DIRECTION('center_axis',(0.,1.,0.));
#1079=DIRECTION('ref_axis',(-1.,0.,0.));
#1080=DIRECTION('center_axis',(0.,0.,1.));
#1081=DIRECTION('ref_axis',(1.,0.,0.));
#1082=DIRECTION('center_axis',(0.,0.,1.));
#1083=DIRECTION('ref_axis',(1.,0.,0.));
#1084=DIRECTION('center_axis',(1.,0.,0.));
#1085=DIRECTION('ref_axis',(0.,1.,0.));
#1086=CARTESIAN_POINT('',(0.,0.,0.));
#1087=CARTESIAN_POINT('Origin',(-2.475,-15.5,0.));
#1088=CARTESIAN_POINT('',(-2.475,-15.5,22.));
#1089=CARTESIAN_POINT('',(22.525,-15.5,22.));
#1090=CARTESIAN_POINT('',(3.775,-15.5,22.));
#1091=CARTESIAN_POINT('',(-2.475,-15.5,-2.));
#1092=CARTESIAN_POINT('',(-2.475,-15.5,11.));
#1093=CARTESIAN_POINT('',(22.525,-15.5,-2.));
#1094=CARTESIAN_POINT('',(3.775,-15.5,-2.));
#1095=CARTESIAN_POINT('',(22.525,-15.5,0.));
#1096=CARTESIAN_POINT('Origin',(22.525,-12.5,0.));
#1097=CARTESIAN_POINT('',(22.525,-12.5,-2.));
#1098=CARTESIAN_POINT('',(22.525,-12.5,-2.));
#1099=CARTESIAN_POINT('',(22.525,-12.5,22.));
#1100=CARTESIAN_POINT('',(22.525,-12.5,0.));
#1101=CARTESIAN_POINT('',(22.525,-12.5,22.));
#1102=CARTESIAN_POINT('Origin',(10.025,-9.5,-2.));
#1103=CARTESIAN_POINT('',(-2.475,-12.5,-2.));
#1104=CARTESIAN_POINT('',(-2.475,-17.5,-2.));
#1105=CARTESIAN_POINT('',(4.08782895648104,-1.5,-2.));
#1106=CARTESIAN_POINT('Origin',(10.025,-12.5,-2.));
#1107=CARTESIAN_POINT('',(15.275,-1.5,-2.));
#1108=CARTESIAN_POINT('',(4.08782895648104,-1.5,-2.));
#1109=CARTESIAN_POINT('',(15.962171043519,-1.5,-2.));
#1110=CARTESIAN_POINT('',(4.2625,-1.5,-2.));
#1111=CARTESIAN_POINT('Origin',(10.025,-12.5,-2.));
#1112=CARTESIAN_POINT('Origin',(4.08782895648104,-1.5,0.));
#1113=CARTESIAN_POINT('',(15.275,-1.5,0.));
#1114=CARTESIAN_POINT('',(15.275,-1.5,-5.));
#1115=CARTESIAN_POINT('',(4.08782895648104,-1.5,0.));
#1116=CARTESIAN_POINT('',(4.08782895648104,-1.5,0.));
#1117=CARTESIAN_POINT('',(7.05641447824052,-1.5,0.));
#1118=CARTESIAN_POINT('Origin',(-1.5,-1.5,0.));
#1119=CARTESIAN_POINT('',(15.962171043519,-1.5,22.));
#1120=CARTESIAN_POINT('',(15.962171043519,-1.5,0.));
#1121=CARTESIAN_POINT('',(15.275,-1.49999999999999,-16.3454695558127));
#1122=CARTESIAN_POINT('',(15.275,-1.5,-5.));
#1123=CARTESIAN_POINT('',(17.275,-1.5,-16.3454695558127));
#1124=CARTESIAN_POINT('',(14.275,-1.5,-16.3454695558127));
#1125=CARTESIAN_POINT('',(17.275,-1.5,-2.));
#1126=CARTESIAN_POINT('',(17.275,-1.5,-10.));
#1127=CARTESIAN_POINT('',(20.55,-1.5,-2.));
#1128=CARTESIAN_POINT('',(8.95625,-1.5,-2.));
#1129=CARTESIAN_POINT('',(20.55,-1.5,22.));
#1130=CARTESIAN_POINT('',(20.55,-1.5,0.));
#1131=CARTESIAN_POINT('',(21.55,-1.5,22.));
#1132=CARTESIAN_POINT('Origin',(-2.475,-12.5,22.));
#1133=CARTESIAN_POINT('',(-2.475,-12.5,22.));
#1134=CARTESIAN_POINT('',(-2.475,-12.5,22.));
#1135=CARTESIAN_POINT('',(-2.475,-12.5,0.));
#1136=CARTESIAN_POINT('Origin',(14.275,10.025,-10.));
#1137=CARTESIAN_POINT('',(14.275,13.125,-10.));
#1138=CARTESIAN_POINT('Origin',(14.275,10.025,-10.));
#1139=CARTESIAN_POINT('',(15.275,13.125,-10.));
#1140=CARTESIAN_POINT('',(14.275,13.125,-10.));
#1141=CARTESIAN_POINT('Origin',(15.275,10.025,-10.));
#1142=CARTESIAN_POINT('Origin',(15.275,10.025,-10.));
#1143=CARTESIAN_POINT('',(15.275,21.55,-16.3454695558127));
#1144=CARTESIAN_POINT('',(15.275,21.55,0.));
#1145=CARTESIAN_POINT('',(15.275,21.55,-5.));
#1146=CARTESIAN_POINT('Origin',(15.275,10.025,0.));
#1147=CARTESIAN_POINT('',(15.275,0.,0.));
#1148=CARTESIAN_POINT('',(15.275,-1.5,0.));
#1149=CARTESIAN_POINT('',(15.275,20.15,0.));
#1150=CARTESIAN_POINT('',(15.275,10.025,0.));
#1151=CARTESIAN_POINT('',(15.275,-1.5,0.));
#1152=CARTESIAN_POINT('Origin',(14.275,10.025,0.));
#1153=CARTESIAN_POINT('',(17.275,21.55,-16.3454695558127));
#1154=CARTESIAN_POINT('',(14.275,21.55,-16.3454695558127));
#1155=CARTESIAN_POINT('Origin',(17.275,10.025,0.));
#1156=CARTESIAN_POINT('Origin',(21.55,21.55,0.));
#1157=CARTESIAN_POINT('',(13.775,21.55,0.));
#1158=CARTESIAN_POINT('',(-1.5,21.55,0.));
#1159=CARTESIAN_POINT('',(13.775,21.55,22.));
#1160=CARTESIAN_POINT('',(13.775,21.55,11.));
#1161=CARTESIAN_POINT('',(20.55,21.55,22.));
#1162=CARTESIAN_POINT('',(-1.5,21.55,22.));
#1163=CARTESIAN_POINT('',(20.55,21.55,-2.));
#1164=CARTESIAN_POINT('',(20.55,21.55,0.));
#1165=CARTESIAN_POINT('',(17.275,21.55,-2.));
#1166=CARTESIAN_POINT('',(20.48125,21.55,-2.));
#1167=CARTESIAN_POINT('',(17.275,21.55,-10.));
#1168=CARTESIAN_POINT('Origin',(0.,20.15,0.));
#1169=CARTESIAN_POINT('',(13.775,20.15,0.));
#1170=CARTESIAN_POINT('',(13.775,20.15,22.));
#1171=CARTESIAN_POINT('',(13.775,20.15,11.));
#1172=CARTESIAN_POINT('',(5.0125,20.15,0.));
#1173=CARTESIAN_POINT('',(20.1,20.15,0.));
#1174=CARTESIAN_POINT('',(20.05,20.15,0.));
#1175=CARTESIAN_POINT('',(20.1,20.15,22.));
#1176=CARTESIAN_POINT('',(20.1,20.15,0.));
#1177=CARTESIAN_POINT('',(5.0125,20.15,22.));
#1178=CARTESIAN_POINT('Origin',(0.,20.15,0.));
#1179=CARTESIAN_POINT('',(6.27499999999999,20.15,22.));
#1180=CARTESIAN_POINT('',(6.27499999999999,20.15,0.));
#1181=CARTESIAN_POINT('',(6.27499999999999,20.15,11.));
#1182=CARTESIAN_POINT('',(-0.05,20.15,22.));
#1183=CARTESIAN_POINT('',(5.0125,20.15,22.));
#1184=CARTESIAN_POINT('',(-0.05,20.15,0.));
#1185=CARTESIAN_POINT('',(-0.05,20.15,0.));
#1186=CARTESIAN_POINT('',(5.0125,20.15,0.));
#1187=CARTESIAN_POINT('Origin',(10.025,10.025,0.));
#1188=CARTESIAN_POINT('',(13.775,15.7875,0.));
#1189=CARTESIAN_POINT('Origin',(13.775,21.55,22.));
#1190=CARTESIAN_POINT('',(13.775,15.7875,22.));
#1191=CARTESIAN_POINT('Origin',(6.27499999999999,20.05,22.));
#1192=CARTESIAN_POINT('',(6.27499999999999,21.55,0.));
#1193=CARTESIAN_POINT('',(6.27499999999998,15.0375,0.));
#1194=CARTESIAN_POINT('',(6.27499999999999,21.55,22.));
#1195=CARTESIAN_POINT('',(6.27499999999999,21.55,11.));
#1196=CARTESIAN_POINT('',(6.27499999999998,15.0375,22.));
#1197=CARTESIAN_POINT('Origin',(-0.05,0.,0.));
#1198=CARTESIAN_POINT('',(-0.05,0.,0.));
#1199=CARTESIAN_POINT('',(-0.0499999999999995,15.0375,0.));
#1200=CARTESIAN_POINT('',(-0.05,0.,22.));
#1201=CARTESIAN_POINT('',(-0.0499999999999995,15.0375,22.));
#1202=CARTESIAN_POINT('',(-0.05,0.,0.));
#1203=CARTESIAN_POINT('',(-0.05,12.575,11.));
#1204=CARTESIAN_POINT('Origin',(-0.05,10.025,11.));
#1205=CARTESIAN_POINT('Origin',(10.025,10.025,0.));
#1206=CARTESIAN_POINT('',(-0.499999999999998,-1.5,0.));
#1207=CARTESIAN_POINT('',(21.55,-1.5,0.));
#1208=CARTESIAN_POINT('',(-1.5,-0.499999999999998,0.));
#1209=CARTESIAN_POINT('Origin',(-0.5,-0.499999999999998,0.));
#1210=CARTESIAN_POINT('',(-1.5,20.55,0.));
#1211=CARTESIAN_POINT('',(-1.5,-1.5,0.));
#1212=CARTESIAN_POINT('',(-0.5,21.55,0.));
#1213=CARTESIAN_POINT('Origin',(-0.5,20.55,0.));
#1214=CARTESIAN_POINT('',(-1.5,21.55,0.));
#1215=CARTESIAN_POINT('',(5.02500000000046,0.,0.));
#1216=CARTESIAN_POINT('',(5.0125,0.,0.));
#1217=CARTESIAN_POINT('',(5.02500000000046,-0.749999999999992,0.));
#1218=CARTESIAN_POINT('',(5.02500000000046,4.6375,0.));
#1219=CARTESIAN_POINT('',(15.0250000000005,-0.749999999999992,0.));
#1220=CARTESIAN_POINT('',(12.5250000000002,-0.749999999999991,0.));
#1221=CARTESIAN_POINT('',(15.0250000000005,0.,0.));
#1222=CARTESIAN_POINT('',(15.0250000000005,5.0125,0.));
#1223=CARTESIAN_POINT('',(20.05,0.,0.));
#1224=CARTESIAN_POINT('Origin',(20.1,20.05,0.));
#1225=CARTESIAN_POINT('',(20.1,0.,0.));
#1226=CARTESIAN_POINT('',(20.1,20.05,0.));
#1227=CARTESIAN_POINT('',(20.1,0.,22.));
#1228=CARTESIAN_POINT('',(20.1,0.,0.));
#1229=CARTESIAN_POINT('',(20.1,15.0375,22.));
#1230=CARTESIAN_POINT('',(20.1,12.575,11.));
#1231=CARTESIAN_POINT('Origin',(20.1,10.025,11.));
#1232=CARTESIAN_POINT('Origin',(10.025,10.025,22.));
#1233=CARTESIAN_POINT('Origin',(10.025,-12.5,22.));
#1234=CARTESIAN_POINT('',(21.55,-0.499999999999998,22.));
#1235=CARTESIAN_POINT('Origin',(20.55,-0.499999999999999,22.));
#1236=CARTESIAN_POINT('',(21.55,20.55,22.));
#1237=CARTESIAN_POINT('',(21.55,21.55,22.));
#1238=CARTESIAN_POINT('Origin',(20.55,20.55,22.));
#1239=CARTESIAN_POINT('',(15.0250000000005,0.,22.));
#1240=CARTESIAN_POINT('',(15.0375,0.,22.));
#1241=CARTESIAN_POINT('',(15.0250000000005,-0.749999999999992,22.));
#1242=CARTESIAN_POINT('',(15.0250000000005,5.0125,22.));
#1243=CARTESIAN_POINT('',(5.02500000000045,-0.749999999999992,22.));
#1244=CARTESIAN_POINT('',(12.5250000000002,-0.749999999999991,22.));
#1245=CARTESIAN_POINT('',(5.02500000000045,0.,22.));
#1246=CARTESIAN_POINT('',(5.02500000000046,4.6375,22.));
#1247=CARTESIAN_POINT('',(0.,0.,22.));
#1248=CARTESIAN_POINT('',(-0.5,21.55,22.));
#1249=CARTESIAN_POINT('',(-1.5,21.55,22.));
#1250=CARTESIAN_POINT('',(-1.5,20.55,22.));
#1251=CARTESIAN_POINT('Origin',(-0.5,20.55,22.));
#1252=CARTESIAN_POINT('',(-1.5,-0.499999999999998,22.));
#1253=CARTESIAN_POINT('',(-1.5,-1.5,22.));
#1254=CARTESIAN_POINT('',(-0.499999999999998,-1.5,22.));
#1255=CARTESIAN_POINT('Origin',(-0.5,-0.499999999999998,22.));
#1256=CARTESIAN_POINT('',(4.08782895648104,-1.5,22.));
#1257=CARTESIAN_POINT('',(21.55,-1.5,22.));
#1258=CARTESIAN_POINT('Origin',(10.025,-12.5,22.));
#1259=CARTESIAN_POINT('Origin',(-1.5,10.025,11.));
#1260=CARTESIAN_POINT('',(-1.5,12.575,11.));
#1261=CARTESIAN_POINT('Origin',(-1.5,10.025,11.));
#1262=CARTESIAN_POINT('',(-1.5,12.575,11.));
#1263=CARTESIAN_POINT('Origin',(-1.5,10.025,11.));
#1264=CARTESIAN_POINT('',(21.55,12.575,11.));
#1265=CARTESIAN_POINT('',(-1.5,12.575,11.));
#1266=CARTESIAN_POINT('Origin',(21.55,10.025,11.));
#1267=CARTESIAN_POINT('Origin',(21.55,21.55,0.));
#1268=CARTESIAN_POINT('',(-0.5,21.55,0.));
#1269=CARTESIAN_POINT('Origin',(20.55,-0.499999999999999,0.));
#1270=CARTESIAN_POINT('',(21.55,-0.499999999999999,-2.));
#1271=CARTESIAN_POINT('Origin',(20.55,-0.499999999999999,-2.));
#1272=CARTESIAN_POINT('',(21.55,-0.499999999999999,0.));
#1273=CARTESIAN_POINT('Origin',(20.55,20.55,0.));
#1274=CARTESIAN_POINT('',(21.55,20.55,-2.));
#1275=CARTESIAN_POINT('',(21.55,20.55,0.));
#1276=CARTESIAN_POINT('Origin',(20.55,20.55,-2.));
#1277=CARTESIAN_POINT('Origin',(-0.5,20.55,0.));
#1278=CARTESIAN_POINT('',(-1.5,20.55,0.));
#1279=CARTESIAN_POINT('Origin',(-1.5,21.55,0.));
#1280=CARTESIAN_POINT('',(-1.5,-0.499999999999998,0.));
#1281=CARTESIAN_POINT('Origin',(-0.5,-0.499999999999998,0.));
#1282=CARTESIAN_POINT('',(-0.5,-1.5,0.));
#1283=CARTESIAN_POINT('Origin',(-1.5,-1.5,0.));
#1284=CARTESIAN_POINT('',(4.08782895648104,-1.5,0.));
#1285=CARTESIAN_POINT('Origin',(14.275,10.025,-10.));
#1286=CARTESIAN_POINT('',(14.275,12.575,-10.));
#1287=CARTESIAN_POINT('Origin',(14.275,10.025,-10.));
#1288=CARTESIAN_POINT('',(17.275,12.575,-10.));
#1289=CARTESIAN_POINT('',(14.275,12.575,-10.));
#1290=CARTESIAN_POINT('Origin',(17.275,10.025,-10.));
#1291=CARTESIAN_POINT('Origin',(14.275,-1.5,0.));
#1292=CARTESIAN_POINT('Origin',(17.275,21.55,-20.));
#1293=CARTESIAN_POINT('',(17.275,21.55,-2.));
#1294=CARTESIAN_POINT('Origin',(19.4125,10.025,-2.));
#1295=CARTESIAN_POINT('',(21.55,4.2625,-2.));
#1296=CARTESIAN_POINT('Origin',(17.9125,10.025,0.));
#1297=CARTESIAN_POINT('',(20.05,0.,0.));
#1298=CARTESIAN_POINT('Origin',(5.02500000000045,-0.749999999999992,22.));
#1299=CARTESIAN_POINT('',(5.02500000000045,-0.749999999999992,22.));
#1300=CARTESIAN_POINT('',(5.02500000000045,0.,11.));
#1301=CARTESIAN_POINT('Origin',(15.0250000000005,-0.749999999999992,22.));
#1302=CARTESIAN_POINT('',(15.0250000000005,-0.749999999999992,22.));
#1303=CARTESIAN_POINT('Origin',(15.0250000000005,0.,22.));
#1304=CARTESIAN_POINT('',(15.0250000000005,0.,11.));
#1305=CARTESIAN_POINT('Origin',(20.05,0.,0.));
#1306=CARTESIAN_POINT('Origin',(20.05,0.,0.));
#1307=CARTESIAN_POINT('Origin',(10.025,-12.5,0.));
#1308=CARTESIAN_POINT('Origin',(10.025,-12.5,0.));
#1309=CARTESIAN_POINT('Origin',(21.55,-1.5,0.));
#1310=UNCERTAINTY_MEASURE_WITH_UNIT(LENGTH_MEASURE(0.01),#1314,
'DISTANCE_ACCURACY_VALUE',
'Maximum model space distance between geometric entities at asserted c
onnectivities');
#1311=UNCERTAINTY_MEASURE_WITH_UNIT(LENGTH_MEASURE(0.01),#1314,
'DISTANCE_ACCURACY_VALUE',
'Maximum model space distance between geometric entities at asserted c
onnectivities');
#1312=(
GEOMETRIC_REPRESENTATION_CONTEXT(3)
GLOBAL_UNCERTAINTY_ASSIGNED_CONTEXT((#1310))
GLOBAL_UNIT_ASSIGNED_CONTEXT((#1314,#1316,#1317))
REPRESENTATION_CONTEXT('','3D')
);
#1313=(
GEOMETRIC_REPRESENTATION_CONTEXT(3)
GLOBAL_UNCERTAINTY_ASSIGNED_CONTEXT((#1311))
GLOBAL_UNIT_ASSIGNED_CONTEXT((#1314,#1316,#1317))
REPRESENTATION_CONTEXT('','3D')
);
#1314=(
LENGTH_UNIT()
NAMED_UNIT(*)
SI_UNIT(.MILLI.,.METRE.)
);
#1315=(
LENGTH_UNIT()
NAMED_UNIT(*)
SI_UNIT($,.METRE.)
);
#1316=(
NAMED_UNIT(*)
PLANE_ANGLE_UNIT()
SI_UNIT($,.RADIAN.)
);
#1317=(
NAMED_UNIT(*)
SI_UNIT($,.STERADIAN.)
SOLID_ANGLE_UNIT()
);
#1318=SHAPE_DEFINITION_REPRESENTATION(#1319,#1320);
#1319=PRODUCT_DEFINITION_SHAPE('',$,#1322);
#1320=SHAPE_REPRESENTATION('',(#806),#1312);
#1321=PRODUCT_DEFINITION_CONTEXT('part definition',#1326,'design');
#1322=PRODUCT_DEFINITION('moton_ctrl_wheel','moton_ctrl_wheel v15',#1323,
#1321);
#1323=PRODUCT_DEFINITION_FORMATION('',$,#1328);
#1324=PRODUCT_RELATED_PRODUCT_CATEGORY('moton_ctrl_wheel v15',
'moton_ctrl_wheel v15',(#1328));
#1325=APPLICATION_PROTOCOL_DEFINITION('international standard',
'automotive_design',2009,#1326);
#1326=APPLICATION_CONTEXT(
'Core Data for Automotive Mechanical Design Process');
#1327=PRODUCT_CONTEXT('part definition',#1326,'mechanical');
#1328=PRODUCT('moton_ctrl_wheel','moton_ctrl_wheel v15',$,(#1327));
#1329=PRESENTATION_STYLE_ASSIGNMENT((#1330));
#1330=SURFACE_STYLE_USAGE(.BOTH.,#1331);
#1331=SURFACE_SIDE_STYLE('',(#1332));
#1332=SURFACE_STYLE_FILL_AREA(#1333);
#1333=FILL_AREA_STYLE('\X2\92FC\X0\ - \X2\30B530C630F3\X0\',(#1334));
#1334=FILL_AREA_STYLE_COLOUR('\X2\92FC\X0\ - \X2\30B530C630F3\X0\',#1335);
#1335=COLOUR_RGB('\X2\92FC\X0\ - \X2\30B530C630F3\X0\',0.627450980392157,
0.627450980392157,0.627450980392157);
ENDSEC;
END-ISO-10303-21;
