ISO-10303-21;
HEADER;
/* Generated by software containing ST-Developer
 * from STEP Tools, Inc. (www.steptools.com) 
 */

FILE_DESCRIPTION(
/* description */ (''),
/* implementation_level */ '2;1');

FILE_NAME(
/* name */ 'motor_joint_ipad.step',
/* time_stamp */ '2026-05-12T02:03:01+09:00',
/* author */ (''),
/* organization */ (''),
/* preprocessor_version */ 'ST-DEVELOPER v20.1',
/* originating_system */ 'Autodesk Translation Framework v15.8.0.0',
/* authorisation */ '');

FILE_SCHEMA (('AUTOMOTIVE_DESIGN { 1 0 10303 214 3 1 1 }'));
ENDSEC;

DATA;
#10=MECHANICAL_DESIGN_GEOMETRIC_PRESENTATION_REPRESENTATION('',(#13),#595);
#11=SHAPE_REPRESENTATION_RELATIONSHIP('SRR','None',#602,#12);
#12=ADVANCED_BREP_SHAPE_REPRESENTATION('',(#14),#594);
#13=STYLED_ITEM('',(#611),#14);
#14=MANIFOLD_SOLID_BREP('\X2\30DC30C730A3\X0\1',#347);
#15=CYLINDRICAL_SURFACE('',#367,2.415);
#16=CYLINDRICAL_SURFACE('',#371,2.415);
#17=CYLINDRICAL_SURFACE('',#375,2.415);
#18=CYLINDRICAL_SURFACE('',#379,2.415);
#19=CYLINDRICAL_SURFACE('',#389,21.4);
#20=CYLINDRICAL_SURFACE('',#392,22.5);
#21=FACE_BOUND('',#112,.T.);
#22=FACE_BOUND('',#113,.T.);
#23=FACE_BOUND('',#135,.T.);
#24=FACE_BOUND('',#137,.T.);
#25=FACE_BOUND('',#138,.T.);
#26=FACE_BOUND('',#139,.T.);
#27=FACE_BOUND('',#140,.T.);
#28=LINE('',#504,#58);
#29=LINE('',#506,#59);
#30=LINE('',#508,#60);
#31=LINE('',#509,#61);
#32=LINE('',#512,#62);
#33=LINE('',#514,#63);
#34=LINE('',#516,#64);
#35=LINE('',#517,#65);
#36=LINE('',#520,#66);
#37=LINE('',#522,#67);
#38=LINE('',#523,#68);
#39=LINE('',#526,#69);
#40=LINE('',#527,#70);
#41=LINE('',#530,#71);
#42=LINE('',#532,#72);
#43=LINE('',#533,#73);
#44=LINE('',#536,#74);
#45=LINE('',#537,#75);
#46=LINE('',#542,#76);
#47=LINE('',#549,#77);
#48=LINE('',#556,#78);
#49=LINE('',#563,#79);
#50=LINE('',#568,#80);
#51=LINE('',#569,#81);
#52=LINE('',#571,#82);
#53=LINE('',#575,#83);
#54=LINE('',#576,#84);
#55=LINE('',#578,#85);
#56=LINE('',#584,#86);
#57=LINE('',#589,#87);
#58=VECTOR('',#402,10.);
#59=VECTOR('',#403,10.);
#60=VECTOR('',#404,10.);
#61=VECTOR('',#405,10.);
#62=VECTOR('',#406,10.);
#63=VECTOR('',#407,10.);
#64=VECTOR('',#408,10.);
#65=VECTOR('',#409,10.);
#66=VECTOR('',#412,10.);
#67=VECTOR('',#413,10.);
#68=VECTOR('',#414,10.);
#69=VECTOR('',#417,10.);
#70=VECTOR('',#418,10.);
#71=VECTOR('',#421,10.);
#72=VECTOR('',#422,10.);
#73=VECTOR('',#423,10.);
#74=VECTOR('',#426,10.);
#75=VECTOR('',#427,10.);
#76=VECTOR('',#432,2.415);
#77=VECTOR('',#441,2.415);
#78=VECTOR('',#450,2.415);
#79=VECTOR('',#459,2.415);
#80=VECTOR('',#466,10.);
#81=VECTOR('',#467,10.);
#82=VECTOR('',#470,10.);
#83=VECTOR('',#475,10.);
#84=VECTOR('',#476,10.);
#85=VECTOR('',#479,10.);
#86=VECTOR('',#486,21.4);
#87=VECTOR('',#493,22.5);
#88=FACE_OUTER_BOUND('',#111,.T.);
#89=FACE_OUTER_BOUND('',#114,.T.);
#90=FACE_OUTER_BOUND('',#115,.T.);
#91=FACE_OUTER_BOUND('',#116,.T.);
#92=FACE_OUTER_BOUND('',#117,.T.);
#93=FACE_OUTER_BOUND('',#118,.T.);
#94=FACE_OUTER_BOUND('',#119,.T.);
#95=FACE_OUTER_BOUND('',#120,.T.);
#96=FACE_OUTER_BOUND('',#121,.T.);
#97=FACE_OUTER_BOUND('',#122,.T.);
#98=FACE_OUTER_BOUND('',#123,.T.);
#99=FACE_OUTER_BOUND('',#124,.T.);
#100=FACE_OUTER_BOUND('',#125,.T.);
#101=FACE_OUTER_BOUND('',#126,.T.);
#102=FACE_OUTER_BOUND('',#127,.T.);
#103=FACE_OUTER_BOUND('',#128,.T.);
#104=FACE_OUTER_BOUND('',#129,.T.);
#105=FACE_OUTER_BOUND('',#130,.T.);
#106=FACE_OUTER_BOUND('',#131,.T.);
#107=FACE_OUTER_BOUND('',#132,.T.);
#108=FACE_OUTER_BOUND('',#133,.T.);
#109=FACE_OUTER_BOUND('',#134,.T.);
#110=FACE_OUTER_BOUND('',#136,.T.);
#111=EDGE_LOOP('',(#223));
#112=EDGE_LOOP('',(#224,#225,#226,#227));
#113=EDGE_LOOP('',(#228,#229,#230,#231));
#114=EDGE_LOOP('',(#232,#233,#234,#235));
#115=EDGE_LOOP('',(#236,#237,#238,#239));
#116=EDGE_LOOP('',(#240,#241,#242,#243));
#117=EDGE_LOOP('',(#244,#245,#246,#247));
#118=EDGE_LOOP('',(#248,#249,#250,#251));
#119=EDGE_LOOP('',(#252));
#120=EDGE_LOOP('',(#253,#254,#255,#256));
#121=EDGE_LOOP('',(#257));
#122=EDGE_LOOP('',(#258,#259,#260,#261));
#123=EDGE_LOOP('',(#262));
#124=EDGE_LOOP('',(#263,#264,#265,#266));
#125=EDGE_LOOP('',(#267));
#126=EDGE_LOOP('',(#268,#269,#270,#271));
#127=EDGE_LOOP('',(#272,#273,#274,#275));
#128=EDGE_LOOP('',(#276,#277,#278,#279));
#129=EDGE_LOOP('',(#280,#281,#282,#283));
#130=EDGE_LOOP('',(#284,#285,#286,#287));
#131=EDGE_LOOP('',(#288,#289,#290,#291));
#132=EDGE_LOOP('',(#292,#293,#294,#295));
#133=EDGE_LOOP('',(#296,#297,#298,#299));
#134=EDGE_LOOP('',(#300));
#135=EDGE_LOOP('',(#301));
#136=EDGE_LOOP('',(#302));
#137=EDGE_LOOP('',(#303));
#138=EDGE_LOOP('',(#304));
#139=EDGE_LOOP('',(#305));
#140=EDGE_LOOP('',(#306));
#141=CIRCLE('',#362,22.5);
#142=CIRCLE('',#368,2.415);
#143=CIRCLE('',#369,2.415);
#144=CIRCLE('',#372,2.415);
#145=CIRCLE('',#373,2.415);
#146=CIRCLE('',#376,2.415);
#147=CIRCLE('',#377,2.415);
#148=CIRCLE('',#380,2.415);
#149=CIRCLE('',#381,2.415);
#150=CIRCLE('',#390,21.4);
#151=CIRCLE('',#391,21.4);
#152=CIRCLE('',#393,22.5);
#153=VERTEX_POINT('',#500);
#154=VERTEX_POINT('',#502);
#155=VERTEX_POINT('',#503);
#156=VERTEX_POINT('',#505);
#157=VERTEX_POINT('',#507);
#158=VERTEX_POINT('',#510);
#159=VERTEX_POINT('',#511);
#160=VERTEX_POINT('',#513);
#161=VERTEX_POINT('',#515);
#162=VERTEX_POINT('',#519);
#163=VERTEX_POINT('',#521);
#164=VERTEX_POINT('',#525);
#165=VERTEX_POINT('',#529);
#166=VERTEX_POINT('',#531);
#167=VERTEX_POINT('',#535);
#168=VERTEX_POINT('',#539);
#169=VERTEX_POINT('',#541);
#170=VERTEX_POINT('',#546);
#171=VERTEX_POINT('',#548);
#172=VERTEX_POINT('',#553);
#173=VERTEX_POINT('',#555);
#174=VERTEX_POINT('',#560);
#175=VERTEX_POINT('',#562);
#176=VERTEX_POINT('',#567);
#177=VERTEX_POINT('',#574);
#178=VERTEX_POINT('',#581);
#179=VERTEX_POINT('',#583);
#180=VERTEX_POINT('',#587);
#181=EDGE_CURVE('',#153,#153,#141,.T.);
#182=EDGE_CURVE('',#154,#155,#28,.T.);
#183=EDGE_CURVE('',#156,#154,#29,.T.);
#184=EDGE_CURVE('',#157,#156,#30,.T.);
#185=EDGE_CURVE('',#155,#157,#31,.T.);
#186=EDGE_CURVE('',#158,#159,#32,.T.);
#187=EDGE_CURVE('',#160,#158,#33,.T.);
#188=EDGE_CURVE('',#161,#160,#34,.T.);
#189=EDGE_CURVE('',#159,#161,#35,.T.);
#190=EDGE_CURVE('',#160,#162,#36,.T.);
#191=EDGE_CURVE('',#163,#162,#37,.T.);
#192=EDGE_CURVE('',#161,#163,#38,.T.);
#193=EDGE_CURVE('',#158,#164,#39,.T.);
#194=EDGE_CURVE('',#162,#164,#40,.T.);
#195=EDGE_CURVE('',#156,#165,#41,.T.);
#196=EDGE_CURVE('',#166,#165,#42,.T.);
#197=EDGE_CURVE('',#157,#166,#43,.T.);
#198=EDGE_CURVE('',#154,#167,#44,.T.);
#199=EDGE_CURVE('',#165,#167,#45,.T.);
#200=EDGE_CURVE('',#168,#168,#142,.T.);
#201=EDGE_CURVE('',#168,#169,#46,.T.);
#202=EDGE_CURVE('',#169,#169,#143,.T.);
#203=EDGE_CURVE('',#170,#170,#144,.T.);
#204=EDGE_CURVE('',#170,#171,#47,.T.);
#205=EDGE_CURVE('',#171,#171,#145,.T.);
#206=EDGE_CURVE('',#172,#172,#146,.T.);
#207=EDGE_CURVE('',#172,#173,#48,.T.);
#208=EDGE_CURVE('',#173,#173,#147,.T.);
#209=EDGE_CURVE('',#174,#174,#148,.T.);
#210=EDGE_CURVE('',#174,#175,#49,.T.);
#211=EDGE_CURVE('',#175,#175,#149,.T.);
#212=EDGE_CURVE('',#155,#176,#50,.T.);
#213=EDGE_CURVE('',#167,#176,#51,.T.);
#214=EDGE_CURVE('',#176,#166,#52,.T.);
#215=EDGE_CURVE('',#159,#177,#53,.T.);
#216=EDGE_CURVE('',#164,#177,#54,.T.);
#217=EDGE_CURVE('',#177,#163,#55,.T.);
#218=EDGE_CURVE('',#178,#178,#150,.T.);
#219=EDGE_CURVE('',#178,#179,#56,.T.);
#220=EDGE_CURVE('',#179,#179,#151,.T.);
#221=EDGE_CURVE('',#180,#180,#152,.T.);
#222=EDGE_CURVE('',#180,#153,#57,.T.);
#223=ORIENTED_EDGE('',*,*,#181,.T.);
#224=ORIENTED_EDGE('',*,*,#182,.F.);
#225=ORIENTED_EDGE('',*,*,#183,.F.);
#226=ORIENTED_EDGE('',*,*,#184,.F.);
#227=ORIENTED_EDGE('',*,*,#185,.F.);
#228=ORIENTED_EDGE('',*,*,#186,.F.);
#229=ORIENTED_EDGE('',*,*,#187,.F.);
#230=ORIENTED_EDGE('',*,*,#188,.F.);
#231=ORIENTED_EDGE('',*,*,#189,.F.);
#232=ORIENTED_EDGE('',*,*,#188,.T.);
#233=ORIENTED_EDGE('',*,*,#190,.T.);
#234=ORIENTED_EDGE('',*,*,#191,.F.);
#235=ORIENTED_EDGE('',*,*,#192,.F.);
#236=ORIENTED_EDGE('',*,*,#187,.T.);
#237=ORIENTED_EDGE('',*,*,#193,.T.);
#238=ORIENTED_EDGE('',*,*,#194,.F.);
#239=ORIENTED_EDGE('',*,*,#190,.F.);
#240=ORIENTED_EDGE('',*,*,#184,.T.);
#241=ORIENTED_EDGE('',*,*,#195,.T.);
#242=ORIENTED_EDGE('',*,*,#196,.F.);
#243=ORIENTED_EDGE('',*,*,#197,.F.);
#244=ORIENTED_EDGE('',*,*,#183,.T.);
#245=ORIENTED_EDGE('',*,*,#198,.T.);
#246=ORIENTED_EDGE('',*,*,#199,.F.);
#247=ORIENTED_EDGE('',*,*,#195,.F.);
#248=ORIENTED_EDGE('',*,*,#200,.F.);
#249=ORIENTED_EDGE('',*,*,#201,.T.);
#250=ORIENTED_EDGE('',*,*,#202,.F.);
#251=ORIENTED_EDGE('',*,*,#201,.F.);
#252=ORIENTED_EDGE('',*,*,#200,.T.);
#253=ORIENTED_EDGE('',*,*,#203,.F.);
#254=ORIENTED_EDGE('',*,*,#204,.T.);
#255=ORIENTED_EDGE('',*,*,#205,.F.);
#256=ORIENTED_EDGE('',*,*,#204,.F.);
#257=ORIENTED_EDGE('',*,*,#203,.T.);
#258=ORIENTED_EDGE('',*,*,#206,.F.);
#259=ORIENTED_EDGE('',*,*,#207,.T.);
#260=ORIENTED_EDGE('',*,*,#208,.F.);
#261=ORIENTED_EDGE('',*,*,#207,.F.);
#262=ORIENTED_EDGE('',*,*,#206,.T.);
#263=ORIENTED_EDGE('',*,*,#209,.F.);
#264=ORIENTED_EDGE('',*,*,#210,.T.);
#265=ORIENTED_EDGE('',*,*,#211,.F.);
#266=ORIENTED_EDGE('',*,*,#210,.F.);
#267=ORIENTED_EDGE('',*,*,#209,.T.);
#268=ORIENTED_EDGE('',*,*,#182,.T.);
#269=ORIENTED_EDGE('',*,*,#212,.T.);
#270=ORIENTED_EDGE('',*,*,#213,.F.);
#271=ORIENTED_EDGE('',*,*,#198,.F.);
#272=ORIENTED_EDGE('',*,*,#185,.T.);
#273=ORIENTED_EDGE('',*,*,#197,.T.);
#274=ORIENTED_EDGE('',*,*,#214,.F.);
#275=ORIENTED_EDGE('',*,*,#212,.F.);
#276=ORIENTED_EDGE('',*,*,#214,.T.);
#277=ORIENTED_EDGE('',*,*,#196,.T.);
#278=ORIENTED_EDGE('',*,*,#199,.T.);
#279=ORIENTED_EDGE('',*,*,#213,.T.);
#280=ORIENTED_EDGE('',*,*,#186,.T.);
#281=ORIENTED_EDGE('',*,*,#215,.T.);
#282=ORIENTED_EDGE('',*,*,#216,.F.);
#283=ORIENTED_EDGE('',*,*,#193,.F.);
#284=ORIENTED_EDGE('',*,*,#189,.T.);
#285=ORIENTED_EDGE('',*,*,#192,.T.);
#286=ORIENTED_EDGE('',*,*,#217,.F.);
#287=ORIENTED_EDGE('',*,*,#215,.F.);
#288=ORIENTED_EDGE('',*,*,#217,.T.);
#289=ORIENTED_EDGE('',*,*,#191,.T.);
#290=ORIENTED_EDGE('',*,*,#194,.T.);
#291=ORIENTED_EDGE('',*,*,#216,.T.);
#292=ORIENTED_EDGE('',*,*,#218,.F.);
#293=ORIENTED_EDGE('',*,*,#219,.T.);
#294=ORIENTED_EDGE('',*,*,#220,.F.);
#295=ORIENTED_EDGE('',*,*,#219,.F.);
#296=ORIENTED_EDGE('',*,*,#221,.F.);
#297=ORIENTED_EDGE('',*,*,#222,.T.);
#298=ORIENTED_EDGE('',*,*,#181,.F.);
#299=ORIENTED_EDGE('',*,*,#222,.F.);
#300=ORIENTED_EDGE('',*,*,#221,.T.);
#301=ORIENTED_EDGE('',*,*,#218,.T.);
#302=ORIENTED_EDGE('',*,*,#220,.T.);
#303=ORIENTED_EDGE('',*,*,#202,.T.);
#304=ORIENTED_EDGE('',*,*,#205,.T.);
#305=ORIENTED_EDGE('',*,*,#208,.T.);
#306=ORIENTED_EDGE('',*,*,#211,.T.);
#307=PLANE('',#361);
#308=PLANE('',#363);
#309=PLANE('',#364);
#310=PLANE('',#365);
#311=PLANE('',#366);
#312=PLANE('',#370);
#313=PLANE('',#374);
#314=PLANE('',#378);
#315=PLANE('',#382);
#316=PLANE('',#383);
#317=PLANE('',#384);
#318=PLANE('',#385);
#319=PLANE('',#386);
#320=PLANE('',#387);
#321=PLANE('',#388);
#322=PLANE('',#394);
#323=PLANE('',#395);
#324=ADVANCED_FACE('',(#88,#21,#22),#307,.F.);
#325=ADVANCED_FACE('',(#89),#308,.T.);
#326=ADVANCED_FACE('',(#90),#309,.T.);
#327=ADVANCED_FACE('',(#91),#310,.T.);
#328=ADVANCED_FACE('',(#92),#311,.T.);
#329=ADVANCED_FACE('',(#93),#15,.T.);
#330=ADVANCED_FACE('',(#94),#312,.T.);
#331=ADVANCED_FACE('',(#95),#16,.T.);
#332=ADVANCED_FACE('',(#96),#313,.T.);
#333=ADVANCED_FACE('',(#97),#17,.T.);
#334=ADVANCED_FACE('',(#98),#314,.T.);
#335=ADVANCED_FACE('',(#99),#18,.T.);
#336=ADVANCED_FACE('',(#100),#315,.T.);
#337=ADVANCED_FACE('',(#101),#316,.T.);
#338=ADVANCED_FACE('',(#102),#317,.T.);
#339=ADVANCED_FACE('',(#103),#318,.T.);
#340=ADVANCED_FACE('',(#104),#319,.T.);
#341=ADVANCED_FACE('',(#105),#320,.T.);
#342=ADVANCED_FACE('',(#106),#321,.T.);
#343=ADVANCED_FACE('',(#107),#19,.F.);
#344=ADVANCED_FACE('',(#108),#20,.T.);
#345=ADVANCED_FACE('',(#109,#23),#322,.T.);
#346=ADVANCED_FACE('',(#110,#24,#25,#26,#27),#323,.T.);
#347=CLOSED_SHELL('',(#324,#325,#326,#327,#328,#329,#330,#331,#332,#333,
#334,#335,#336,#337,#338,#339,#340,#341,#342,#343,#344,#345,#346));
#348=DERIVED_UNIT_ELEMENT(#350,1.);
#349=DERIVED_UNIT_ELEMENT(#597,-3.);
#350=(
MASS_UNIT()
NAMED_UNIT(*)
SI_UNIT(.KILO.,.GRAM.)
);
#351=DERIVED_UNIT((#348,#349));
#352=MEASURE_REPRESENTATION_ITEM('density measure',
POSITIVE_RATIO_MEASURE(7850.),#351);
#353=PROPERTY_DEFINITION_REPRESENTATION(#358,#355);
#354=PROPERTY_DEFINITION_REPRESENTATION(#359,#356);
#355=REPRESENTATION('material name',(#357),#594);
#356=REPRESENTATION('density',(#352),#594);
#357=DESCRIPTIVE_REPRESENTATION_ITEM('\X2\92FC\X0\','\X2\92FC\X0\');
#358=PROPERTY_DEFINITION('material property','material name',#604);
#359=PROPERTY_DEFINITION('material property','density of part',#604);
#360=AXIS2_PLACEMENT_3D('',#498,#396,#397);
#361=AXIS2_PLACEMENT_3D('',#499,#398,#399);
#362=AXIS2_PLACEMENT_3D('',#501,#400,#401);
#363=AXIS2_PLACEMENT_3D('',#518,#410,#411);
#364=AXIS2_PLACEMENT_3D('',#524,#415,#416);
#365=AXIS2_PLACEMENT_3D('',#528,#419,#420);
#366=AXIS2_PLACEMENT_3D('',#534,#424,#425);
#367=AXIS2_PLACEMENT_3D('',#538,#428,#429);
#368=AXIS2_PLACEMENT_3D('',#540,#430,#431);
#369=AXIS2_PLACEMENT_3D('',#543,#433,#434);
#370=AXIS2_PLACEMENT_3D('',#544,#435,#436);
#371=AXIS2_PLACEMENT_3D('',#545,#437,#438);
#372=AXIS2_PLACEMENT_3D('',#547,#439,#440);
#373=AXIS2_PLACEMENT_3D('',#550,#442,#443);
#374=AXIS2_PLACEMENT_3D('',#551,#444,#445);
#375=AXIS2_PLACEMENT_3D('',#552,#446,#447);
#376=AXIS2_PLACEMENT_3D('',#554,#448,#449);
#377=AXIS2_PLACEMENT_3D('',#557,#451,#452);
#378=AXIS2_PLACEMENT_3D('',#558,#453,#454);
#379=AXIS2_PLACEMENT_3D('',#559,#455,#456);
#380=AXIS2_PLACEMENT_3D('',#561,#457,#458);
#381=AXIS2_PLACEMENT_3D('',#564,#460,#461);
#382=AXIS2_PLACEMENT_3D('',#565,#462,#463);
#383=AXIS2_PLACEMENT_3D('',#566,#464,#465);
#384=AXIS2_PLACEMENT_3D('',#570,#468,#469);
#385=AXIS2_PLACEMENT_3D('',#572,#471,#472);
#386=AXIS2_PLACEMENT_3D('',#573,#473,#474);
#387=AXIS2_PLACEMENT_3D('',#577,#477,#478);
#388=AXIS2_PLACEMENT_3D('',#579,#480,#481);
#389=AXIS2_PLACEMENT_3D('',#580,#482,#483);
#390=AXIS2_PLACEMENT_3D('',#582,#484,#485);
#391=AXIS2_PLACEMENT_3D('',#585,#487,#488);
#392=AXIS2_PLACEMENT_3D('',#586,#489,#490);
#393=AXIS2_PLACEMENT_3D('',#588,#491,#492);
#394=AXIS2_PLACEMENT_3D('',#590,#494,#495);
#395=AXIS2_PLACEMENT_3D('',#591,#496,#497);
#396=DIRECTION('axis',(0.,0.,1.));
#397=DIRECTION('refdir',(1.,0.,0.));
#398=DIRECTION('center_axis',(0.,0.,1.));
#399=DIRECTION('ref_axis',(1.,0.,0.));
#400=DIRECTION('center_axis',(0.,0.,-1.));
#401=DIRECTION('ref_axis',(1.,0.,0.));
#402=DIRECTION('',(0.,-1.,0.));
#403=DIRECTION('',(1.,0.,0.));
#404=DIRECTION('',(0.,1.,0.));
#405=DIRECTION('',(-1.,0.,0.));
#406=DIRECTION('',(0.,1.,0.));
#407=DIRECTION('',(-1.,0.,0.));
#408=DIRECTION('',(0.,-1.,0.));
#409=DIRECTION('',(1.,0.,0.));
#410=DIRECTION('center_axis',(1.,0.,0.));
#411=DIRECTION('ref_axis',(0.,-1.,0.));
#412=DIRECTION('',(0.,0.,-1.));
#413=DIRECTION('',(0.,-1.,0.));
#414=DIRECTION('',(0.,0.,-1.));
#415=DIRECTION('center_axis',(0.,-1.,0.));
#416=DIRECTION('ref_axis',(-1.,0.,0.));
#417=DIRECTION('',(0.,0.,-1.));
#418=DIRECTION('',(-1.,0.,0.));
#419=DIRECTION('center_axis',(-1.,0.,0.));
#420=DIRECTION('ref_axis',(0.,1.,0.));
#421=DIRECTION('',(0.,0.,-1.));
#422=DIRECTION('',(0.,1.,0.));
#423=DIRECTION('',(0.,0.,-1.));
#424=DIRECTION('center_axis',(0.,1.,0.));
#425=DIRECTION('ref_axis',(1.,0.,0.));
#426=DIRECTION('',(0.,0.,-1.));
#427=DIRECTION('',(1.,0.,0.));
#428=DIRECTION('center_axis',(0.,0.,1.));
#429=DIRECTION('ref_axis',(1.,0.,0.));
#430=DIRECTION('center_axis',(0.,0.,1.));
#431=DIRECTION('ref_axis',(1.,0.,0.));
#432=DIRECTION('',(0.,0.,-1.));
#433=DIRECTION('center_axis',(0.,0.,-1.));
#434=DIRECTION('ref_axis',(1.,0.,0.));
#435=DIRECTION('center_axis',(0.,0.,1.));
#436=DIRECTION('ref_axis',(1.,0.,0.));
#437=DIRECTION('center_axis',(0.,0.,1.));
#438=DIRECTION('ref_axis',(1.,0.,0.));
#439=DIRECTION('center_axis',(0.,0.,1.));
#440=DIRECTION('ref_axis',(1.,0.,0.));
#441=DIRECTION('',(0.,0.,-1.));
#442=DIRECTION('center_axis',(0.,0.,-1.));
#443=DIRECTION('ref_axis',(1.,0.,0.));
#444=DIRECTION('center_axis',(0.,0.,1.));
#445=DIRECTION('ref_axis',(1.,0.,0.));
#446=DIRECTION('center_axis',(0.,0.,1.));
#447=DIRECTION('ref_axis',(1.,0.,0.));
#448=DIRECTION('center_axis',(0.,0.,1.));
#449=DIRECTION('ref_axis',(1.,0.,0.));
#450=DIRECTION('',(0.,0.,-1.));
#451=DIRECTION('center_axis',(0.,0.,-1.));
#452=DIRECTION('ref_axis',(1.,0.,0.));
#453=DIRECTION('center_axis',(0.,0.,1.));
#454=DIRECTION('ref_axis',(1.,0.,0.));
#455=DIRECTION('center_axis',(0.,0.,1.));
#456=DIRECTION('ref_axis',(1.,0.,0.));
#457=DIRECTION('center_axis',(0.,0.,1.));
#458=DIRECTION('ref_axis',(1.,0.,0.));
#459=DIRECTION('',(0.,0.,-1.));
#460=DIRECTION('center_axis',(0.,0.,-1.));
#461=DIRECTION('ref_axis',(1.,0.,0.));
#462=DIRECTION('center_axis',(0.,0.,1.));
#463=DIRECTION('ref_axis',(1.,0.,0.));
#464=DIRECTION('center_axis',(1.,0.,0.));
#465=DIRECTION('ref_axis',(0.,-1.,0.));
#466=DIRECTION('',(0.,0.,-1.));
#467=DIRECTION('',(0.,-1.,0.));
#468=DIRECTION('center_axis',(0.,-1.,0.));
#469=DIRECTION('ref_axis',(-1.,0.,0.));
#470=DIRECTION('',(-1.,0.,0.));
#471=DIRECTION('center_axis',(0.,0.,-1.));
#472=DIRECTION('ref_axis',(-1.,0.,0.));
#473=DIRECTION('center_axis',(-1.,0.,0.));
#474=DIRECTION('ref_axis',(0.,1.,0.));
#475=DIRECTION('',(0.,0.,-1.));
#476=DIRECTION('',(0.,1.,0.));
#477=DIRECTION('center_axis',(0.,1.,0.));
#478=DIRECTION('ref_axis',(1.,0.,0.));
#479=DIRECTION('',(1.,0.,0.));
#480=DIRECTION('center_axis',(0.,0.,-1.));
#481=DIRECTION('ref_axis',(-1.,0.,0.));
#482=DIRECTION('center_axis',(0.,0.,1.));
#483=DIRECTION('ref_axis',(1.,0.,0.));
#484=DIRECTION('center_axis',(0.,0.,-1.));
#485=DIRECTION('ref_axis',(1.,0.,0.));
#486=DIRECTION('',(0.,0.,-1.));
#487=DIRECTION('center_axis',(0.,0.,1.));
#488=DIRECTION('ref_axis',(1.,0.,0.));
#489=DIRECTION('center_axis',(0.,0.,1.));
#490=DIRECTION('ref_axis',(1.,0.,0.));
#491=DIRECTION('center_axis',(0.,0.,1.));
#492=DIRECTION('ref_axis',(1.,0.,0.));
#493=DIRECTION('',(0.,0.,-1.));
#494=DIRECTION('center_axis',(0.,0.,1.));
#495=DIRECTION('ref_axis',(1.,0.,0.));
#496=DIRECTION('center_axis',(0.,0.,1.));
#497=DIRECTION('ref_axis',(1.,0.,0.));
#498=CARTESIAN_POINT('',(0.,0.,0.));
#499=CARTESIAN_POINT('Origin',(0.,0.,-1.5));
#500=CARTESIAN_POINT('',(-22.5,-2.22044604925031E-15,-1.5));
#501=CARTESIAN_POINT('Origin',(0.,0.,-1.5));
#502=CARTESIAN_POINT('',(21.1779218763315,-3.075,-1.5));
#503=CARTESIAN_POINT('',(21.1779218763315,-6.075,-1.5));
#504=CARTESIAN_POINT('',(21.1779218763315,-1.5375,-1.5));
#505=CARTESIAN_POINT('',(-21.1779218763315,-3.075,-1.5));
#506=CARTESIAN_POINT('',(-10.5889609381657,-3.075,-1.5));
#507=CARTESIAN_POINT('',(-21.1779218763315,-6.075,-1.5));
#508=CARTESIAN_POINT('',(-21.1779218763315,-3.0375,-1.5));
#509=CARTESIAN_POINT('',(10.5889609381657,-6.075,-1.5));
#510=CARTESIAN_POINT('',(-21.155599140653,3.225,-1.5));
#511=CARTESIAN_POINT('',(-21.155599140653,6.225,-1.5));
#512=CARTESIAN_POINT('',(-21.155599140653,1.6125,-1.5));
#513=CARTESIAN_POINT('',(21.155599140653,3.225,-1.5));
#514=CARTESIAN_POINT('',(10.5777995703265,3.225,-1.5));
#515=CARTESIAN_POINT('',(21.155599140653,6.225,-1.5));
#516=CARTESIAN_POINT('',(21.155599140653,3.1125,-1.5));
#517=CARTESIAN_POINT('',(-10.5777995703265,6.225,-1.5));
#518=CARTESIAN_POINT('Origin',(21.155599140653,6.225,0.));
#519=CARTESIAN_POINT('',(21.155599140653,3.225,-10.5));
#520=CARTESIAN_POINT('',(21.155599140653,3.225,0.));
#521=CARTESIAN_POINT('',(21.155599140653,6.225,-10.5));
#522=CARTESIAN_POINT('',(21.155599140653,6.225,-10.5));
#523=CARTESIAN_POINT('',(21.155599140653,6.225,0.));
#524=CARTESIAN_POINT('Origin',(21.155599140653,3.225,0.));
#525=CARTESIAN_POINT('',(-21.155599140653,3.225,-10.5));
#526=CARTESIAN_POINT('',(-21.155599140653,3.225,0.));
#527=CARTESIAN_POINT('',(-21.155599140653,3.225,-10.5));
#528=CARTESIAN_POINT('Origin',(-21.1779218763315,-6.075,0.));
#529=CARTESIAN_POINT('',(-21.1779218763315,-3.075,-50.));
#530=CARTESIAN_POINT('',(-21.1779218763315,-3.075,0.));
#531=CARTESIAN_POINT('',(-21.1779218763315,-6.075,-50.));
#532=CARTESIAN_POINT('',(-21.1779218763315,-6.075,-50.));
#533=CARTESIAN_POINT('',(-21.1779218763315,-6.075,0.));
#534=CARTESIAN_POINT('Origin',(-21.1779218763315,-3.075,0.));
#535=CARTESIAN_POINT('',(21.1779218763315,-3.075,-50.));
#536=CARTESIAN_POINT('',(21.1779218763315,-3.075,0.));
#537=CARTESIAN_POINT('',(21.1779218763315,-3.075,-50.));
#538=CARTESIAN_POINT('Origin',(-8.,16.,0.));
#539=CARTESIAN_POINT('',(-10.415,16.,10.));
#540=CARTESIAN_POINT('Origin',(-8.,16.,10.));
#541=CARTESIAN_POINT('',(-10.415,16.,2.));
#542=CARTESIAN_POINT('',(-10.415,16.,0.));
#543=CARTESIAN_POINT('Origin',(-8.,16.,2.));
#544=CARTESIAN_POINT('Origin',(-8.,16.,10.));
#545=CARTESIAN_POINT('Origin',(-8.,-16.,0.));
#546=CARTESIAN_POINT('',(-10.415,-16.,10.));
#547=CARTESIAN_POINT('Origin',(-8.,-16.,10.));
#548=CARTESIAN_POINT('',(-10.415,-16.,2.));
#549=CARTESIAN_POINT('',(-10.415,-16.,0.));
#550=CARTESIAN_POINT('Origin',(-8.,-16.,2.));
#551=CARTESIAN_POINT('Origin',(-8.,-16.,10.));
#552=CARTESIAN_POINT('Origin',(8.,16.,0.));
#553=CARTESIAN_POINT('',(5.585,16.,10.));
#554=CARTESIAN_POINT('Origin',(8.,16.,10.));
#555=CARTESIAN_POINT('',(5.585,16.,2.));
#556=CARTESIAN_POINT('',(5.585,16.,0.));
#557=CARTESIAN_POINT('Origin',(8.,16.,2.));
#558=CARTESIAN_POINT('Origin',(8.,16.,10.));
#559=CARTESIAN_POINT('Origin',(8.,-16.,0.));
#560=CARTESIAN_POINT('',(5.585,-16.,10.));
#561=CARTESIAN_POINT('Origin',(8.,-16.,10.));
#562=CARTESIAN_POINT('',(5.585,-16.,2.));
#563=CARTESIAN_POINT('',(5.585,-16.,0.));
#564=CARTESIAN_POINT('Origin',(8.,-16.,2.));
#565=CARTESIAN_POINT('Origin',(8.,-16.,10.));
#566=CARTESIAN_POINT('Origin',(21.1779218763315,-3.075,0.));
#567=CARTESIAN_POINT('',(21.1779218763315,-6.075,-50.));
#568=CARTESIAN_POINT('',(21.1779218763315,-6.075,0.));
#569=CARTESIAN_POINT('',(21.1779218763315,-6.075,-50.));
#570=CARTESIAN_POINT('Origin',(21.1779218763315,-6.075,0.));
#571=CARTESIAN_POINT('',(1.83697019872103E-16,-6.075,-50.));
#572=CARTESIAN_POINT('Origin',(0.,-4.575,-50.));
#573=CARTESIAN_POINT('Origin',(-21.155599140653,3.225,0.));
#574=CARTESIAN_POINT('',(-21.155599140653,6.225,-10.5));
#575=CARTESIAN_POINT('',(-21.155599140653,6.225,0.));
#576=CARTESIAN_POINT('',(-21.155599140653,6.225,-10.5));
#577=CARTESIAN_POINT('Origin',(-21.155599140653,6.225,0.));
#578=CARTESIAN_POINT('',(0.,6.225,-10.5));
#579=CARTESIAN_POINT('Origin',(0.,4.725,-10.5));
#580=CARTESIAN_POINT('Origin',(0.,0.,0.));
#581=CARTESIAN_POINT('',(-21.4,-2.62074415017534E-15,19.5));
#582=CARTESIAN_POINT('Origin',(0.,0.,19.5));
#583=CARTESIAN_POINT('',(-21.4,-2.62074415017534E-15,2.));
#584=CARTESIAN_POINT('',(-21.4,-2.62074415017534E-15,0.));
#585=CARTESIAN_POINT('Origin',(0.,0.,2.));
#586=CARTESIAN_POINT('Origin',(0.,0.,0.));
#587=CARTESIAN_POINT('',(-22.5,-2.75545529808154E-15,19.5));
#588=CARTESIAN_POINT('Origin',(0.,0.,19.5));
#589=CARTESIAN_POINT('',(-22.5,-2.75545529808154E-15,0.));
#590=CARTESIAN_POINT('Origin',(0.,0.,19.5));
#591=CARTESIAN_POINT('Origin',(0.,0.,2.));
#592=UNCERTAINTY_MEASURE_WITH_UNIT(LENGTH_MEASURE(0.01),#596,
'DISTANCE_ACCURACY_VALUE',
'Maximum model space distance between geometric entities at asserted c
onnectivities');
#593=UNCERTAINTY_MEASURE_WITH_UNIT(LENGTH_MEASURE(0.01),#596,
'DISTANCE_ACCURACY_VALUE',
'Maximum model space distance between geometric entities at asserted c
onnectivities');
#594=(
GEOMETRIC_REPRESENTATION_CONTEXT(3)
GLOBAL_UNCERTAINTY_ASSIGNED_CONTEXT((#592))
GLOBAL_UNIT_ASSIGNED_CONTEXT((#596,#598,#599))
REPRESENTATION_CONTEXT('','3D')
);
#595=(
GEOMETRIC_REPRESENTATION_CONTEXT(3)
GLOBAL_UNCERTAINTY_ASSIGNED_CONTEXT((#593))
GLOBAL_UNIT_ASSIGNED_CONTEXT((#596,#598,#599))
REPRESENTATION_CONTEXT('','3D')
);
#596=(
LENGTH_UNIT()
NAMED_UNIT(*)
SI_UNIT(.MILLI.,.METRE.)
);
#597=(
LENGTH_UNIT()
NAMED_UNIT(*)
SI_UNIT($,.METRE.)
);
#598=(
NAMED_UNIT(*)
PLANE_ANGLE_UNIT()
SI_UNIT($,.RADIAN.)
);
#599=(
NAMED_UNIT(*)
SI_UNIT($,.STERADIAN.)
SOLID_ANGLE_UNIT()
);
#600=SHAPE_DEFINITION_REPRESENTATION(#601,#602);
#601=PRODUCT_DEFINITION_SHAPE('',$,#604);
#602=SHAPE_REPRESENTATION('',(#360),#594);
#603=PRODUCT_DEFINITION_CONTEXT('part definition',#608,'design');
#604=PRODUCT_DEFINITION('motor_joint_ipad','motor_joint_ipad v3',#605,#603);
#605=PRODUCT_DEFINITION_FORMATION('',$,#610);
#606=PRODUCT_RELATED_PRODUCT_CATEGORY('motor_joint_ipad v3',
'motor_joint_ipad v3',(#610));
#607=APPLICATION_PROTOCOL_DEFINITION('international standard',
'automotive_design',2009,#608);
#608=APPLICATION_CONTEXT(
'Core Data for Automotive Mechanical Design Process');
#609=PRODUCT_CONTEXT('part definition',#608,'mechanical');
#610=PRODUCT('motor_joint_ipad','motor_joint_ipad v3',$,(#609));
#611=PRESENTATION_STYLE_ASSIGNMENT((#612));
#612=SURFACE_STYLE_USAGE(.BOTH.,#613);
#613=SURFACE_SIDE_STYLE('',(#614));
#614=SURFACE_STYLE_FILL_AREA(#615);
#615=FILL_AREA_STYLE('\X2\92FC\X0\ - \X2\30B530C630F3\X0\',(#616));
#616=FILL_AREA_STYLE_COLOUR('\X2\92FC\X0\ - \X2\30B530C630F3\X0\',#617);
#617=COLOUR_RGB('\X2\92FC\X0\ - \X2\30B530C630F3\X0\',0.627450980392157,
0.627450980392157,0.627450980392157);
ENDSEC;
END-ISO-10303-21;
