ISO-10303-21;
HEADER;
/* Generated by software containing ST-Developer
 * from STEP Tools, Inc. (www.steptools.com) 
 */

FILE_DESCRIPTION(
/* description */ (''),
/* implementation_level */ '2;1');

FILE_NAME(
/* name */ 'motor_folder.step',
/* time_stamp */ '2026-05-11T03:35:04+09:00',
/* author */ (''),
/* organization */ (''),
/* preprocessor_version */ 'ST-DEVELOPER v20.1',
/* originating_system */ 'Autodesk Translation Framework v15.8.0.0',
/* authorisation */ '');

FILE_SCHEMA (('AUTOMOTIVE_DESIGN { 1 0 10303 214 3 1 1 }'));
ENDSEC;

DATA;
#10=MECHANICAL_DESIGN_GEOMETRIC_PRESENTATION_REPRESENTATION('',(#13),#824);
#11=SHAPE_REPRESENTATION_RELATIONSHIP('SRR','None',#831,#12);
#12=ADVANCED_BREP_SHAPE_REPRESENTATION('',(#14),#823);
#13=STYLED_ITEM('',(#840),#14);
#14=MANIFOLD_SOLID_BREP('\X2\30DC30C730A3\X0\1',#516);
#15=FACE_BOUND('',#64,.T.);
#16=FACE_BOUND('',#66,.T.);
#17=FACE_BOUND('',#68,.T.);
#18=FACE_BOUND('',#74,.T.);
#19=FACE_BOUND('',#77,.T.);
#20=FACE_BOUND('',#79,.T.);
#21=CIRCLE('',#538,3.);
#22=CIRCLE('',#539,3.);
#23=CYLINDRICAL_SURFACE('',#537,3.);
#24=FACE_OUTER_BOUND('',#49,.T.);
#25=FACE_OUTER_BOUND('',#50,.T.);
#26=FACE_OUTER_BOUND('',#51,.T.);
#27=FACE_OUTER_BOUND('',#52,.T.);
#28=FACE_OUTER_BOUND('',#53,.T.);
#29=FACE_OUTER_BOUND('',#54,.T.);
#30=FACE_OUTER_BOUND('',#55,.T.);
#31=FACE_OUTER_BOUND('',#56,.T.);
#32=FACE_OUTER_BOUND('',#57,.T.);
#33=FACE_OUTER_BOUND('',#58,.T.);
#34=FACE_OUTER_BOUND('',#59,.T.);
#35=FACE_OUTER_BOUND('',#60,.T.);
#36=FACE_OUTER_BOUND('',#61,.T.);
#37=FACE_OUTER_BOUND('',#62,.T.);
#38=FACE_OUTER_BOUND('',#63,.T.);
#39=FACE_OUTER_BOUND('',#65,.T.);
#40=FACE_OUTER_BOUND('',#67,.T.);
#41=FACE_OUTER_BOUND('',#69,.T.);
#42=FACE_OUTER_BOUND('',#70,.T.);
#43=FACE_OUTER_BOUND('',#71,.T.);
#44=FACE_OUTER_BOUND('',#72,.T.);
#45=FACE_OUTER_BOUND('',#73,.T.);
#46=FACE_OUTER_BOUND('',#75,.T.);
#47=FACE_OUTER_BOUND('',#76,.T.);
#48=FACE_OUTER_BOUND('',#78,.T.);
#49=EDGE_LOOP('',(#329,#330,#331,#332));
#50=EDGE_LOOP('',(#333,#334,#335,#336));
#51=EDGE_LOOP('',(#337,#338,#339,#340));
#52=EDGE_LOOP('',(#341,#342,#343,#344));
#53=EDGE_LOOP('',(#345,#346,#347,#348));
#54=EDGE_LOOP('',(#349,#350,#351,#352));
#55=EDGE_LOOP('',(#353,#354,#355,#356,#357,#358,#359,#360));
#56=EDGE_LOOP('',(#361,#362,#363,#364));
#57=EDGE_LOOP('',(#365,#366,#367,#368));
#58=EDGE_LOOP('',(#369,#370,#371,#372));
#59=EDGE_LOOP('',(#373,#374,#375,#376));
#60=EDGE_LOOP('',(#377,#378,#379,#380));
#61=EDGE_LOOP('',(#381,#382,#383,#384));
#62=EDGE_LOOP('',(#385,#386,#387,#388));
#63=EDGE_LOOP('',(#389,#390,#391,#392,#393,#394));
#64=EDGE_LOOP('',(#395));
#65=EDGE_LOOP('',(#396,#397,#398,#399));
#66=EDGE_LOOP('',(#400,#401,#402,#403,#404,#405));
#67=EDGE_LOOP('',(#406,#407,#408,#409,#410,#411,#412,#413,#414,#415,#416,
#417));
#68=EDGE_LOOP('',(#418));
#69=EDGE_LOOP('',(#419,#420,#421,#422));
#70=EDGE_LOOP('',(#423,#424,#425,#426));
#71=EDGE_LOOP('',(#427,#428,#429,#430,#431,#432,#433,#434));
#72=EDGE_LOOP('',(#435,#436,#437,#438));
#73=EDGE_LOOP('',(#439,#440,#441,#442));
#74=EDGE_LOOP('',(#443,#444,#445,#446));
#75=EDGE_LOOP('',(#447,#448,#449,#450));
#76=EDGE_LOOP('',(#451,#452,#453,#454));
#77=EDGE_LOOP('',(#455,#456,#457,#458));
#78=EDGE_LOOP('',(#459,#460,#461,#462));
#79=EDGE_LOOP('',(#463,#464,#465,#466));
#80=LINE('',#684,#147);
#81=LINE('',#686,#148);
#82=LINE('',#688,#149);
#83=LINE('',#689,#150);
#84=LINE('',#692,#151);
#85=LINE('',#694,#152);
#86=LINE('',#695,#153);
#87=LINE('',#698,#154);
#88=LINE('',#700,#155);
#89=LINE('',#701,#156);
#90=LINE('',#705,#157);
#91=LINE('',#707,#158);
#92=LINE('',#709,#159);
#93=LINE('',#710,#160);
#94=LINE('',#714,#161);
#95=LINE('',#716,#162);
#96=LINE('',#718,#163);
#97=LINE('',#719,#164);
#98=LINE('',#721,#165);
#99=LINE('',#722,#166);
#100=LINE('',#725,#167);
#101=LINE('',#727,#168);
#102=LINE('',#729,#169);
#103=LINE('',#731,#170);
#104=LINE('',#732,#171);
#105=LINE('',#737,#172);
#106=LINE('',#742,#173);
#107=LINE('',#744,#174);
#108=LINE('',#746,#175);
#109=LINE('',#747,#176);
#110=LINE('',#750,#177);
#111=LINE('',#752,#178);
#112=LINE('',#753,#179);
#113=LINE('',#756,#180);
#114=LINE('',#758,#181);
#115=LINE('',#759,#182);
#116=LINE('',#762,#183);
#117=LINE('',#764,#184);
#118=LINE('',#765,#185);
#119=LINE('',#768,#186);
#120=LINE('',#770,#187);
#121=LINE('',#771,#188);
#122=LINE('',#773,#189);
#123=LINE('',#774,#190);
#124=LINE('',#779,#191);
#125=LINE('',#781,#192);
#126=LINE('',#783,#193);
#127=LINE('',#784,#194);
#128=LINE('',#787,#195);
#129=LINE('',#788,#196);
#130=LINE('',#789,#197);
#131=LINE('',#791,#198);
#132=LINE('',#792,#199);
#133=LINE('',#793,#200);
#134=LINE('',#796,#201);
#135=LINE('',#797,#202);
#136=LINE('',#800,#203);
#137=LINE('',#801,#204);
#138=LINE('',#803,#205);
#139=LINE('',#806,#206);
#140=LINE('',#808,#207);
#141=LINE('',#809,#208);
#142=LINE('',#812,#209);
#143=LINE('',#813,#210);
#144=LINE('',#816,#211);
#145=LINE('',#817,#212);
#146=LINE('',#819,#213);
#147=VECTOR('',#561,10.);
#148=VECTOR('',#562,10.);
#149=VECTOR('',#563,10.);
#150=VECTOR('',#564,10.);
#151=VECTOR('',#567,10.);
#152=VECTOR('',#568,10.);
#153=VECTOR('',#569,10.);
#154=VECTOR('',#572,10.);
#155=VECTOR('',#573,10.);
#156=VECTOR('',#574,10.);
#157=VECTOR('',#577,10.);
#158=VECTOR('',#578,10.);
#159=VECTOR('',#579,10.);
#160=VECTOR('',#580,10.);
#161=VECTOR('',#583,10.);
#162=VECTOR('',#584,10.);
#163=VECTOR('',#585,10.);
#164=VECTOR('',#586,10.);
#165=VECTOR('',#589,10.);
#166=VECTOR('',#590,10.);
#167=VECTOR('',#593,10.);
#168=VECTOR('',#594,10.);
#169=VECTOR('',#595,10.);
#170=VECTOR('',#596,10.);
#171=VECTOR('',#597,10.);
#172=VECTOR('',#602,3.);
#173=VECTOR('',#607,10.);
#174=VECTOR('',#608,10.);
#175=VECTOR('',#609,10.);
#176=VECTOR('',#610,10.);
#177=VECTOR('',#613,10.);
#178=VECTOR('',#614,10.);
#179=VECTOR('',#615,10.);
#180=VECTOR('',#618,10.);
#181=VECTOR('',#619,10.);
#182=VECTOR('',#620,10.);
#183=VECTOR('',#623,10.);
#184=VECTOR('',#624,10.);
#185=VECTOR('',#625,10.);
#186=VECTOR('',#628,10.);
#187=VECTOR('',#629,10.);
#188=VECTOR('',#630,10.);
#189=VECTOR('',#633,10.);
#190=VECTOR('',#634,10.);
#191=VECTOR('',#639,10.);
#192=VECTOR('',#640,10.);
#193=VECTOR('',#641,10.);
#194=VECTOR('',#642,10.);
#195=VECTOR('',#645,10.);
#196=VECTOR('',#646,10.);
#197=VECTOR('',#647,10.);
#198=VECTOR('',#648,10.);
#199=VECTOR('',#649,10.);
#200=VECTOR('',#650,10.);
#201=VECTOR('',#653,10.);
#202=VECTOR('',#654,10.);
#203=VECTOR('',#657,10.);
#204=VECTOR('',#658,10.);
#205=VECTOR('',#661,10.);
#206=VECTOR('',#664,10.);
#207=VECTOR('',#665,10.);
#208=VECTOR('',#666,10.);
#209=VECTOR('',#669,10.);
#210=VECTOR('',#670,10.);
#211=VECTOR('',#673,10.);
#212=VECTOR('',#674,10.);
#213=VECTOR('',#677,10.);
#214=VERTEX_POINT('',#682);
#215=VERTEX_POINT('',#683);
#216=VERTEX_POINT('',#685);
#217=VERTEX_POINT('',#687);
#218=VERTEX_POINT('',#691);
#219=VERTEX_POINT('',#693);
#220=VERTEX_POINT('',#697);
#221=VERTEX_POINT('',#699);
#222=VERTEX_POINT('',#703);
#223=VERTEX_POINT('',#704);
#224=VERTEX_POINT('',#706);
#225=VERTEX_POINT('',#708);
#226=VERTEX_POINT('',#712);
#227=VERTEX_POINT('',#713);
#228=VERTEX_POINT('',#715);
#229=VERTEX_POINT('',#717);
#230=VERTEX_POINT('',#724);
#231=VERTEX_POINT('',#726);
#232=VERTEX_POINT('',#728);
#233=VERTEX_POINT('',#730);
#234=VERTEX_POINT('',#734);
#235=VERTEX_POINT('',#736);
#236=VERTEX_POINT('',#740);
#237=VERTEX_POINT('',#741);
#238=VERTEX_POINT('',#743);
#239=VERTEX_POINT('',#745);
#240=VERTEX_POINT('',#749);
#241=VERTEX_POINT('',#751);
#242=VERTEX_POINT('',#755);
#243=VERTEX_POINT('',#757);
#244=VERTEX_POINT('',#761);
#245=VERTEX_POINT('',#763);
#246=VERTEX_POINT('',#767);
#247=VERTEX_POINT('',#769);
#248=VERTEX_POINT('',#777);
#249=VERTEX_POINT('',#778);
#250=VERTEX_POINT('',#780);
#251=VERTEX_POINT('',#782);
#252=VERTEX_POINT('',#786);
#253=VERTEX_POINT('',#790);
#254=VERTEX_POINT('',#795);
#255=VERTEX_POINT('',#799);
#256=VERTEX_POINT('',#805);
#257=VERTEX_POINT('',#807);
#258=VERTEX_POINT('',#811);
#259=VERTEX_POINT('',#815);
#260=EDGE_CURVE('',#214,#215,#80,.T.);
#261=EDGE_CURVE('',#216,#214,#81,.T.);
#262=EDGE_CURVE('',#217,#216,#82,.T.);
#263=EDGE_CURVE('',#217,#215,#83,.T.);
#264=EDGE_CURVE('',#215,#218,#84,.T.);
#265=EDGE_CURVE('',#219,#217,#85,.T.);
#266=EDGE_CURVE('',#219,#218,#86,.T.);
#267=EDGE_CURVE('',#218,#220,#87,.T.);
#268=EDGE_CURVE('',#221,#219,#88,.T.);
#269=EDGE_CURVE('',#221,#220,#89,.T.);
#270=EDGE_CURVE('',#222,#223,#90,.T.);
#271=EDGE_CURVE('',#224,#222,#91,.T.);
#272=EDGE_CURVE('',#225,#224,#92,.T.);
#273=EDGE_CURVE('',#225,#223,#93,.T.);
#274=EDGE_CURVE('',#226,#227,#94,.T.);
#275=EDGE_CURVE('',#228,#226,#95,.T.);
#276=EDGE_CURVE('',#229,#228,#96,.T.);
#277=EDGE_CURVE('',#229,#227,#97,.T.);
#278=EDGE_CURVE('',#227,#222,#98,.T.);
#279=EDGE_CURVE('',#224,#229,#99,.T.);
#280=EDGE_CURVE('',#220,#230,#100,.T.);
#281=EDGE_CURVE('',#230,#231,#101,.T.);
#282=EDGE_CURVE('',#232,#231,#102,.T.);
#283=EDGE_CURVE('',#233,#232,#103,.T.);
#284=EDGE_CURVE('',#233,#214,#104,.T.);
#285=EDGE_CURVE('',#234,#234,#21,.T.);
#286=EDGE_CURVE('',#234,#235,#105,.T.);
#287=EDGE_CURVE('',#235,#235,#22,.T.);
#288=EDGE_CURVE('',#236,#237,#106,.T.);
#289=EDGE_CURVE('',#236,#238,#107,.T.);
#290=EDGE_CURVE('',#239,#238,#108,.T.);
#291=EDGE_CURVE('',#237,#239,#109,.T.);
#292=EDGE_CURVE('',#237,#240,#110,.T.);
#293=EDGE_CURVE('',#241,#239,#111,.T.);
#294=EDGE_CURVE('',#240,#241,#112,.T.);
#295=EDGE_CURVE('',#240,#242,#113,.T.);
#296=EDGE_CURVE('',#243,#241,#114,.T.);
#297=EDGE_CURVE('',#242,#243,#115,.T.);
#298=EDGE_CURVE('',#242,#244,#116,.T.);
#299=EDGE_CURVE('',#245,#243,#117,.T.);
#300=EDGE_CURVE('',#244,#245,#118,.T.);
#301=EDGE_CURVE('',#244,#246,#119,.T.);
#302=EDGE_CURVE('',#247,#245,#120,.T.);
#303=EDGE_CURVE('',#246,#247,#121,.T.);
#304=EDGE_CURVE('',#246,#236,#122,.T.);
#305=EDGE_CURVE('',#238,#247,#123,.T.);
#306=EDGE_CURVE('',#248,#249,#124,.T.);
#307=EDGE_CURVE('',#250,#248,#125,.T.);
#308=EDGE_CURVE('',#251,#250,#126,.T.);
#309=EDGE_CURVE('',#249,#251,#127,.T.);
#310=EDGE_CURVE('',#252,#233,#128,.T.);
#311=EDGE_CURVE('',#228,#252,#129,.T.);
#312=EDGE_CURVE('',#223,#226,#130,.T.);
#313=EDGE_CURVE('',#253,#225,#131,.T.);
#314=EDGE_CURVE('',#230,#253,#132,.T.);
#315=EDGE_CURVE('',#216,#221,#133,.T.);
#316=EDGE_CURVE('',#253,#254,#134,.T.);
#317=EDGE_CURVE('',#231,#254,#135,.T.);
#318=EDGE_CURVE('',#255,#232,#136,.T.);
#319=EDGE_CURVE('',#252,#255,#137,.T.);
#320=EDGE_CURVE('',#254,#255,#138,.T.);
#321=EDGE_CURVE('',#248,#256,#139,.T.);
#322=EDGE_CURVE('',#257,#256,#140,.T.);
#323=EDGE_CURVE('',#250,#257,#141,.T.);
#324=EDGE_CURVE('',#258,#257,#142,.T.);
#325=EDGE_CURVE('',#251,#258,#143,.T.);
#326=EDGE_CURVE('',#259,#258,#144,.T.);
#327=EDGE_CURVE('',#249,#259,#145,.T.);
#328=EDGE_CURVE('',#256,#259,#146,.T.);
#329=ORIENTED_EDGE('',*,*,#260,.F.);
#330=ORIENTED_EDGE('',*,*,#261,.F.);
#331=ORIENTED_EDGE('',*,*,#262,.F.);
#332=ORIENTED_EDGE('',*,*,#263,.T.);
#333=ORIENTED_EDGE('',*,*,#264,.F.);
#334=ORIENTED_EDGE('',*,*,#263,.F.);
#335=ORIENTED_EDGE('',*,*,#265,.F.);
#336=ORIENTED_EDGE('',*,*,#266,.T.);
#337=ORIENTED_EDGE('',*,*,#267,.F.);
#338=ORIENTED_EDGE('',*,*,#266,.F.);
#339=ORIENTED_EDGE('',*,*,#268,.F.);
#340=ORIENTED_EDGE('',*,*,#269,.T.);
#341=ORIENTED_EDGE('',*,*,#270,.F.);
#342=ORIENTED_EDGE('',*,*,#271,.F.);
#343=ORIENTED_EDGE('',*,*,#272,.F.);
#344=ORIENTED_EDGE('',*,*,#273,.T.);
#345=ORIENTED_EDGE('',*,*,#274,.F.);
#346=ORIENTED_EDGE('',*,*,#275,.F.);
#347=ORIENTED_EDGE('',*,*,#276,.F.);
#348=ORIENTED_EDGE('',*,*,#277,.T.);
#349=ORIENTED_EDGE('',*,*,#278,.F.);
#350=ORIENTED_EDGE('',*,*,#277,.F.);
#351=ORIENTED_EDGE('',*,*,#279,.F.);
#352=ORIENTED_EDGE('',*,*,#271,.T.);
#353=ORIENTED_EDGE('',*,*,#260,.T.);
#354=ORIENTED_EDGE('',*,*,#264,.T.);
#355=ORIENTED_EDGE('',*,*,#267,.T.);
#356=ORIENTED_EDGE('',*,*,#280,.T.);
#357=ORIENTED_EDGE('',*,*,#281,.T.);
#358=ORIENTED_EDGE('',*,*,#282,.F.);
#359=ORIENTED_EDGE('',*,*,#283,.F.);
#360=ORIENTED_EDGE('',*,*,#284,.T.);
#361=ORIENTED_EDGE('',*,*,#285,.F.);
#362=ORIENTED_EDGE('',*,*,#286,.T.);
#363=ORIENTED_EDGE('',*,*,#287,.F.);
#364=ORIENTED_EDGE('',*,*,#286,.F.);
#365=ORIENTED_EDGE('',*,*,#288,.F.);
#366=ORIENTED_EDGE('',*,*,#289,.T.);
#367=ORIENTED_EDGE('',*,*,#290,.F.);
#368=ORIENTED_EDGE('',*,*,#291,.F.);
#369=ORIENTED_EDGE('',*,*,#292,.F.);
#370=ORIENTED_EDGE('',*,*,#291,.T.);
#371=ORIENTED_EDGE('',*,*,#293,.F.);
#372=ORIENTED_EDGE('',*,*,#294,.F.);
#373=ORIENTED_EDGE('',*,*,#295,.F.);
#374=ORIENTED_EDGE('',*,*,#294,.T.);
#375=ORIENTED_EDGE('',*,*,#296,.F.);
#376=ORIENTED_EDGE('',*,*,#297,.F.);
#377=ORIENTED_EDGE('',*,*,#298,.F.);
#378=ORIENTED_EDGE('',*,*,#297,.T.);
#379=ORIENTED_EDGE('',*,*,#299,.F.);
#380=ORIENTED_EDGE('',*,*,#300,.F.);
#381=ORIENTED_EDGE('',*,*,#301,.F.);
#382=ORIENTED_EDGE('',*,*,#300,.T.);
#383=ORIENTED_EDGE('',*,*,#302,.F.);
#384=ORIENTED_EDGE('',*,*,#303,.F.);
#385=ORIENTED_EDGE('',*,*,#304,.F.);
#386=ORIENTED_EDGE('',*,*,#303,.T.);
#387=ORIENTED_EDGE('',*,*,#305,.F.);
#388=ORIENTED_EDGE('',*,*,#289,.F.);
#389=ORIENTED_EDGE('',*,*,#305,.T.);
#390=ORIENTED_EDGE('',*,*,#302,.T.);
#391=ORIENTED_EDGE('',*,*,#299,.T.);
#392=ORIENTED_EDGE('',*,*,#296,.T.);
#393=ORIENTED_EDGE('',*,*,#293,.T.);
#394=ORIENTED_EDGE('',*,*,#290,.T.);
#395=ORIENTED_EDGE('',*,*,#285,.T.);
#396=ORIENTED_EDGE('',*,*,#306,.F.);
#397=ORIENTED_EDGE('',*,*,#307,.F.);
#398=ORIENTED_EDGE('',*,*,#308,.F.);
#399=ORIENTED_EDGE('',*,*,#309,.F.);
#400=ORIENTED_EDGE('',*,*,#288,.T.);
#401=ORIENTED_EDGE('',*,*,#292,.T.);
#402=ORIENTED_EDGE('',*,*,#295,.T.);
#403=ORIENTED_EDGE('',*,*,#298,.T.);
#404=ORIENTED_EDGE('',*,*,#301,.T.);
#405=ORIENTED_EDGE('',*,*,#304,.T.);
#406=ORIENTED_EDGE('',*,*,#284,.F.);
#407=ORIENTED_EDGE('',*,*,#310,.F.);
#408=ORIENTED_EDGE('',*,*,#311,.F.);
#409=ORIENTED_EDGE('',*,*,#275,.T.);
#410=ORIENTED_EDGE('',*,*,#312,.F.);
#411=ORIENTED_EDGE('',*,*,#273,.F.);
#412=ORIENTED_EDGE('',*,*,#313,.F.);
#413=ORIENTED_EDGE('',*,*,#314,.F.);
#414=ORIENTED_EDGE('',*,*,#280,.F.);
#415=ORIENTED_EDGE('',*,*,#269,.F.);
#416=ORIENTED_EDGE('',*,*,#315,.F.);
#417=ORIENTED_EDGE('',*,*,#261,.T.);
#418=ORIENTED_EDGE('',*,*,#287,.T.);
#419=ORIENTED_EDGE('',*,*,#314,.T.);
#420=ORIENTED_EDGE('',*,*,#316,.T.);
#421=ORIENTED_EDGE('',*,*,#317,.F.);
#422=ORIENTED_EDGE('',*,*,#281,.F.);
#423=ORIENTED_EDGE('',*,*,#310,.T.);
#424=ORIENTED_EDGE('',*,*,#283,.T.);
#425=ORIENTED_EDGE('',*,*,#318,.F.);
#426=ORIENTED_EDGE('',*,*,#319,.F.);
#427=ORIENTED_EDGE('',*,*,#276,.T.);
#428=ORIENTED_EDGE('',*,*,#311,.T.);
#429=ORIENTED_EDGE('',*,*,#319,.T.);
#430=ORIENTED_EDGE('',*,*,#320,.F.);
#431=ORIENTED_EDGE('',*,*,#316,.F.);
#432=ORIENTED_EDGE('',*,*,#313,.T.);
#433=ORIENTED_EDGE('',*,*,#272,.T.);
#434=ORIENTED_EDGE('',*,*,#279,.T.);
#435=ORIENTED_EDGE('',*,*,#307,.T.);
#436=ORIENTED_EDGE('',*,*,#321,.T.);
#437=ORIENTED_EDGE('',*,*,#322,.F.);
#438=ORIENTED_EDGE('',*,*,#323,.F.);
#439=ORIENTED_EDGE('',*,*,#308,.T.);
#440=ORIENTED_EDGE('',*,*,#323,.T.);
#441=ORIENTED_EDGE('',*,*,#324,.F.);
#442=ORIENTED_EDGE('',*,*,#325,.F.);
#443=ORIENTED_EDGE('',*,*,#274,.T.);
#444=ORIENTED_EDGE('',*,*,#278,.T.);
#445=ORIENTED_EDGE('',*,*,#270,.T.);
#446=ORIENTED_EDGE('',*,*,#312,.T.);
#447=ORIENTED_EDGE('',*,*,#309,.T.);
#448=ORIENTED_EDGE('',*,*,#325,.T.);
#449=ORIENTED_EDGE('',*,*,#326,.F.);
#450=ORIENTED_EDGE('',*,*,#327,.F.);
#451=ORIENTED_EDGE('',*,*,#306,.T.);
#452=ORIENTED_EDGE('',*,*,#327,.T.);
#453=ORIENTED_EDGE('',*,*,#328,.F.);
#454=ORIENTED_EDGE('',*,*,#321,.F.);
#455=ORIENTED_EDGE('',*,*,#262,.T.);
#456=ORIENTED_EDGE('',*,*,#315,.T.);
#457=ORIENTED_EDGE('',*,*,#268,.T.);
#458=ORIENTED_EDGE('',*,*,#265,.T.);
#459=ORIENTED_EDGE('',*,*,#328,.T.);
#460=ORIENTED_EDGE('',*,*,#326,.T.);
#461=ORIENTED_EDGE('',*,*,#324,.T.);
#462=ORIENTED_EDGE('',*,*,#322,.T.);
#463=ORIENTED_EDGE('',*,*,#320,.T.);
#464=ORIENTED_EDGE('',*,*,#318,.T.);
#465=ORIENTED_EDGE('',*,*,#282,.T.);
#466=ORIENTED_EDGE('',*,*,#317,.T.);
#467=PLANE('',#530);
#468=PLANE('',#531);
#469=PLANE('',#532);
#470=PLANE('',#533);
#471=PLANE('',#534);
#472=PLANE('',#535);
#473=PLANE('',#536);
#474=PLANE('',#540);
#475=PLANE('',#541);
#476=PLANE('',#542);
#477=PLANE('',#543);
#478=PLANE('',#544);
#479=PLANE('',#545);
#480=PLANE('',#546);
#481=PLANE('',#547);
#482=PLANE('',#548);
#483=PLANE('',#549);
#484=PLANE('',#550);
#485=PLANE('',#551);
#486=PLANE('',#552);
#487=PLANE('',#553);
#488=PLANE('',#554);
#489=PLANE('',#555);
#490=PLANE('',#556);
#491=ADVANCED_FACE('',(#24),#467,.F.);
#492=ADVANCED_FACE('',(#25),#468,.F.);
#493=ADVANCED_FACE('',(#26),#469,.F.);
#494=ADVANCED_FACE('',(#27),#470,.F.);
#495=ADVANCED_FACE('',(#28),#471,.F.);
#496=ADVANCED_FACE('',(#29),#472,.F.);
#497=ADVANCED_FACE('',(#30),#473,.T.);
#498=ADVANCED_FACE('',(#31),#23,.F.);
#499=ADVANCED_FACE('',(#32),#474,.T.);
#500=ADVANCED_FACE('',(#33),#475,.T.);
#501=ADVANCED_FACE('',(#34),#476,.T.);
#502=ADVANCED_FACE('',(#35),#477,.T.);
#503=ADVANCED_FACE('',(#36),#478,.T.);
#504=ADVANCED_FACE('',(#37),#479,.T.);
#505=ADVANCED_FACE('',(#38,#15),#480,.F.);
#506=ADVANCED_FACE('',(#39,#16),#481,.F.);
#507=ADVANCED_FACE('',(#40,#17),#482,.T.);
#508=ADVANCED_FACE('',(#41),#483,.T.);
#509=ADVANCED_FACE('',(#42),#484,.T.);
#510=ADVANCED_FACE('',(#43),#485,.T.);
#511=ADVANCED_FACE('',(#44),#486,.T.);
#512=ADVANCED_FACE('',(#45,#18),#487,.T.);
#513=ADVANCED_FACE('',(#46),#488,.T.);
#514=ADVANCED_FACE('',(#47,#19),#489,.T.);
#515=ADVANCED_FACE('',(#48,#20),#490,.T.);
#516=CLOSED_SHELL('',(#491,#492,#493,#494,#495,#496,#497,#498,#499,#500,
#501,#502,#503,#504,#505,#506,#507,#508,#509,#510,#511,#512,#513,#514,#515));
#517=DERIVED_UNIT_ELEMENT(#519,1.);
#518=DERIVED_UNIT_ELEMENT(#826,-3.);
#519=(
MASS_UNIT()
NAMED_UNIT(*)
SI_UNIT(.KILO.,.GRAM.)
);
#520=DERIVED_UNIT((#517,#518));
#521=MEASURE_REPRESENTATION_ITEM('density measure',
POSITIVE_RATIO_MEASURE(7850.),#520);
#522=PROPERTY_DEFINITION_REPRESENTATION(#527,#524);
#523=PROPERTY_DEFINITION_REPRESENTATION(#528,#525);
#524=REPRESENTATION('material name',(#526),#823);
#525=REPRESENTATION('density',(#521),#823);
#526=DESCRIPTIVE_REPRESENTATION_ITEM('\X2\92FC\X0\','\X2\92FC\X0\');
#527=PROPERTY_DEFINITION('material property','material name',#833);
#528=PROPERTY_DEFINITION('material property','density of part',#833);
#529=AXIS2_PLACEMENT_3D('',#680,#557,#558);
#530=AXIS2_PLACEMENT_3D('',#681,#559,#560);
#531=AXIS2_PLACEMENT_3D('',#690,#565,#566);
#532=AXIS2_PLACEMENT_3D('',#696,#570,#571);
#533=AXIS2_PLACEMENT_3D('',#702,#575,#576);
#534=AXIS2_PLACEMENT_3D('',#711,#581,#582);
#535=AXIS2_PLACEMENT_3D('',#720,#587,#588);
#536=AXIS2_PLACEMENT_3D('',#723,#591,#592);
#537=AXIS2_PLACEMENT_3D('',#733,#598,#599);
#538=AXIS2_PLACEMENT_3D('',#735,#600,#601);
#539=AXIS2_PLACEMENT_3D('',#738,#603,#604);
#540=AXIS2_PLACEMENT_3D('',#739,#605,#606);
#541=AXIS2_PLACEMENT_3D('',#748,#611,#612);
#542=AXIS2_PLACEMENT_3D('',#754,#616,#617);
#543=AXIS2_PLACEMENT_3D('',#760,#621,#622);
#544=AXIS2_PLACEMENT_3D('',#766,#626,#627);
#545=AXIS2_PLACEMENT_3D('',#772,#631,#632);
#546=AXIS2_PLACEMENT_3D('',#775,#635,#636);
#547=AXIS2_PLACEMENT_3D('',#776,#637,#638);
#548=AXIS2_PLACEMENT_3D('',#785,#643,#644);
#549=AXIS2_PLACEMENT_3D('',#794,#651,#652);
#550=AXIS2_PLACEMENT_3D('',#798,#655,#656);
#551=AXIS2_PLACEMENT_3D('',#802,#659,#660);
#552=AXIS2_PLACEMENT_3D('',#804,#662,#663);
#553=AXIS2_PLACEMENT_3D('',#810,#667,#668);
#554=AXIS2_PLACEMENT_3D('',#814,#671,#672);
#555=AXIS2_PLACEMENT_3D('',#818,#675,#676);
#556=AXIS2_PLACEMENT_3D('',#820,#678,#679);
#557=DIRECTION('axis',(0.,0.,1.));
#558=DIRECTION('refdir',(1.,0.,0.));
#559=DIRECTION('center_axis',(0.,-1.,0.));
#560=DIRECTION('ref_axis',(0.,0.,-1.));
#561=DIRECTION('',(0.,0.,1.));
#562=DIRECTION('',(1.,0.,0.));
#563=DIRECTION('',(0.,0.,-1.));
#564=DIRECTION('',(1.,0.,0.));
#565=DIRECTION('center_axis',(0.,0.,1.));
#566=DIRECTION('ref_axis',(0.,-1.,0.));
#567=DIRECTION('',(1.10745438865352E-16,1.,0.));
#568=DIRECTION('',(0.,-1.,0.));
#569=DIRECTION('',(1.,0.,0.));
#570=DIRECTION('center_axis',(0.,1.,0.));
#571=DIRECTION('ref_axis',(0.,0.,1.));
#572=DIRECTION('',(0.,0.,-1.));
#573=DIRECTION('',(0.,0.,1.));
#574=DIRECTION('',(1.,0.,0.));
#575=DIRECTION('center_axis',(0.,1.,0.));
#576=DIRECTION('ref_axis',(0.,0.,1.));
#577=DIRECTION('',(0.,0.,-1.));
#578=DIRECTION('',(1.,0.,0.));
#579=DIRECTION('',(0.,0.,1.));
#580=DIRECTION('',(1.,0.,0.));
#581=DIRECTION('center_axis',(0.,-1.,0.));
#582=DIRECTION('ref_axis',(0.,0.,-1.));
#583=DIRECTION('',(0.,0.,1.));
#584=DIRECTION('',(1.,0.,0.));
#585=DIRECTION('',(0.,0.,-1.));
#586=DIRECTION('',(1.,0.,0.));
#587=DIRECTION('center_axis',(0.,0.,1.));
#588=DIRECTION('ref_axis',(0.,-1.,0.));
#589=DIRECTION('',(0.,1.,0.));
#590=DIRECTION('',(0.,-1.,0.));
#591=DIRECTION('center_axis',(1.,-1.10745438865352E-16,0.));
#592=DIRECTION('ref_axis',(1.10745438865352E-16,1.,0.));
#593=DIRECTION('',(1.10745438865352E-16,1.,0.));
#594=DIRECTION('',(0.,0.,1.));
#595=DIRECTION('',(1.10745438865352E-16,1.,0.));
#596=DIRECTION('',(0.,0.,1.));
#597=DIRECTION('',(1.10745438865352E-16,1.,0.));
#598=DIRECTION('center_axis',(0.,0.,-1.));
#599=DIRECTION('ref_axis',(1.,0.,0.));
#600=DIRECTION('center_axis',(0.,0.,1.));
#601=DIRECTION('ref_axis',(1.,0.,0.));
#602=DIRECTION('',(0.,0.,1.));
#603=DIRECTION('center_axis',(0.,0.,-1.));
#604=DIRECTION('ref_axis',(1.,0.,0.));
#605=DIRECTION('center_axis',(0.5,-0.866025403784439,0.));
#606=DIRECTION('ref_axis',(-0.866025403784439,-0.5,0.));
#607=DIRECTION('',(0.866025403784439,0.5,0.));
#608=DIRECTION('',(0.,0.,-1.));
#609=DIRECTION('',(-0.866025403784439,-0.5,0.));
#610=DIRECTION('',(0.,0.,-1.));
#611=DIRECTION('center_axis',(1.,-1.38777876010193E-16,0.));
#612=DIRECTION('ref_axis',(-1.38777876010193E-16,-1.,0.));
#613=DIRECTION('',(1.38777876010193E-16,1.,0.));
#614=DIRECTION('',(-1.38777876010193E-16,-1.,0.));
#615=DIRECTION('',(0.,0.,-1.));
#616=DIRECTION('center_axis',(0.5,0.866025403784438,0.));
#617=DIRECTION('ref_axis',(0.866025403784439,-0.5,0.));
#618=DIRECTION('',(-0.866025403784438,0.5,0.));
#619=DIRECTION('',(0.866025403784439,-0.5,0.));
#620=DIRECTION('',(0.,0.,-1.));
#621=DIRECTION('center_axis',(-0.5,0.866025403784439,0.));
#622=DIRECTION('ref_axis',(0.866025403784439,0.5,0.));
#623=DIRECTION('',(-0.866025403784439,-0.5,0.));
#624=DIRECTION('',(0.866025403784439,0.5,0.));
#625=DIRECTION('',(0.,0.,-1.));
#626=DIRECTION('center_axis',(-1.,5.55111504040772E-16,0.));
#627=DIRECTION('ref_axis',(5.55111504040772E-16,1.,0.));
#628=DIRECTION('',(-5.55111504040772E-16,-1.,0.));
#629=DIRECTION('',(5.55111504040772E-16,1.,0.));
#630=DIRECTION('',(0.,0.,-1.));
#631=DIRECTION('center_axis',(-0.5,-0.866025403784439,0.));
#632=DIRECTION('ref_axis',(-0.866025403784439,0.5,0.));
#633=DIRECTION('',(0.866025403784439,-0.5,0.));
#634=DIRECTION('',(-0.866025403784438,0.5,0.));
#635=DIRECTION('center_axis',(0.,0.,1.));
#636=DIRECTION('ref_axis',(1.,0.,0.));
#637=DIRECTION('center_axis',(0.,0.,1.));
#638=DIRECTION('ref_axis',(1.,0.,0.));
#639=DIRECTION('',(0.,-1.,0.));
#640=DIRECTION('',(-1.,0.,0.));
#641=DIRECTION('',(0.,1.,0.));
#642=DIRECTION('',(1.,0.,0.));
#643=DIRECTION('center_axis',(0.,0.,1.));
#644=DIRECTION('ref_axis',(1.,0.,0.));
#645=DIRECTION('',(-1.,-1.10745438865352E-16,0.));
#646=DIRECTION('',(0.,-1.,0.));
#647=DIRECTION('',(0.,-1.,0.));
#648=DIRECTION('',(0.,-1.,0.));
#649=DIRECTION('',(1.,1.10745438865352E-16,0.));
#650=DIRECTION('',(0.,1.,0.));
#651=DIRECTION('center_axis',(1.10745438865352E-16,-1.,0.));
#652=DIRECTION('ref_axis',(1.,1.10745438865352E-16,0.));
#653=DIRECTION('',(0.,0.,1.));
#654=DIRECTION('',(1.,1.10745438865352E-16,0.));
#655=DIRECTION('center_axis',(-1.10745438865352E-16,1.,0.));
#656=DIRECTION('ref_axis',(-1.,-1.10745438865352E-16,0.));
#657=DIRECTION('',(-1.,-1.10745438865352E-16,0.));
#658=DIRECTION('',(0.,0.,1.));
#659=DIRECTION('center_axis',(-1.,0.,0.));
#660=DIRECTION('ref_axis',(0.,-1.,0.));
#661=DIRECTION('',(0.,-1.,0.));
#662=DIRECTION('center_axis',(0.,1.,0.));
#663=DIRECTION('ref_axis',(-1.,0.,0.));
#664=DIRECTION('',(0.,0.,1.));
#665=DIRECTION('',(-1.,0.,0.));
#666=DIRECTION('',(0.,0.,1.));
#667=DIRECTION('center_axis',(1.,0.,0.));
#668=DIRECTION('ref_axis',(0.,1.,0.));
#669=DIRECTION('',(0.,1.,0.));
#670=DIRECTION('',(0.,0.,1.));
#671=DIRECTION('center_axis',(0.,-1.,0.));
#672=DIRECTION('ref_axis',(1.,0.,0.));
#673=DIRECTION('',(1.,0.,0.));
#674=DIRECTION('',(0.,0.,1.));
#675=DIRECTION('center_axis',(-1.,0.,0.));
#676=DIRECTION('ref_axis',(0.,-1.,0.));
#677=DIRECTION('',(0.,-1.,0.));
#678=DIRECTION('center_axis',(0.,0.,1.));
#679=DIRECTION('ref_axis',(1.,0.,0.));
#680=CARTESIAN_POINT('',(0.,0.,0.));
#681=CARTESIAN_POINT('Origin',(-22.,-5.6,10.));
#682=CARTESIAN_POINT('',(-20.05,-5.6,2.));
#683=CARTESIAN_POINT('',(-20.05,-5.6,10.));
#684=CARTESIAN_POINT('',(-20.05,-5.6,5.));
#685=CARTESIAN_POINT('',(-22.,-5.6,2.));
#686=CARTESIAN_POINT('',(-22.,-5.6,2.));
#687=CARTESIAN_POINT('',(-22.,-5.6,10.));
#688=CARTESIAN_POINT('',(-22.,-5.6,5.));
#689=CARTESIAN_POINT('',(-22.,-5.6,10.));
#690=CARTESIAN_POINT('Origin',(-22.,5.6,10.));
#691=CARTESIAN_POINT('',(-20.05,5.6,10.));
#692=CARTESIAN_POINT('',(-20.05,-7.22500000000001,10.));
#693=CARTESIAN_POINT('',(-22.,5.6,10.));
#694=CARTESIAN_POINT('',(-22.,13.8,10.));
#695=CARTESIAN_POINT('',(-22.,5.6,10.));
#696=CARTESIAN_POINT('Origin',(-22.,5.6,2.));
#697=CARTESIAN_POINT('',(-20.05,5.6,2.));
#698=CARTESIAN_POINT('',(-20.05,5.6,1.));
#699=CARTESIAN_POINT('',(-22.,5.6,2.));
#700=CARTESIAN_POINT('',(-22.,5.6,1.));
#701=CARTESIAN_POINT('',(-22.,5.6,2.));
#702=CARTESIAN_POINT('Origin',(-22.,5.6,2.));
#703=CARTESIAN_POINT('',(22.,5.6,10.));
#704=CARTESIAN_POINT('',(22.,5.6,2.));
#705=CARTESIAN_POINT('',(22.,5.6,1.));
#706=CARTESIAN_POINT('',(20.05,5.6,10.));
#707=CARTESIAN_POINT('',(-22.,5.6,10.));
#708=CARTESIAN_POINT('',(20.05,5.6,2.));
#709=CARTESIAN_POINT('',(20.05,5.6,1.));
#710=CARTESIAN_POINT('',(-22.,5.6,2.));
#711=CARTESIAN_POINT('Origin',(-22.,-5.6,10.));
#712=CARTESIAN_POINT('',(22.,-5.6,2.));
#713=CARTESIAN_POINT('',(22.,-5.6,10.));
#714=CARTESIAN_POINT('',(22.,-5.6,5.));
#715=CARTESIAN_POINT('',(20.05,-5.6,2.));
#716=CARTESIAN_POINT('',(-22.,-5.6,2.));
#717=CARTESIAN_POINT('',(20.05,-5.6,10.));
#718=CARTESIAN_POINT('',(20.05,-5.6,5.));
#719=CARTESIAN_POINT('',(-22.,-5.6,10.));
#720=CARTESIAN_POINT('Origin',(-22.,5.6,10.));
#721=CARTESIAN_POINT('',(22.,-8.2,10.));
#722=CARTESIAN_POINT('',(20.05,12.825,10.));
#723=CARTESIAN_POINT('Origin',(-20.05,-20.05,0.));
#724=CARTESIAN_POINT('',(-20.05,20.05,2.));
#725=CARTESIAN_POINT('',(-20.05,-10.025,2.));
#726=CARTESIAN_POINT('',(-20.05,20.05,17.));
#727=CARTESIAN_POINT('',(-20.05,20.05,0.));
#728=CARTESIAN_POINT('',(-20.05,-20.05,17.));
#729=CARTESIAN_POINT('',(-20.05,20.05,17.));
#730=CARTESIAN_POINT('',(-20.05,-20.05,2.));
#731=CARTESIAN_POINT('',(-20.05,-20.05,0.));
#732=CARTESIAN_POINT('',(-20.05,-10.025,2.));
#733=CARTESIAN_POINT('Origin',(0.,0.,0.));
#734=CARTESIAN_POINT('',(-3.,-3.67394039744206E-16,-5.98));
#735=CARTESIAN_POINT('Origin',(0.,0.,-5.98));
#736=CARTESIAN_POINT('',(-3.,3.67394039744206E-16,2.));
#737=CARTESIAN_POINT('',(-3.,3.67394039744206E-16,0.));
#738=CARTESIAN_POINT('Origin',(0.,0.,2.));
#739=CARTESIAN_POINT('Origin',(13.8564066670276,-8.00000011920929,0.));
#740=CARTESIAN_POINT('',(0.,-16.0000002384186,0.));
#741=CARTESIAN_POINT('',(13.8564066670276,-8.00000011920929,0.));
#742=CARTESIAN_POINT('',(10.3923050002707,-10.0000001490116,0.));
#743=CARTESIAN_POINT('',(0.,-16.0000002384186,-5.98));
#744=CARTESIAN_POINT('',(0.,-16.0000002384186,0.));
#745=CARTESIAN_POINT('',(13.8564066670276,-8.00000011920929,-5.98));
#746=CARTESIAN_POINT('',(0.,-16.0000002384186,-5.98));
#747=CARTESIAN_POINT('',(13.8564066670276,-8.00000011920929,0.));
#748=CARTESIAN_POINT('Origin',(13.8564066670276,8.00000011920929,0.));
#749=CARTESIAN_POINT('',(13.8564066670276,8.00000011920929,0.));
#750=CARTESIAN_POINT('',(13.8564066670276,4.00000005960464,0.));
#751=CARTESIAN_POINT('',(13.8564066670276,8.00000011920929,-5.98));
#752=CARTESIAN_POINT('',(13.8564066670276,-8.00000011920929,-5.98));
#753=CARTESIAN_POINT('',(13.8564066670276,8.00000011920929,0.));
#754=CARTESIAN_POINT('Origin',(4.44089209850063E-15,16.0000002384186,0.));
#755=CARTESIAN_POINT('',(5.55111512312578E-15,16.0000002384186,0.));
#756=CARTESIAN_POINT('',(3.46410166675689,14.0000002086163,0.));
#757=CARTESIAN_POINT('',(5.55111512312578E-15,16.0000002384186,-5.98));
#758=CARTESIAN_POINT('',(13.8564066670276,8.00000011920929,-5.98));
#759=CARTESIAN_POINT('',(5.55111512312578E-15,16.0000002384186,0.));
#760=CARTESIAN_POINT('Origin',(-13.8564066670276,8.0000001192093,0.));
#761=CARTESIAN_POINT('',(-13.8564066670276,8.0000001192093,0.));
#762=CARTESIAN_POINT('',(-10.3923050002707,10.0000001490116,0.));
#763=CARTESIAN_POINT('',(-13.8564066670276,8.0000001192093,-5.98));
#764=CARTESIAN_POINT('',(5.55111512312578E-15,16.0000002384186,-5.98));
#765=CARTESIAN_POINT('',(-13.8564066670276,8.0000001192093,0.));
#766=CARTESIAN_POINT('Origin',(-13.8564066670276,-8.00000011920928,0.));
#767=CARTESIAN_POINT('',(-13.8564066670276,-8.00000011920928,0.));
#768=CARTESIAN_POINT('',(-13.8564066670276,-4.00000005960463,0.));
#769=CARTESIAN_POINT('',(-13.8564066670276,-8.00000011920928,-5.98));
#770=CARTESIAN_POINT('',(-13.8564066670276,8.0000001192093,-5.98));
#771=CARTESIAN_POINT('',(-13.8564066670276,-8.00000011920928,0.));
#772=CARTESIAN_POINT('Origin',(0.,-16.0000002384186,0.));
#773=CARTESIAN_POINT('',(-3.4641016667569,-14.0000002086163,0.));
#774=CARTESIAN_POINT('',(-13.8564066670276,-8.00000011920928,-5.98));
#775=CARTESIAN_POINT('Origin',(-2.22044604925031E-15,0.,-5.98));
#776=CARTESIAN_POINT('Origin',(-4.44089209850063E-15,4.44089209850063E-15,
0.));
#777=CARTESIAN_POINT('',(-22.,22.,0.));
#778=CARTESIAN_POINT('',(-22.,-22.,0.));
#779=CARTESIAN_POINT('',(-22.,22.,0.));
#780=CARTESIAN_POINT('',(22.,22.,0.));
#781=CARTESIAN_POINT('',(22.,22.,0.));
#782=CARTESIAN_POINT('',(22.,-22.,0.));
#783=CARTESIAN_POINT('',(22.,-22.,0.));
#784=CARTESIAN_POINT('',(-22.,-22.,0.));
#785=CARTESIAN_POINT('Origin',(0.,-4.44089209850063E-15,2.));
#786=CARTESIAN_POINT('',(20.05,-20.05,2.));
#787=CARTESIAN_POINT('',(10.025,-20.05,2.));
#788=CARTESIAN_POINT('',(20.05,10.025,2.));
#789=CARTESIAN_POINT('',(22.,-13.8,2.));
#790=CARTESIAN_POINT('',(20.05,20.05,2.));
#791=CARTESIAN_POINT('',(20.05,10.025,2.));
#792=CARTESIAN_POINT('',(-10.025,20.05,2.));
#793=CARTESIAN_POINT('',(-22.,8.2,2.));
#794=CARTESIAN_POINT('Origin',(-20.05,20.05,0.));
#795=CARTESIAN_POINT('',(20.05,20.05,17.));
#796=CARTESIAN_POINT('',(20.05,20.05,0.));
#797=CARTESIAN_POINT('',(20.05,20.05,17.));
#798=CARTESIAN_POINT('Origin',(20.05,-20.05,0.));
#799=CARTESIAN_POINT('',(20.05,-20.05,17.));
#800=CARTESIAN_POINT('',(-20.05,-20.05,17.));
#801=CARTESIAN_POINT('',(20.05,-20.05,0.));
#802=CARTESIAN_POINT('Origin',(20.05,20.05,0.));
#803=CARTESIAN_POINT('',(20.05,-20.05,17.));
#804=CARTESIAN_POINT('Origin',(22.,22.,0.));
#805=CARTESIAN_POINT('',(-22.,22.,17.));
#806=CARTESIAN_POINT('',(-22.,22.,0.));
#807=CARTESIAN_POINT('',(22.,22.,17.));
#808=CARTESIAN_POINT('',(22.,22.,17.));
#809=CARTESIAN_POINT('',(22.,22.,0.));
#810=CARTESIAN_POINT('Origin',(22.,-22.,0.));
#811=CARTESIAN_POINT('',(22.,-22.,17.));
#812=CARTESIAN_POINT('',(22.,-22.,17.));
#813=CARTESIAN_POINT('',(22.,-22.,0.));
#814=CARTESIAN_POINT('Origin',(-22.,-22.,0.));
#815=CARTESIAN_POINT('',(-22.,-22.,17.));
#816=CARTESIAN_POINT('',(-22.,-22.,17.));
#817=CARTESIAN_POINT('',(-22.,-22.,0.));
#818=CARTESIAN_POINT('Origin',(-22.,22.,0.));
#819=CARTESIAN_POINT('',(-22.,22.,17.));
#820=CARTESIAN_POINT('Origin',(-4.44089209850063E-15,4.44089209850063E-15,
17.));
#821=UNCERTAINTY_MEASURE_WITH_UNIT(LENGTH_MEASURE(0.01),#825,
'DISTANCE_ACCURACY_VALUE',
'Maximum model space distance between geometric entities at asserted c
onnectivities');
#822=UNCERTAINTY_MEASURE_WITH_UNIT(LENGTH_MEASURE(0.01),#825,
'DISTANCE_ACCURACY_VALUE',
'Maximum model space distance between geometric entities at asserted c
onnectivities');
#823=(
GEOMETRIC_REPRESENTATION_CONTEXT(3)
GLOBAL_UNCERTAINTY_ASSIGNED_CONTEXT((#821))
GLOBAL_UNIT_ASSIGNED_CONTEXT((#825,#827,#828))
REPRESENTATION_CONTEXT('','3D')
);
#824=(
GEOMETRIC_REPRESENTATION_CONTEXT(3)
GLOBAL_UNCERTAINTY_ASSIGNED_CONTEXT((#822))
GLOBAL_UNIT_ASSIGNED_CONTEXT((#825,#827,#828))
REPRESENTATION_CONTEXT('','3D')
);
#825=(
LENGTH_UNIT()
NAMED_UNIT(*)
SI_UNIT(.MILLI.,.METRE.)
);
#826=(
LENGTH_UNIT()
NAMED_UNIT(*)
SI_UNIT($,.METRE.)
);
#827=(
NAMED_UNIT(*)
PLANE_ANGLE_UNIT()
SI_UNIT($,.RADIAN.)
);
#828=(
NAMED_UNIT(*)
SI_UNIT($,.STERADIAN.)
SOLID_ANGLE_UNIT()
);
#829=SHAPE_DEFINITION_REPRESENTATION(#830,#831);
#830=PRODUCT_DEFINITION_SHAPE('',$,#833);
#831=SHAPE_REPRESENTATION('',(#529),#823);
#832=PRODUCT_DEFINITION_CONTEXT('part definition',#837,'design');
#833=PRODUCT_DEFINITION('motor_folder','motor_folder v5',#834,#832);
#834=PRODUCT_DEFINITION_FORMATION('',$,#839);
#835=PRODUCT_RELATED_PRODUCT_CATEGORY('motor_folder v5',
'motor_folder v5',(#839));
#836=APPLICATION_PROTOCOL_DEFINITION('international standard',
'automotive_design',2009,#837);
#837=APPLICATION_CONTEXT(
'Core Data for Automotive Mechanical Design Process');
#838=PRODUCT_CONTEXT('part definition',#837,'mechanical');
#839=PRODUCT('motor_folder','motor_folder v5',$,(#838));
#840=PRESENTATION_STYLE_ASSIGNMENT((#841));
#841=SURFACE_STYLE_USAGE(.BOTH.,#842);
#842=SURFACE_SIDE_STYLE('',(#843));
#843=SURFACE_STYLE_FILL_AREA(#844);
#844=FILL_AREA_STYLE('\X2\92FC\X0\ - \X2\30B530C630F3\X0\',(#845));
#845=FILL_AREA_STYLE_COLOUR('\X2\92FC\X0\ - \X2\30B530C630F3\X0\',#846);
#846=COLOUR_RGB('\X2\92FC\X0\ - \X2\30B530C630F3\X0\',0.627450980392157,
0.627450980392157,0.627450980392157);
ENDSEC;
END-ISO-10303-21;
