ISO-10303-21;
HEADER;
/* Generated by software containing ST-Developer
 * from STEP Tools, Inc. (www.steptools.com) 
 */

FILE_DESCRIPTION(
/* description */ (''),
/* implementation_level */ '2;1');

FILE_NAME(
/* name */ 'moton_ctrl_motor.step',
/* time_stamp */ '2026-05-10T12:52:52+09:00',
/* author */ (''),
/* organization */ (''),
/* preprocessor_version */ 'ST-DEVELOPER v20.1',
/* originating_system */ 'Autodesk Translation Framework v15.8.0.0',
/* authorisation */ '');

FILE_SCHEMA (('AUTOMOTIVE_DESIGN { 1 0 10303 214 3 1 1 }'));
ENDSEC;

DATA;
#10=MECHANICAL_DESIGN_GEOMETRIC_PRESENTATION_REPRESENTATION('',(#13),#1384);
#11=SHAPE_REPRESENTATION_RELATIONSHIP('SRR','None',#1391,#12);
#12=ADVANCED_BREP_SHAPE_REPRESENTATION('',(#14),#1383);
#13=STYLED_ITEM('',(#1400),#14);
#14=MANIFOLD_SOLID_BREP('\X2\30DC30C730A3\X0\1',#860);
#15=FACE_BOUND('',#89,.T.);
#16=FACE_BOUND('',#93,.T.);
#17=FACE_BOUND('',#101,.T.);
#18=FACE_BOUND('',#119,.T.);
#19=CYLINDRICAL_SURFACE('',#886,24.);
#20=CYLINDRICAL_SURFACE('',#910,2.55);
#21=CYLINDRICAL_SURFACE('',#920,12.5);
#22=CYLINDRICAL_SURFACE('',#921,12.5);
#23=CIRCLE('',#877,12.5);
#24=CIRCLE('',#878,12.5);
#25=CIRCLE('',#887,24.);
#26=CIRCLE('',#888,24.);
#27=CIRCLE('',#891,12.5);
#28=CIRCLE('',#892,12.5);
#29=CIRCLE('',#905,2.55);
#30=CIRCLE('',#911,2.55);
#31=FACE_OUTER_BOUND('',#74,.T.);
#32=FACE_OUTER_BOUND('',#75,.T.);
#33=FACE_OUTER_BOUND('',#76,.T.);
#34=FACE_OUTER_BOUND('',#77,.T.);
#35=FACE_OUTER_BOUND('',#78,.T.);
#36=FACE_OUTER_BOUND('',#79,.T.);
#37=FACE_OUTER_BOUND('',#80,.T.);
#38=FACE_OUTER_BOUND('',#81,.T.);
#39=FACE_OUTER_BOUND('',#82,.T.);
#40=FACE_OUTER_BOUND('',#83,.T.);
#41=FACE_OUTER_BOUND('',#84,.T.);
#42=FACE_OUTER_BOUND('',#85,.T.);
#43=FACE_OUTER_BOUND('',#86,.T.);
#44=FACE_OUTER_BOUND('',#87,.T.);
#45=FACE_OUTER_BOUND('',#88,.T.);
#46=FACE_OUTER_BOUND('',#90,.T.);
#47=FACE_OUTER_BOUND('',#91,.T.);
#48=FACE_OUTER_BOUND('',#92,.T.);
#49=FACE_OUTER_BOUND('',#94,.T.);
#50=FACE_OUTER_BOUND('',#95,.T.);
#51=FACE_OUTER_BOUND('',#96,.T.);
#52=FACE_OUTER_BOUND('',#97,.T.);
#53=FACE_OUTER_BOUND('',#98,.T.);
#54=FACE_OUTER_BOUND('',#99,.T.);
#55=FACE_OUTER_BOUND('',#100,.T.);
#56=FACE_OUTER_BOUND('',#102,.T.);
#57=FACE_OUTER_BOUND('',#103,.T.);
#58=FACE_OUTER_BOUND('',#104,.T.);
#59=FACE_OUTER_BOUND('',#105,.T.);
#60=FACE_OUTER_BOUND('',#106,.T.);
#61=FACE_OUTER_BOUND('',#107,.T.);
#62=FACE_OUTER_BOUND('',#108,.T.);
#63=FACE_OUTER_BOUND('',#109,.T.);
#64=FACE_OUTER_BOUND('',#110,.T.);
#65=FACE_OUTER_BOUND('',#111,.T.);
#66=FACE_OUTER_BOUND('',#112,.T.);
#67=FACE_OUTER_BOUND('',#113,.T.);
#68=FACE_OUTER_BOUND('',#114,.T.);
#69=FACE_OUTER_BOUND('',#115,.T.);
#70=FACE_OUTER_BOUND('',#116,.T.);
#71=FACE_OUTER_BOUND('',#117,.T.);
#72=FACE_OUTER_BOUND('',#118,.T.);
#73=FACE_OUTER_BOUND('',#120,.T.);
#74=EDGE_LOOP('',(#540,#541,#542,#543));
#75=EDGE_LOOP('',(#544,#545,#546,#547));
#76=EDGE_LOOP('',(#548,#549,#550,#551,#552,#553,#554,#555,#556,#557,#558,
#559,#560,#561,#562,#563,#564,#565,#566,#567,#568,#569));
#77=EDGE_LOOP('',(#570,#571,#572,#573));
#78=EDGE_LOOP('',(#574,#575,#576,#577));
#79=EDGE_LOOP('',(#578,#579,#580,#581,#582,#583));
#80=EDGE_LOOP('',(#584,#585,#586,#587));
#81=EDGE_LOOP('',(#588,#589,#590,#591,#592,#593));
#82=EDGE_LOOP('',(#594,#595,#596,#597));
#83=EDGE_LOOP('',(#598,#599,#600,#601));
#84=EDGE_LOOP('',(#602,#603,#604,#605));
#85=EDGE_LOOP('',(#606,#607,#608,#609,#610));
#86=EDGE_LOOP('',(#611,#612,#613,#614,#615,#616,#617,#618,#619,#620,#621,
#622,#623,#624,#625,#626,#627,#628,#629,#630,#631,#632,#633,#634));
#87=EDGE_LOOP('',(#635,#636,#637,#638));
#88=EDGE_LOOP('',(#639,#640,#641,#642,#643,#644));
#89=EDGE_LOOP('',(#645,#646,#647,#648));
#90=EDGE_LOOP('',(#649,#650,#651,#652));
#91=EDGE_LOOP('',(#653,#654,#655,#656));
#92=EDGE_LOOP('',(#657,#658,#659,#660));
#93=EDGE_LOOP('',(#661,#662,#663,#664));
#94=EDGE_LOOP('',(#665,#666,#667,#668));
#95=EDGE_LOOP('',(#669,#670,#671,#672));
#96=EDGE_LOOP('',(#673,#674,#675,#676,#677,#678,#679,#680));
#97=EDGE_LOOP('',(#681,#682,#683,#684));
#98=EDGE_LOOP('',(#685,#686,#687,#688));
#99=EDGE_LOOP('',(#689,#690,#691,#692));
#100=EDGE_LOOP('',(#693,#694,#695,#696));
#101=EDGE_LOOP('',(#697));
#102=EDGE_LOOP('',(#698,#699,#700,#701,#702,#703,#704,#705));
#103=EDGE_LOOP('',(#706,#707,#708,#709));
#104=EDGE_LOOP('',(#710,#711,#712,#713));
#105=EDGE_LOOP('',(#714,#715,#716,#717));
#106=EDGE_LOOP('',(#718,#719,#720,#721));
#107=EDGE_LOOP('',(#722,#723,#724,#725));
#108=EDGE_LOOP('',(#726,#727,#728,#729));
#109=EDGE_LOOP('',(#730,#731,#732,#733));
#110=EDGE_LOOP('',(#734,#735,#736,#737));
#111=EDGE_LOOP('',(#738,#739,#740,#741,#742,#743));
#112=EDGE_LOOP('',(#744,#745,#746,#747));
#113=EDGE_LOOP('',(#748,#749,#750,#751));
#114=EDGE_LOOP('',(#752,#753,#754,#755));
#115=EDGE_LOOP('',(#756,#757,#758,#759));
#116=EDGE_LOOP('',(#760,#761,#762,#763));
#117=EDGE_LOOP('',(#764,#765,#766,#767));
#118=EDGE_LOOP('',(#768,#769,#770,#771));
#119=EDGE_LOOP('',(#772));
#120=EDGE_LOOP('',(#773,#774,#775,#776,#777));
#121=LINE('',#1144,#232);
#122=LINE('',#1146,#233);
#123=LINE('',#1148,#234);
#124=LINE('',#1149,#235);
#125=LINE('',#1153,#236);
#126=LINE('',#1155,#237);
#127=LINE('',#1157,#238);
#128=LINE('',#1158,#239);
#129=LINE('',#1161,#240);
#130=LINE('',#1165,#241);
#131=LINE('',#1167,#242);
#132=LINE('',#1169,#243);
#133=LINE('',#1171,#244);
#134=LINE('',#1173,#245);
#135=LINE('',#1175,#246);
#136=LINE('',#1177,#247);
#137=LINE('',#1179,#248);
#138=LINE('',#1181,#249);
#139=LINE('',#1183,#250);
#140=LINE('',#1185,#251);
#141=LINE('',#1187,#252);
#142=LINE('',#1189,#253);
#143=LINE('',#1191,#254);
#144=LINE('',#1193,#255);
#145=LINE('',#1195,#256);
#146=LINE('',#1197,#257);
#147=LINE('',#1200,#258);
#148=LINE('',#1203,#259);
#149=LINE('',#1204,#260);
#150=LINE('',#1207,#261);
#151=LINE('',#1208,#262);
#152=LINE('',#1209,#263);
#153=LINE('',#1212,#264);
#154=LINE('',#1214,#265);
#155=LINE('',#1216,#266);
#156=LINE('',#1217,#267);
#157=LINE('',#1221,#268);
#158=LINE('',#1223,#269);
#159=LINE('',#1225,#270);
#160=LINE('',#1226,#271);
#161=LINE('',#1228,#272);
#162=LINE('',#1230,#273);
#163=LINE('',#1232,#274);
#164=LINE('',#1233,#275);
#165=LINE('',#1236,#276);
#166=LINE('',#1237,#277);
#167=LINE('',#1240,#278);
#168=LINE('',#1241,#279);
#169=LINE('',#1246,#280);
#170=LINE('',#1249,#281);
#171=LINE('',#1251,#282);
#172=LINE('',#1252,#283);
#173=LINE('',#1255,#284);
#174=LINE('',#1258,#285);
#175=LINE('',#1260,#286);
#176=LINE('',#1262,#287);
#177=LINE('',#1263,#288);
#178=LINE('',#1265,#289);
#179=LINE('',#1267,#290);
#180=LINE('',#1269,#291);
#181=LINE('',#1271,#292);
#182=LINE('',#1273,#293);
#183=LINE('',#1275,#294);
#184=LINE('',#1277,#295);
#185=LINE('',#1279,#296);
#186=LINE('',#1281,#297);
#187=LINE('',#1283,#298);
#188=LINE('',#1286,#299);
#189=LINE('',#1289,#300);
#190=LINE('',#1291,#301);
#191=LINE('',#1292,#302);
#192=LINE('',#1295,#303);
#193=LINE('',#1297,#304);
#194=LINE('',#1299,#305);
#195=LINE('',#1300,#306);
#196=LINE('',#1303,#307);
#197=LINE('',#1305,#308);
#198=LINE('',#1306,#309);
#199=LINE('',#1309,#310);
#200=LINE('',#1310,#311);
#201=LINE('',#1312,#312);
#202=LINE('',#1315,#313);
#203=LINE('',#1317,#314);
#204=LINE('',#1319,#315);
#205=LINE('',#1320,#316);
#206=LINE('',#1324,#317);
#207=LINE('',#1325,#318);
#208=LINE('',#1326,#319);
#209=LINE('',#1329,#320);
#210=LINE('',#1330,#321);
#211=LINE('',#1333,#322);
#212=LINE('',#1334,#323);
#213=LINE('',#1336,#324);
#214=LINE('',#1337,#325);
#215=LINE('',#1339,#326);
#216=LINE('',#1340,#327);
#217=LINE('',#1342,#328);
#218=LINE('',#1344,#329);
#219=LINE('',#1346,#330);
#220=LINE('',#1350,#331);
#221=LINE('',#1351,#332);
#222=LINE('',#1355,#333);
#223=LINE('',#1359,#334);
#224=LINE('',#1361,#335);
#225=LINE('',#1365,#336);
#226=LINE('',#1367,#337);
#227=LINE('',#1369,#338);
#228=LINE('',#1371,#339);
#229=LINE('',#1374,#340);
#230=LINE('',#1376,#341);
#231=LINE('',#1378,#342);
#232=VECTOR('',#929,10.);
#233=VECTOR('',#930,10.);
#234=VECTOR('',#931,10.);
#235=VECTOR('',#932,10.);
#236=VECTOR('',#935,10.);
#237=VECTOR('',#936,10.);
#238=VECTOR('',#937,10.);
#239=VECTOR('',#938,10.);
#240=VECTOR('',#941,10.);
#241=VECTOR('',#944,10.);
#242=VECTOR('',#945,10.);
#243=VECTOR('',#946,10.);
#244=VECTOR('',#947,10.);
#245=VECTOR('',#948,10.);
#246=VECTOR('',#949,10.);
#247=VECTOR('',#950,10.);
#248=VECTOR('',#951,10.);
#249=VECTOR('',#952,10.);
#250=VECTOR('',#953,10.);
#251=VECTOR('',#954,10.);
#252=VECTOR('',#955,10.);
#253=VECTOR('',#956,10.);
#254=VECTOR('',#957,10.);
#255=VECTOR('',#958,10.);
#256=VECTOR('',#959,10.);
#257=VECTOR('',#960,10.);
#258=VECTOR('',#963,10.);
#259=VECTOR('',#966,10.);
#260=VECTOR('',#967,10.);
#261=VECTOR('',#970,10.);
#262=VECTOR('',#971,10.);
#263=VECTOR('',#972,10.);
#264=VECTOR('',#975,10.);
#265=VECTOR('',#976,10.);
#266=VECTOR('',#977,10.);
#267=VECTOR('',#978,10.);
#268=VECTOR('',#981,10.);
#269=VECTOR('',#982,10.);
#270=VECTOR('',#983,10.);
#271=VECTOR('',#984,10.);
#272=VECTOR('',#987,10.);
#273=VECTOR('',#988,10.);
#274=VECTOR('',#989,10.);
#275=VECTOR('',#990,10.);
#276=VECTOR('',#993,10.);
#277=VECTOR('',#994,10.);
#278=VECTOR('',#997,10.);
#279=VECTOR('',#998,10.);
#280=VECTOR('',#1003,10.);
#281=VECTOR('',#1008,10.);
#282=VECTOR('',#1009,10.);
#283=VECTOR('',#1010,10.);
#284=VECTOR('',#1013,10.);
#285=VECTOR('',#1016,10.);
#286=VECTOR('',#1017,10.);
#287=VECTOR('',#1018,10.);
#288=VECTOR('',#1019,10.);
#289=VECTOR('',#1020,10.);
#290=VECTOR('',#1021,10.);
#291=VECTOR('',#1022,10.);
#292=VECTOR('',#1023,10.);
#293=VECTOR('',#1024,10.);
#294=VECTOR('',#1025,10.);
#295=VECTOR('',#1026,10.);
#296=VECTOR('',#1027,10.);
#297=VECTOR('',#1028,10.);
#298=VECTOR('',#1029,10.);
#299=VECTOR('',#1034,10.);
#300=VECTOR('',#1037,10.);
#301=VECTOR('',#1038,10.);
#302=VECTOR('',#1039,10.);
#303=VECTOR('',#1040,10.);
#304=VECTOR('',#1041,10.);
#305=VECTOR('',#1042,10.);
#306=VECTOR('',#1043,10.);
#307=VECTOR('',#1046,10.);
#308=VECTOR('',#1047,10.);
#309=VECTOR('',#1048,10.);
#310=VECTOR('',#1051,10.);
#311=VECTOR('',#1052,10.);
#312=VECTOR('',#1055,10.);
#313=VECTOR('',#1056,10.);
#314=VECTOR('',#1057,10.);
#315=VECTOR('',#1058,10.);
#316=VECTOR('',#1059,10.);
#317=VECTOR('',#1062,10.);
#318=VECTOR('',#1063,10.);
#319=VECTOR('',#1064,10.);
#320=VECTOR('',#1067,10.);
#321=VECTOR('',#1068,10.);
#322=VECTOR('',#1071,10.);
#323=VECTOR('',#1072,10.);
#324=VECTOR('',#1073,10.);
#325=VECTOR('',#1074,10.);
#326=VECTOR('',#1077,10.);
#327=VECTOR('',#1078,10.);
#328=VECTOR('',#1081,10.);
#329=VECTOR('',#1084,10.);
#330=VECTOR('',#1087,10.);
#331=VECTOR('',#1092,10.);
#332=VECTOR('',#1093,10.);
#333=VECTOR('',#1100,10.);
#334=VECTOR('',#1105,2.55);
#335=VECTOR('',#1108,10.);
#336=VECTOR('',#1115,10.);
#337=VECTOR('',#1118,10.);
#338=VECTOR('',#1121,10.);
#339=VECTOR('',#1124,10.);
#340=VECTOR('',#1129,10.);
#341=VECTOR('',#1132,10.);
#342=VECTOR('',#1135,10.);
#343=VERTEX_POINT('',#1142);
#344=VERTEX_POINT('',#1143);
#345=VERTEX_POINT('',#1145);
#346=VERTEX_POINT('',#1147);
#347=VERTEX_POINT('',#1151);
#348=VERTEX_POINT('',#1152);
#349=VERTEX_POINT('',#1154);
#350=VERTEX_POINT('',#1156);
#351=VERTEX_POINT('',#1160);
#352=VERTEX_POINT('',#1162);
#353=VERTEX_POINT('',#1164);
#354=VERTEX_POINT('',#1166);
#355=VERTEX_POINT('',#1168);
#356=VERTEX_POINT('',#1170);
#357=VERTEX_POINT('',#1172);
#358=VERTEX_POINT('',#1174);
#359=VERTEX_POINT('',#1176);
#360=VERTEX_POINT('',#1178);
#361=VERTEX_POINT('',#1180);
#362=VERTEX_POINT('',#1182);
#363=VERTEX_POINT('',#1184);
#364=VERTEX_POINT('',#1186);
#365=VERTEX_POINT('',#1188);
#366=VERTEX_POINT('',#1190);
#367=VERTEX_POINT('',#1192);
#368=VERTEX_POINT('',#1194);
#369=VERTEX_POINT('',#1196);
#370=VERTEX_POINT('',#1198);
#371=VERTEX_POINT('',#1202);
#372=VERTEX_POINT('',#1206);
#373=VERTEX_POINT('',#1211);
#374=VERTEX_POINT('',#1213);
#375=VERTEX_POINT('',#1215);
#376=VERTEX_POINT('',#1219);
#377=VERTEX_POINT('',#1220);
#378=VERTEX_POINT('',#1222);
#379=VERTEX_POINT('',#1224);
#380=VERTEX_POINT('',#1229);
#381=VERTEX_POINT('',#1231);
#382=VERTEX_POINT('',#1235);
#383=VERTEX_POINT('',#1239);
#384=VERTEX_POINT('',#1243);
#385=VERTEX_POINT('',#1245);
#386=VERTEX_POINT('',#1250);
#387=VERTEX_POINT('',#1254);
#388=VERTEX_POINT('',#1256);
#389=VERTEX_POINT('',#1259);
#390=VERTEX_POINT('',#1261);
#391=VERTEX_POINT('',#1264);
#392=VERTEX_POINT('',#1266);
#393=VERTEX_POINT('',#1268);
#394=VERTEX_POINT('',#1270);
#395=VERTEX_POINT('',#1272);
#396=VERTEX_POINT('',#1274);
#397=VERTEX_POINT('',#1276);
#398=VERTEX_POINT('',#1278);
#399=VERTEX_POINT('',#1280);
#400=VERTEX_POINT('',#1282);
#401=VERTEX_POINT('',#1288);
#402=VERTEX_POINT('',#1290);
#403=VERTEX_POINT('',#1293);
#404=VERTEX_POINT('',#1294);
#405=VERTEX_POINT('',#1296);
#406=VERTEX_POINT('',#1298);
#407=VERTEX_POINT('',#1302);
#408=VERTEX_POINT('',#1304);
#409=VERTEX_POINT('',#1308);
#410=VERTEX_POINT('',#1313);
#411=VERTEX_POINT('',#1314);
#412=VERTEX_POINT('',#1316);
#413=VERTEX_POINT('',#1318);
#414=VERTEX_POINT('',#1322);
#415=VERTEX_POINT('',#1323);
#416=VERTEX_POINT('',#1328);
#417=VERTEX_POINT('',#1332);
#418=VERTEX_POINT('',#1335);
#419=VERTEX_POINT('',#1347);
#420=VERTEX_POINT('',#1357);
#421=EDGE_CURVE('',#343,#344,#121,.T.);
#422=EDGE_CURVE('',#345,#343,#122,.T.);
#423=EDGE_CURVE('',#346,#345,#123,.T.);
#424=EDGE_CURVE('',#344,#346,#124,.T.);
#425=EDGE_CURVE('',#347,#348,#125,.T.);
#426=EDGE_CURVE('',#349,#347,#126,.T.);
#427=EDGE_CURVE('',#350,#349,#127,.T.);
#428=EDGE_CURVE('',#348,#350,#128,.T.);
#429=EDGE_CURVE('',#351,#344,#129,.T.);
#430=EDGE_CURVE('',#351,#352,#23,.T.);
#431=EDGE_CURVE('',#352,#353,#130,.T.);
#432=EDGE_CURVE('',#353,#354,#131,.T.);
#433=EDGE_CURVE('',#354,#355,#132,.T.);
#434=EDGE_CURVE('',#355,#356,#133,.T.);
#435=EDGE_CURVE('',#356,#357,#134,.T.);
#436=EDGE_CURVE('',#357,#358,#135,.T.);
#437=EDGE_CURVE('',#358,#359,#136,.T.);
#438=EDGE_CURVE('',#359,#360,#137,.T.);
#439=EDGE_CURVE('',#360,#361,#138,.T.);
#440=EDGE_CURVE('',#361,#362,#139,.T.);
#441=EDGE_CURVE('',#362,#363,#140,.T.);
#442=EDGE_CURVE('',#363,#364,#141,.T.);
#443=EDGE_CURVE('',#364,#365,#142,.T.);
#444=EDGE_CURVE('',#365,#366,#143,.T.);
#445=EDGE_CURVE('',#366,#367,#144,.T.);
#446=EDGE_CURVE('',#367,#368,#145,.T.);
#447=EDGE_CURVE('',#369,#368,#146,.T.);
#448=EDGE_CURVE('',#369,#370,#24,.T.);
#449=EDGE_CURVE('',#370,#343,#147,.T.);
#450=EDGE_CURVE('',#371,#346,#148,.T.);
#451=EDGE_CURVE('',#351,#371,#149,.T.);
#452=EDGE_CURVE('',#372,#350,#150,.T.);
#453=EDGE_CURVE('',#372,#368,#151,.T.);
#454=EDGE_CURVE('',#368,#348,#152,.T.);
#455=EDGE_CURVE('',#373,#349,#153,.T.);
#456=EDGE_CURVE('',#373,#374,#154,.T.);
#457=EDGE_CURVE('',#374,#375,#155,.T.);
#458=EDGE_CURVE('',#372,#375,#156,.T.);
#459=EDGE_CURVE('',#376,#377,#157,.T.);
#460=EDGE_CURVE('',#378,#376,#158,.T.);
#461=EDGE_CURVE('',#379,#378,#159,.T.);
#462=EDGE_CURVE('',#377,#379,#160,.T.);
#463=EDGE_CURVE('',#362,#376,#161,.T.);
#464=EDGE_CURVE('',#380,#377,#162,.T.);
#465=EDGE_CURVE('',#381,#380,#163,.T.);
#466=EDGE_CURVE('',#363,#381,#164,.T.);
#467=EDGE_CURVE('',#382,#379,#165,.T.);
#468=EDGE_CURVE('',#380,#382,#166,.T.);
#469=EDGE_CURVE('',#378,#383,#167,.T.);
#470=EDGE_CURVE('',#382,#383,#168,.T.);
#471=EDGE_CURVE('',#375,#384,#25,.T.);
#472=EDGE_CURVE('',#384,#385,#169,.T.);
#473=EDGE_CURVE('',#385,#372,#26,.T.);
#474=EDGE_CURVE('',#367,#375,#170,.T.);
#475=EDGE_CURVE('',#386,#366,#171,.T.);
#476=EDGE_CURVE('',#384,#386,#172,.T.);
#477=EDGE_CURVE('',#345,#387,#173,.T.);
#478=EDGE_CURVE('',#387,#388,#27,.T.);
#479=EDGE_CURVE('',#388,#385,#174,.T.);
#480=EDGE_CURVE('',#386,#389,#175,.T.);
#481=EDGE_CURVE('',#389,#390,#176,.T.);
#482=EDGE_CURVE('',#390,#381,#177,.T.);
#483=EDGE_CURVE('',#383,#391,#178,.T.);
#484=EDGE_CURVE('',#391,#392,#179,.T.);
#485=EDGE_CURVE('',#392,#393,#180,.T.);
#486=EDGE_CURVE('',#393,#394,#181,.T.);
#487=EDGE_CURVE('',#394,#395,#182,.T.);
#488=EDGE_CURVE('',#395,#396,#183,.T.);
#489=EDGE_CURVE('',#396,#397,#184,.T.);
#490=EDGE_CURVE('',#397,#398,#185,.T.);
#491=EDGE_CURVE('',#398,#399,#186,.T.);
#492=EDGE_CURVE('',#399,#400,#187,.T.);
#493=EDGE_CURVE('',#400,#371,#28,.T.);
#494=EDGE_CURVE('',#387,#370,#188,.T.);
#495=EDGE_CURVE('',#401,#367,#189,.T.);
#496=EDGE_CURVE('',#402,#401,#190,.T.);
#497=EDGE_CURVE('',#347,#402,#191,.T.);
#498=EDGE_CURVE('',#403,#404,#192,.T.);
#499=EDGE_CURVE('',#405,#403,#193,.T.);
#500=EDGE_CURVE('',#406,#405,#194,.T.);
#501=EDGE_CURVE('',#404,#406,#195,.T.);
#502=EDGE_CURVE('',#407,#403,#196,.T.);
#503=EDGE_CURVE('',#407,#408,#197,.T.);
#504=EDGE_CURVE('',#405,#408,#198,.T.);
#505=EDGE_CURVE('',#404,#409,#199,.T.);
#506=EDGE_CURVE('',#409,#407,#200,.T.);
#507=EDGE_CURVE('',#402,#373,#201,.T.);
#508=EDGE_CURVE('',#410,#411,#202,.T.);
#509=EDGE_CURVE('',#411,#412,#203,.T.);
#510=EDGE_CURVE('',#412,#413,#204,.T.);
#511=EDGE_CURVE('',#410,#413,#205,.T.);
#512=EDGE_CURVE('',#414,#415,#206,.T.);
#513=EDGE_CURVE('',#410,#415,#207,.T.);
#514=EDGE_CURVE('',#414,#413,#208,.T.);
#515=EDGE_CURVE('',#415,#416,#209,.T.);
#516=EDGE_CURVE('',#416,#411,#210,.T.);
#517=EDGE_CURVE('',#417,#409,#211,.T.);
#518=EDGE_CURVE('',#412,#417,#212,.T.);
#519=EDGE_CURVE('',#418,#416,#213,.T.);
#520=EDGE_CURVE('',#408,#418,#214,.T.);
#521=EDGE_CURVE('',#396,#356,#215,.T.);
#522=EDGE_CURVE('',#357,#395,#216,.T.);
#523=EDGE_CURVE('',#364,#390,#217,.T.);
#524=EDGE_CURVE('',#397,#355,#218,.T.);
#525=EDGE_CURVE('',#358,#394,#219,.T.);
#526=EDGE_CURVE('',#419,#419,#29,.T.);
#527=EDGE_CURVE('',#418,#406,#220,.T.);
#528=EDGE_CURVE('',#417,#414,#221,.T.);
#529=EDGE_CURVE('',#401,#374,#222,.T.);
#530=EDGE_CURVE('',#420,#420,#30,.T.);
#531=EDGE_CURVE('',#420,#419,#223,.T.);
#532=EDGE_CURVE('',#389,#365,#224,.T.);
#533=EDGE_CURVE('',#398,#354,#225,.T.);
#534=EDGE_CURVE('',#361,#391,#226,.T.);
#535=EDGE_CURVE('',#360,#392,#227,.T.);
#536=EDGE_CURVE('',#393,#359,#228,.T.);
#537=EDGE_CURVE('',#352,#400,#229,.T.);
#538=EDGE_CURVE('',#388,#369,#230,.T.);
#539=EDGE_CURVE('',#399,#353,#231,.T.);
#540=ORIENTED_EDGE('',*,*,#421,.F.);
#541=ORIENTED_EDGE('',*,*,#422,.F.);
#542=ORIENTED_EDGE('',*,*,#423,.F.);
#543=ORIENTED_EDGE('',*,*,#424,.F.);
#544=ORIENTED_EDGE('',*,*,#425,.F.);
#545=ORIENTED_EDGE('',*,*,#426,.F.);
#546=ORIENTED_EDGE('',*,*,#427,.F.);
#547=ORIENTED_EDGE('',*,*,#428,.F.);
#548=ORIENTED_EDGE('',*,*,#421,.T.);
#549=ORIENTED_EDGE('',*,*,#429,.F.);
#550=ORIENTED_EDGE('',*,*,#430,.T.);
#551=ORIENTED_EDGE('',*,*,#431,.T.);
#552=ORIENTED_EDGE('',*,*,#432,.T.);
#553=ORIENTED_EDGE('',*,*,#433,.T.);
#554=ORIENTED_EDGE('',*,*,#434,.T.);
#555=ORIENTED_EDGE('',*,*,#435,.T.);
#556=ORIENTED_EDGE('',*,*,#436,.T.);
#557=ORIENTED_EDGE('',*,*,#437,.T.);
#558=ORIENTED_EDGE('',*,*,#438,.T.);
#559=ORIENTED_EDGE('',*,*,#439,.T.);
#560=ORIENTED_EDGE('',*,*,#440,.T.);
#561=ORIENTED_EDGE('',*,*,#441,.T.);
#562=ORIENTED_EDGE('',*,*,#442,.T.);
#563=ORIENTED_EDGE('',*,*,#443,.T.);
#564=ORIENTED_EDGE('',*,*,#444,.T.);
#565=ORIENTED_EDGE('',*,*,#445,.T.);
#566=ORIENTED_EDGE('',*,*,#446,.T.);
#567=ORIENTED_EDGE('',*,*,#447,.F.);
#568=ORIENTED_EDGE('',*,*,#448,.T.);
#569=ORIENTED_EDGE('',*,*,#449,.T.);
#570=ORIENTED_EDGE('',*,*,#424,.T.);
#571=ORIENTED_EDGE('',*,*,#450,.F.);
#572=ORIENTED_EDGE('',*,*,#451,.F.);
#573=ORIENTED_EDGE('',*,*,#429,.T.);
#574=ORIENTED_EDGE('',*,*,#428,.T.);
#575=ORIENTED_EDGE('',*,*,#452,.F.);
#576=ORIENTED_EDGE('',*,*,#453,.T.);
#577=ORIENTED_EDGE('',*,*,#454,.T.);
#578=ORIENTED_EDGE('',*,*,#427,.T.);
#579=ORIENTED_EDGE('',*,*,#455,.F.);
#580=ORIENTED_EDGE('',*,*,#456,.T.);
#581=ORIENTED_EDGE('',*,*,#457,.T.);
#582=ORIENTED_EDGE('',*,*,#458,.F.);
#583=ORIENTED_EDGE('',*,*,#452,.T.);
#584=ORIENTED_EDGE('',*,*,#459,.F.);
#585=ORIENTED_EDGE('',*,*,#460,.F.);
#586=ORIENTED_EDGE('',*,*,#461,.F.);
#587=ORIENTED_EDGE('',*,*,#462,.F.);
#588=ORIENTED_EDGE('',*,*,#463,.T.);
#589=ORIENTED_EDGE('',*,*,#459,.T.);
#590=ORIENTED_EDGE('',*,*,#464,.F.);
#591=ORIENTED_EDGE('',*,*,#465,.F.);
#592=ORIENTED_EDGE('',*,*,#466,.F.);
#593=ORIENTED_EDGE('',*,*,#441,.F.);
#594=ORIENTED_EDGE('',*,*,#462,.T.);
#595=ORIENTED_EDGE('',*,*,#467,.F.);
#596=ORIENTED_EDGE('',*,*,#468,.F.);
#597=ORIENTED_EDGE('',*,*,#464,.T.);
#598=ORIENTED_EDGE('',*,*,#461,.T.);
#599=ORIENTED_EDGE('',*,*,#469,.T.);
#600=ORIENTED_EDGE('',*,*,#470,.F.);
#601=ORIENTED_EDGE('',*,*,#467,.T.);
#602=ORIENTED_EDGE('',*,*,#471,.T.);
#603=ORIENTED_EDGE('',*,*,#472,.T.);
#604=ORIENTED_EDGE('',*,*,#473,.T.);
#605=ORIENTED_EDGE('',*,*,#458,.T.);
#606=ORIENTED_EDGE('',*,*,#471,.F.);
#607=ORIENTED_EDGE('',*,*,#474,.F.);
#608=ORIENTED_EDGE('',*,*,#445,.F.);
#609=ORIENTED_EDGE('',*,*,#475,.F.);
#610=ORIENTED_EDGE('',*,*,#476,.F.);
#611=ORIENTED_EDGE('',*,*,#423,.T.);
#612=ORIENTED_EDGE('',*,*,#477,.T.);
#613=ORIENTED_EDGE('',*,*,#478,.T.);
#614=ORIENTED_EDGE('',*,*,#479,.T.);
#615=ORIENTED_EDGE('',*,*,#472,.F.);
#616=ORIENTED_EDGE('',*,*,#476,.T.);
#617=ORIENTED_EDGE('',*,*,#480,.T.);
#618=ORIENTED_EDGE('',*,*,#481,.T.);
#619=ORIENTED_EDGE('',*,*,#482,.T.);
#620=ORIENTED_EDGE('',*,*,#465,.T.);
#621=ORIENTED_EDGE('',*,*,#468,.T.);
#622=ORIENTED_EDGE('',*,*,#470,.T.);
#623=ORIENTED_EDGE('',*,*,#483,.T.);
#624=ORIENTED_EDGE('',*,*,#484,.T.);
#625=ORIENTED_EDGE('',*,*,#485,.T.);
#626=ORIENTED_EDGE('',*,*,#486,.T.);
#627=ORIENTED_EDGE('',*,*,#487,.T.);
#628=ORIENTED_EDGE('',*,*,#488,.T.);
#629=ORIENTED_EDGE('',*,*,#489,.T.);
#630=ORIENTED_EDGE('',*,*,#490,.T.);
#631=ORIENTED_EDGE('',*,*,#491,.T.);
#632=ORIENTED_EDGE('',*,*,#492,.T.);
#633=ORIENTED_EDGE('',*,*,#493,.T.);
#634=ORIENTED_EDGE('',*,*,#450,.T.);
#635=ORIENTED_EDGE('',*,*,#422,.T.);
#636=ORIENTED_EDGE('',*,*,#449,.F.);
#637=ORIENTED_EDGE('',*,*,#494,.F.);
#638=ORIENTED_EDGE('',*,*,#477,.F.);
#639=ORIENTED_EDGE('',*,*,#425,.T.);
#640=ORIENTED_EDGE('',*,*,#454,.F.);
#641=ORIENTED_EDGE('',*,*,#446,.F.);
#642=ORIENTED_EDGE('',*,*,#495,.F.);
#643=ORIENTED_EDGE('',*,*,#496,.F.);
#644=ORIENTED_EDGE('',*,*,#497,.F.);
#645=ORIENTED_EDGE('',*,*,#498,.F.);
#646=ORIENTED_EDGE('',*,*,#499,.F.);
#647=ORIENTED_EDGE('',*,*,#500,.F.);
#648=ORIENTED_EDGE('',*,*,#501,.F.);
#649=ORIENTED_EDGE('',*,*,#499,.T.);
#650=ORIENTED_EDGE('',*,*,#502,.F.);
#651=ORIENTED_EDGE('',*,*,#503,.T.);
#652=ORIENTED_EDGE('',*,*,#504,.F.);
#653=ORIENTED_EDGE('',*,*,#498,.T.);
#654=ORIENTED_EDGE('',*,*,#505,.T.);
#655=ORIENTED_EDGE('',*,*,#506,.T.);
#656=ORIENTED_EDGE('',*,*,#502,.T.);
#657=ORIENTED_EDGE('',*,*,#426,.T.);
#658=ORIENTED_EDGE('',*,*,#497,.T.);
#659=ORIENTED_EDGE('',*,*,#507,.T.);
#660=ORIENTED_EDGE('',*,*,#455,.T.);
#661=ORIENTED_EDGE('',*,*,#508,.T.);
#662=ORIENTED_EDGE('',*,*,#509,.T.);
#663=ORIENTED_EDGE('',*,*,#510,.T.);
#664=ORIENTED_EDGE('',*,*,#511,.F.);
#665=ORIENTED_EDGE('',*,*,#512,.T.);
#666=ORIENTED_EDGE('',*,*,#513,.F.);
#667=ORIENTED_EDGE('',*,*,#511,.T.);
#668=ORIENTED_EDGE('',*,*,#514,.F.);
#669=ORIENTED_EDGE('',*,*,#513,.T.);
#670=ORIENTED_EDGE('',*,*,#515,.T.);
#671=ORIENTED_EDGE('',*,*,#516,.T.);
#672=ORIENTED_EDGE('',*,*,#508,.F.);
#673=ORIENTED_EDGE('',*,*,#503,.F.);
#674=ORIENTED_EDGE('',*,*,#506,.F.);
#675=ORIENTED_EDGE('',*,*,#517,.F.);
#676=ORIENTED_EDGE('',*,*,#518,.F.);
#677=ORIENTED_EDGE('',*,*,#509,.F.);
#678=ORIENTED_EDGE('',*,*,#516,.F.);
#679=ORIENTED_EDGE('',*,*,#519,.F.);
#680=ORIENTED_EDGE('',*,*,#520,.F.);
#681=ORIENTED_EDGE('',*,*,#521,.F.);
#682=ORIENTED_EDGE('',*,*,#488,.F.);
#683=ORIENTED_EDGE('',*,*,#522,.F.);
#684=ORIENTED_EDGE('',*,*,#435,.F.);
#685=ORIENTED_EDGE('',*,*,#466,.T.);
#686=ORIENTED_EDGE('',*,*,#482,.F.);
#687=ORIENTED_EDGE('',*,*,#523,.F.);
#688=ORIENTED_EDGE('',*,*,#442,.F.);
#689=ORIENTED_EDGE('',*,*,#521,.T.);
#690=ORIENTED_EDGE('',*,*,#434,.F.);
#691=ORIENTED_EDGE('',*,*,#524,.F.);
#692=ORIENTED_EDGE('',*,*,#489,.F.);
#693=ORIENTED_EDGE('',*,*,#525,.F.);
#694=ORIENTED_EDGE('',*,*,#436,.F.);
#695=ORIENTED_EDGE('',*,*,#522,.T.);
#696=ORIENTED_EDGE('',*,*,#487,.F.);
#697=ORIENTED_EDGE('',*,*,#526,.F.);
#698=ORIENTED_EDGE('',*,*,#501,.T.);
#699=ORIENTED_EDGE('',*,*,#527,.F.);
#700=ORIENTED_EDGE('',*,*,#519,.T.);
#701=ORIENTED_EDGE('',*,*,#515,.F.);
#702=ORIENTED_EDGE('',*,*,#512,.F.);
#703=ORIENTED_EDGE('',*,*,#528,.F.);
#704=ORIENTED_EDGE('',*,*,#517,.T.);
#705=ORIENTED_EDGE('',*,*,#505,.F.);
#706=ORIENTED_EDGE('',*,*,#514,.T.);
#707=ORIENTED_EDGE('',*,*,#510,.F.);
#708=ORIENTED_EDGE('',*,*,#518,.T.);
#709=ORIENTED_EDGE('',*,*,#528,.T.);
#710=ORIENTED_EDGE('',*,*,#500,.T.);
#711=ORIENTED_EDGE('',*,*,#504,.T.);
#712=ORIENTED_EDGE('',*,*,#520,.T.);
#713=ORIENTED_EDGE('',*,*,#527,.T.);
#714=ORIENTED_EDGE('',*,*,#496,.T.);
#715=ORIENTED_EDGE('',*,*,#529,.T.);
#716=ORIENTED_EDGE('',*,*,#456,.F.);
#717=ORIENTED_EDGE('',*,*,#507,.F.);
#718=ORIENTED_EDGE('',*,*,#530,.F.);
#719=ORIENTED_EDGE('',*,*,#531,.T.);
#720=ORIENTED_EDGE('',*,*,#526,.T.);
#721=ORIENTED_EDGE('',*,*,#531,.F.);
#722=ORIENTED_EDGE('',*,*,#532,.F.);
#723=ORIENTED_EDGE('',*,*,#480,.F.);
#724=ORIENTED_EDGE('',*,*,#475,.T.);
#725=ORIENTED_EDGE('',*,*,#444,.F.);
#726=ORIENTED_EDGE('',*,*,#532,.T.);
#727=ORIENTED_EDGE('',*,*,#443,.F.);
#728=ORIENTED_EDGE('',*,*,#523,.T.);
#729=ORIENTED_EDGE('',*,*,#481,.F.);
#730=ORIENTED_EDGE('',*,*,#495,.T.);
#731=ORIENTED_EDGE('',*,*,#474,.T.);
#732=ORIENTED_EDGE('',*,*,#457,.F.);
#733=ORIENTED_EDGE('',*,*,#529,.F.);
#734=ORIENTED_EDGE('',*,*,#524,.T.);
#735=ORIENTED_EDGE('',*,*,#433,.F.);
#736=ORIENTED_EDGE('',*,*,#533,.F.);
#737=ORIENTED_EDGE('',*,*,#490,.F.);
#738=ORIENTED_EDGE('',*,*,#440,.F.);
#739=ORIENTED_EDGE('',*,*,#534,.T.);
#740=ORIENTED_EDGE('',*,*,#483,.F.);
#741=ORIENTED_EDGE('',*,*,#469,.F.);
#742=ORIENTED_EDGE('',*,*,#460,.T.);
#743=ORIENTED_EDGE('',*,*,#463,.F.);
#744=ORIENTED_EDGE('',*,*,#439,.F.);
#745=ORIENTED_EDGE('',*,*,#535,.T.);
#746=ORIENTED_EDGE('',*,*,#484,.F.);
#747=ORIENTED_EDGE('',*,*,#534,.F.);
#748=ORIENTED_EDGE('',*,*,#438,.F.);
#749=ORIENTED_EDGE('',*,*,#536,.F.);
#750=ORIENTED_EDGE('',*,*,#485,.F.);
#751=ORIENTED_EDGE('',*,*,#535,.F.);
#752=ORIENTED_EDGE('',*,*,#536,.T.);
#753=ORIENTED_EDGE('',*,*,#437,.F.);
#754=ORIENTED_EDGE('',*,*,#525,.T.);
#755=ORIENTED_EDGE('',*,*,#486,.F.);
#756=ORIENTED_EDGE('',*,*,#537,.F.);
#757=ORIENTED_EDGE('',*,*,#430,.F.);
#758=ORIENTED_EDGE('',*,*,#451,.T.);
#759=ORIENTED_EDGE('',*,*,#493,.F.);
#760=ORIENTED_EDGE('',*,*,#494,.T.);
#761=ORIENTED_EDGE('',*,*,#448,.F.);
#762=ORIENTED_EDGE('',*,*,#538,.F.);
#763=ORIENTED_EDGE('',*,*,#478,.F.);
#764=ORIENTED_EDGE('',*,*,#537,.T.);
#765=ORIENTED_EDGE('',*,*,#492,.F.);
#766=ORIENTED_EDGE('',*,*,#539,.T.);
#767=ORIENTED_EDGE('',*,*,#431,.F.);
#768=ORIENTED_EDGE('',*,*,#533,.T.);
#769=ORIENTED_EDGE('',*,*,#432,.F.);
#770=ORIENTED_EDGE('',*,*,#539,.F.);
#771=ORIENTED_EDGE('',*,*,#491,.F.);
#772=ORIENTED_EDGE('',*,*,#530,.T.);
#773=ORIENTED_EDGE('',*,*,#473,.F.);
#774=ORIENTED_EDGE('',*,*,#479,.F.);
#775=ORIENTED_EDGE('',*,*,#538,.T.);
#776=ORIENTED_EDGE('',*,*,#447,.T.);
#777=ORIENTED_EDGE('',*,*,#453,.F.);
#778=PLANE('',#874);
#779=PLANE('',#875);
#780=PLANE('',#876);
#781=PLANE('',#879);
#782=PLANE('',#880);
#783=PLANE('',#881);
#784=PLANE('',#882);
#785=PLANE('',#883);
#786=PLANE('',#884);
#787=PLANE('',#885);
#788=PLANE('',#889);
#789=PLANE('',#890);
#790=PLANE('',#893);
#791=PLANE('',#894);
#792=PLANE('',#895);
#793=PLANE('',#896);
#794=PLANE('',#897);
#795=PLANE('',#898);
#796=PLANE('',#899);
#797=PLANE('',#900);
#798=PLANE('',#901);
#799=PLANE('',#902);
#800=PLANE('',#903);
#801=PLANE('',#904);
#802=PLANE('',#906);
#803=PLANE('',#907);
#804=PLANE('',#908);
#805=PLANE('',#909);
#806=PLANE('',#912);
#807=PLANE('',#913);
#808=PLANE('',#914);
#809=PLANE('',#915);
#810=PLANE('',#916);
#811=PLANE('',#917);
#812=PLANE('',#918);
#813=PLANE('',#919);
#814=PLANE('',#922);
#815=PLANE('',#923);
#816=PLANE('',#924);
#817=ADVANCED_FACE('',(#31),#778,.F.);
#818=ADVANCED_FACE('',(#32),#779,.F.);
#819=ADVANCED_FACE('',(#33),#780,.T.);
#820=ADVANCED_FACE('',(#34),#781,.T.);
#821=ADVANCED_FACE('',(#35),#782,.T.);
#822=ADVANCED_FACE('',(#36),#783,.T.);
#823=ADVANCED_FACE('',(#37),#784,.T.);
#824=ADVANCED_FACE('',(#38),#785,.F.);
#825=ADVANCED_FACE('',(#39),#786,.F.);
#826=ADVANCED_FACE('',(#40),#787,.T.);
#827=ADVANCED_FACE('',(#41),#19,.T.);
#828=ADVANCED_FACE('',(#42),#788,.F.);
#829=ADVANCED_FACE('',(#43),#789,.F.);
#830=ADVANCED_FACE('',(#44),#790,.T.);
#831=ADVANCED_FACE('',(#45,#15),#791,.F.);
#832=ADVANCED_FACE('',(#46),#792,.T.);
#833=ADVANCED_FACE('',(#47),#793,.F.);
#834=ADVANCED_FACE('',(#48,#16),#794,.T.);
#835=ADVANCED_FACE('',(#49),#795,.T.);
#836=ADVANCED_FACE('',(#50),#796,.F.);
#837=ADVANCED_FACE('',(#51),#797,.F.);
#838=ADVANCED_FACE('',(#52),#798,.F.);
#839=ADVANCED_FACE('',(#53),#799,.F.);
#840=ADVANCED_FACE('',(#54),#800,.F.);
#841=ADVANCED_FACE('',(#55,#17),#801,.T.);
#842=ADVANCED_FACE('',(#56),#802,.F.);
#843=ADVANCED_FACE('',(#57),#803,.F.);
#844=ADVANCED_FACE('',(#58),#804,.F.);
#845=ADVANCED_FACE('',(#59),#805,.T.);
#846=ADVANCED_FACE('',(#60),#20,.F.);
#847=ADVANCED_FACE('',(#61),#806,.F.);
#848=ADVANCED_FACE('',(#62),#807,.T.);
#849=ADVANCED_FACE('',(#63),#808,.T.);
#850=ADVANCED_FACE('',(#64),#809,.T.);
#851=ADVANCED_FACE('',(#65),#810,.F.);
#852=ADVANCED_FACE('',(#66),#811,.F.);
#853=ADVANCED_FACE('',(#67),#812,.F.);
#854=ADVANCED_FACE('',(#68),#813,.T.);
#855=ADVANCED_FACE('',(#69),#21,.T.);
#856=ADVANCED_FACE('',(#70),#22,.T.);
#857=ADVANCED_FACE('',(#71),#814,.T.);
#858=ADVANCED_FACE('',(#72,#18),#815,.T.);
#859=ADVANCED_FACE('',(#73),#816,.T.);
#860=CLOSED_SHELL('',(#817,#818,#819,#820,#821,#822,#823,#824,#825,#826,
#827,#828,#829,#830,#831,#832,#833,#834,#835,#836,#837,#838,#839,#840,#841,
#842,#843,#844,#845,#846,#847,#848,#849,#850,#851,#852,#853,#854,#855,#856,
#857,#858,#859));
#861=DERIVED_UNIT_ELEMENT(#863,1.);
#862=DERIVED_UNIT_ELEMENT(#1386,-3.);
#863=(
MASS_UNIT()
NAMED_UNIT(*)
SI_UNIT(.KILO.,.GRAM.)
);
#864=DERIVED_UNIT((#861,#862));
#865=MEASURE_REPRESENTATION_ITEM('density measure',
POSITIVE_RATIO_MEASURE(7850.),#864);
#866=PROPERTY_DEFINITION_REPRESENTATION(#871,#868);
#867=PROPERTY_DEFINITION_REPRESENTATION(#872,#869);
#868=REPRESENTATION('material name',(#870),#1383);
#869=REPRESENTATION('density',(#865),#1383);
#870=DESCRIPTIVE_REPRESENTATION_ITEM('\X2\92FC\X0\','\X2\92FC\X0\');
#871=PROPERTY_DEFINITION('material property','material name',#1393);
#872=PROPERTY_DEFINITION('material property','density of part',#1393);
#873=AXIS2_PLACEMENT_3D('',#1140,#925,#926);
#874=AXIS2_PLACEMENT_3D('',#1141,#927,#928);
#875=AXIS2_PLACEMENT_3D('',#1150,#933,#934);
#876=AXIS2_PLACEMENT_3D('',#1159,#939,#940);
#877=AXIS2_PLACEMENT_3D('',#1163,#942,#943);
#878=AXIS2_PLACEMENT_3D('',#1199,#961,#962);
#879=AXIS2_PLACEMENT_3D('',#1201,#964,#965);
#880=AXIS2_PLACEMENT_3D('',#1205,#968,#969);
#881=AXIS2_PLACEMENT_3D('',#1210,#973,#974);
#882=AXIS2_PLACEMENT_3D('',#1218,#979,#980);
#883=AXIS2_PLACEMENT_3D('',#1227,#985,#986);
#884=AXIS2_PLACEMENT_3D('',#1234,#991,#992);
#885=AXIS2_PLACEMENT_3D('',#1238,#995,#996);
#886=AXIS2_PLACEMENT_3D('',#1242,#999,#1000);
#887=AXIS2_PLACEMENT_3D('',#1244,#1001,#1002);
#888=AXIS2_PLACEMENT_3D('',#1247,#1004,#1005);
#889=AXIS2_PLACEMENT_3D('',#1248,#1006,#1007);
#890=AXIS2_PLACEMENT_3D('',#1253,#1011,#1012);
#891=AXIS2_PLACEMENT_3D('',#1257,#1014,#1015);
#892=AXIS2_PLACEMENT_3D('',#1284,#1030,#1031);
#893=AXIS2_PLACEMENT_3D('',#1285,#1032,#1033);
#894=AXIS2_PLACEMENT_3D('',#1287,#1035,#1036);
#895=AXIS2_PLACEMENT_3D('',#1301,#1044,#1045);
#896=AXIS2_PLACEMENT_3D('',#1307,#1049,#1050);
#897=AXIS2_PLACEMENT_3D('',#1311,#1053,#1054);
#898=AXIS2_PLACEMENT_3D('',#1321,#1060,#1061);
#899=AXIS2_PLACEMENT_3D('',#1327,#1065,#1066);
#900=AXIS2_PLACEMENT_3D('',#1331,#1069,#1070);
#901=AXIS2_PLACEMENT_3D('',#1338,#1075,#1076);
#902=AXIS2_PLACEMENT_3D('',#1341,#1079,#1080);
#903=AXIS2_PLACEMENT_3D('',#1343,#1082,#1083);
#904=AXIS2_PLACEMENT_3D('',#1345,#1085,#1086);
#905=AXIS2_PLACEMENT_3D('',#1348,#1088,#1089);
#906=AXIS2_PLACEMENT_3D('',#1349,#1090,#1091);
#907=AXIS2_PLACEMENT_3D('',#1352,#1094,#1095);
#908=AXIS2_PLACEMENT_3D('',#1353,#1096,#1097);
#909=AXIS2_PLACEMENT_3D('',#1354,#1098,#1099);
#910=AXIS2_PLACEMENT_3D('',#1356,#1101,#1102);
#911=AXIS2_PLACEMENT_3D('',#1358,#1103,#1104);
#912=AXIS2_PLACEMENT_3D('',#1360,#1106,#1107);
#913=AXIS2_PLACEMENT_3D('',#1362,#1109,#1110);
#914=AXIS2_PLACEMENT_3D('',#1363,#1111,#1112);
#915=AXIS2_PLACEMENT_3D('',#1364,#1113,#1114);
#916=AXIS2_PLACEMENT_3D('',#1366,#1116,#1117);
#917=AXIS2_PLACEMENT_3D('',#1368,#1119,#1120);
#918=AXIS2_PLACEMENT_3D('',#1370,#1122,#1123);
#919=AXIS2_PLACEMENT_3D('',#1372,#1125,#1126);
#920=AXIS2_PLACEMENT_3D('',#1373,#1127,#1128);
#921=AXIS2_PLACEMENT_3D('',#1375,#1130,#1131);
#922=AXIS2_PLACEMENT_3D('',#1377,#1133,#1134);
#923=AXIS2_PLACEMENT_3D('',#1379,#1136,#1137);
#924=AXIS2_PLACEMENT_3D('',#1380,#1138,#1139);
#925=DIRECTION('axis',(0.,0.,1.));
#926=DIRECTION('refdir',(1.,0.,0.));
#927=DIRECTION('center_axis',(0.,1.,0.));
#928=DIRECTION('ref_axis',(0.,0.,1.));
#929=DIRECTION('',(1.,0.,0.));
#930=DIRECTION('',(0.,0.,1.));
#931=DIRECTION('',(-1.,0.,0.));
#932=DIRECTION('',(0.,0.,-1.));
#933=DIRECTION('center_axis',(0.,1.,0.));
#934=DIRECTION('ref_axis',(0.,0.,1.));
#935=DIRECTION('',(0.,0.,-1.));
#936=DIRECTION('',(1.,0.,0.));
#937=DIRECTION('',(0.,0.,1.));
#938=DIRECTION('',(-1.,0.,0.));
#939=DIRECTION('center_axis',(0.,0.,1.));
#940=DIRECTION('ref_axis',(1.,0.,0.));
#941=DIRECTION('',(0.,-1.,0.));
#942=DIRECTION('center_axis',(0.,0.,1.));
#943=DIRECTION('ref_axis',(1.,0.,0.));
#944=DIRECTION('',(1.,0.,0.));
#945=DIRECTION('',(0.,1.,0.));
#946=DIRECTION('',(-1.,0.,0.));
#947=DIRECTION('',(0.,-1.,0.));
#948=DIRECTION('',(1.,0.,0.));
#949=DIRECTION('',(0.,-1.,0.));
#950=DIRECTION('',(-1.,0.,0.));
#951=DIRECTION('',(0.,-1.,0.));
#952=DIRECTION('',(-1.,0.,0.));
#953=DIRECTION('',(0.,1.,0.));
#954=DIRECTION('',(1.,0.,0.));
#955=DIRECTION('',(0.,1.,0.));
#956=DIRECTION('',(-1.,0.,0.));
#957=DIRECTION('',(0.,-1.,0.));
#958=DIRECTION('',(-1.,0.,0.));
#959=DIRECTION('',(0.,-1.,0.));
#960=DIRECTION('',(-1.,0.,0.));
#961=DIRECTION('center_axis',(0.,0.,1.));
#962=DIRECTION('ref_axis',(1.,0.,0.));
#963=DIRECTION('',(0.,-1.,0.));
#964=DIRECTION('center_axis',(1.,0.,0.));
#965=DIRECTION('ref_axis',(0.,0.,1.));
#966=DIRECTION('',(0.,-1.,0.));
#967=DIRECTION('',(0.,0.,-1.));
#968=DIRECTION('center_axis',(0.,0.,-1.));
#969=DIRECTION('ref_axis',(0.,-1.,0.));
#970=DIRECTION('',(0.,-1.,0.));
#971=DIRECTION('',(1.,0.,0.));
#972=DIRECTION('',(0.,-1.,0.));
#973=DIRECTION('center_axis',(-1.,0.,0.));
#974=DIRECTION('ref_axis',(0.,0.,1.));
#975=DIRECTION('',(0.,-1.,0.));
#976=DIRECTION('',(0.,0.,-1.));
#977=DIRECTION('',(0.,-1.,0.));
#978=DIRECTION('',(0.,1.,0.));
#979=DIRECTION('center_axis',(0.,0.,-1.));
#980=DIRECTION('ref_axis',(-1.,0.,0.));
#981=DIRECTION('',(-1.,0.,0.));
#982=DIRECTION('',(0.,1.,0.));
#983=DIRECTION('',(1.,0.,0.));
#984=DIRECTION('',(0.,-1.,0.));
#985=DIRECTION('center_axis',(0.,1.,0.));
#986=DIRECTION('ref_axis',(0.,0.,1.));
#987=DIRECTION('',(0.,0.,-1.));
#988=DIRECTION('',(0.,0.,1.));
#989=DIRECTION('',(-1.,0.,0.));
#990=DIRECTION('',(0.,0.,-1.));
#991=DIRECTION('center_axis',(-1.,0.,0.));
#992=DIRECTION('ref_axis',(0.,0.,1.));
#993=DIRECTION('',(0.,0.,1.));
#994=DIRECTION('',(0.,-1.,0.));
#995=DIRECTION('center_axis',(0.,1.,0.));
#996=DIRECTION('ref_axis',(-1.,0.,0.));
#997=DIRECTION('',(0.,0.,-1.));
#998=DIRECTION('',(1.,0.,0.));
#999=DIRECTION('center_axis',(0.,1.,0.));
#1000=DIRECTION('ref_axis',(-0.707106781186548,0.,-0.707106781186548));
#1001=DIRECTION('center_axis',(0.,-1.,0.));
#1002=DIRECTION('ref_axis',(-0.707106781186548,0.,-0.707106781186548));
#1003=DIRECTION('',(0.,-1.,0.));
#1004=DIRECTION('center_axis',(0.,1.,0.));
#1005=DIRECTION('ref_axis',(-0.707106781186548,0.,-0.707106781186548));
#1006=DIRECTION('center_axis',(0.,-1.,0.));
#1007=DIRECTION('ref_axis',(0.,0.,-1.));
#1008=DIRECTION('',(-1.,0.,0.));
#1009=DIRECTION('',(0.,0.,1.));
#1010=DIRECTION('',(1.,0.,0.));
#1011=DIRECTION('center_axis',(0.,0.,1.));
#1012=DIRECTION('ref_axis',(1.,0.,0.));
#1013=DIRECTION('',(0.,1.,0.));
#1014=DIRECTION('center_axis',(0.,0.,-1.));
#1015=DIRECTION('ref_axis',(1.,0.,0.));
#1016=DIRECTION('',(-1.,0.,0.));
#1017=DIRECTION('',(0.,1.,0.));
#1018=DIRECTION('',(1.,0.,0.));
#1019=DIRECTION('',(0.,-1.,0.));
#1020=DIRECTION('',(0.,-1.,0.));
#1021=DIRECTION('',(1.,0.,0.));
#1022=DIRECTION('',(0.,1.,0.));
#1023=DIRECTION('',(1.,0.,0.));
#1024=DIRECTION('',(0.,1.,0.));
#1025=DIRECTION('',(-1.,0.,0.));
#1026=DIRECTION('',(0.,1.,0.));
#1027=DIRECTION('',(1.,0.,0.));
#1028=DIRECTION('',(0.,-1.,0.));
#1029=DIRECTION('',(-1.,0.,0.));
#1030=DIRECTION('center_axis',(0.,0.,-1.));
#1031=DIRECTION('ref_axis',(1.,0.,0.));
#1032=DIRECTION('center_axis',(-1.,0.,0.));
#1033=DIRECTION('ref_axis',(0.,0.,-1.));
#1034=DIRECTION('',(0.,0.,1.));
#1035=DIRECTION('center_axis',(-1.,0.,0.));
#1036=DIRECTION('ref_axis',(0.,0.,1.));
#1037=DIRECTION('',(0.,-1.,0.));
#1038=DIRECTION('',(0.,0.,-1.));
#1039=DIRECTION('',(0.,1.,0.));
#1040=DIRECTION('',(0.,0.,1.));
#1041=DIRECTION('',(0.,1.,0.));
#1042=DIRECTION('',(0.,0.,-1.));
#1043=DIRECTION('',(0.,-1.,0.));
#1044=DIRECTION('center_axis',(0.,0.,1.));
#1045=DIRECTION('ref_axis',(1.,0.,0.));
#1046=DIRECTION('',(1.,0.,0.));
#1047=DIRECTION('',(0.,-1.,0.));
#1048=DIRECTION('',(-1.,0.,0.));
#1049=DIRECTION('center_axis',(0.,1.,0.));
#1050=DIRECTION('ref_axis',(0.,0.,-1.));
#1051=DIRECTION('',(-1.,0.,0.));
#1052=DIRECTION('',(0.,0.,-1.));
#1053=DIRECTION('center_axis',(0.,0.,1.));
#1054=DIRECTION('ref_axis',(1.,0.,0.));
#1055=DIRECTION('',(-1.,0.,0.));
#1056=DIRECTION('',(-1.,0.,0.));
#1057=DIRECTION('',(0.,1.,0.));
#1058=DIRECTION('',(1.,0.,0.));
#1059=DIRECTION('',(0.,1.,0.));
#1060=DIRECTION('center_axis',(-1.,0.,0.));
#1061=DIRECTION('ref_axis',(0.,0.,1.));
#1062=DIRECTION('',(0.,-1.,0.));
#1063=DIRECTION('',(0.,0.,-1.));
#1064=DIRECTION('',(0.,0.,1.));
#1065=DIRECTION('center_axis',(0.,-1.,0.));
#1066=DIRECTION('ref_axis',(-1.,0.,0.));
#1067=DIRECTION('',(-1.,0.,0.));
#1068=DIRECTION('',(0.,0.,1.));
#1069=DIRECTION('center_axis',(-1.,0.,0.));
#1070=DIRECTION('ref_axis',(0.,0.,1.));
#1071=DIRECTION('',(0.,1.,0.));
#1072=DIRECTION('',(0.,0.,-1.));
#1073=DIRECTION('',(0.,1.,0.));
#1074=DIRECTION('',(0.,0.,1.));
#1075=DIRECTION('center_axis',(0.,1.,0.));
#1076=DIRECTION('ref_axis',(0.,0.,1.));
#1077=DIRECTION('',(0.,0.,1.));
#1078=DIRECTION('',(0.,0.,-1.));
#1079=DIRECTION('center_axis',(-1.,0.,0.));
#1080=DIRECTION('ref_axis',(0.,-1.,0.));
#1081=DIRECTION('',(0.,0.,-1.));
#1082=DIRECTION('center_axis',(1.,0.,0.));
#1083=DIRECTION('ref_axis',(0.,1.,0.));
#1084=DIRECTION('',(0.,0.,1.));
#1085=DIRECTION('center_axis',(-1.,0.,0.));
#1086=DIRECTION('ref_axis',(0.,-1.,0.));
#1087=DIRECTION('',(0.,0.,-1.));
#1088=DIRECTION('center_axis',(-1.,0.,0.));
#1089=DIRECTION('ref_axis',(0.,1.,0.));
#1090=DIRECTION('center_axis',(0.,0.,1.));
#1091=DIRECTION('ref_axis',(1.,0.,0.));
#1092=DIRECTION('',(1.,0.,0.));
#1093=DIRECTION('',(1.,0.,0.));
#1094=DIRECTION('center_axis',(0.,1.,0.));
#1095=DIRECTION('ref_axis',(1.,0.,0.));
#1096=DIRECTION('center_axis',(0.,-1.,0.));
#1097=DIRECTION('ref_axis',(0.,0.,1.));
#1098=DIRECTION('center_axis',(0.,1.,0.));
#1099=DIRECTION('ref_axis',(0.,0.,-1.));
#1100=DIRECTION('',(-1.,0.,0.));
#1101=DIRECTION('center_axis',(-1.,0.,0.));
#1102=DIRECTION('ref_axis',(0.,1.,0.));
#1103=DIRECTION('center_axis',(-1.,0.,0.));
#1104=DIRECTION('ref_axis',(0.,1.,0.));
#1105=DIRECTION('',(-1.,0.,0.));
#1106=DIRECTION('center_axis',(1.,0.,0.));
#1107=DIRECTION('ref_axis',(0.,0.,1.));
#1108=DIRECTION('',(0.,0.,1.));
#1109=DIRECTION('center_axis',(0.,1.,0.));
#1110=DIRECTION('ref_axis',(-1.,0.,0.));
#1111=DIRECTION('center_axis',(0.,0.,-1.));
#1112=DIRECTION('ref_axis',(0.,-1.,0.));
#1113=DIRECTION('center_axis',(0.,1.,0.));
#1114=DIRECTION('ref_axis',(-1.,0.,0.));
#1115=DIRECTION('',(0.,0.,1.));
#1116=DIRECTION('center_axis',(-1.,0.,0.));
#1117=DIRECTION('ref_axis',(0.,1.,0.));
#1118=DIRECTION('',(0.,0.,-1.));
#1119=DIRECTION('center_axis',(0.,-1.,0.));
#1120=DIRECTION('ref_axis',(-1.,0.,0.));
#1121=DIRECTION('',(0.,0.,-1.));
#1122=DIRECTION('center_axis',(1.,0.,0.));
#1123=DIRECTION('ref_axis',(0.,-1.,0.));
#1124=DIRECTION('',(0.,0.,1.));
#1125=DIRECTION('center_axis',(0.,1.,0.));
#1126=DIRECTION('ref_axis',(-1.,0.,0.));
#1127=DIRECTION('center_axis',(0.,0.,1.));
#1128=DIRECTION('ref_axis',(1.,0.,0.));
#1129=DIRECTION('',(0.,0.,-1.));
#1130=DIRECTION('center_axis',(0.,0.,1.));
#1131=DIRECTION('ref_axis',(1.,0.,0.));
#1132=DIRECTION('',(0.,0.,1.));
#1133=DIRECTION('center_axis',(0.,-1.,0.));
#1134=DIRECTION('ref_axis',(1.,0.,0.));
#1135=DIRECTION('',(0.,0.,1.));
#1136=DIRECTION('center_axis',(1.,0.,0.));
#1137=DIRECTION('ref_axis',(0.,1.,0.));
#1138=DIRECTION('center_axis',(0.,-1.,0.));
#1139=DIRECTION('ref_axis',(1.,0.,0.));
#1140=CARTESIAN_POINT('',(0.,0.,0.));
#1141=CARTESIAN_POINT('Origin',(-2.475,-15.5,0.));
#1142=CARTESIAN_POINT('',(-2.475,-15.5,22.));
#1143=CARTESIAN_POINT('',(22.525,-15.5,22.));
#1144=CARTESIAN_POINT('',(3.775,-15.5,22.));
#1145=CARTESIAN_POINT('',(-2.475,-15.5,-2.));
#1146=CARTESIAN_POINT('',(-2.475,-15.5,11.));
#1147=CARTESIAN_POINT('',(22.525,-15.5,-2.));
#1148=CARTESIAN_POINT('',(3.775,-15.5,-2.));
#1149=CARTESIAN_POINT('',(22.525,-15.5,0.));
#1150=CARTESIAN_POINT('Origin',(-2.775,-15.5,22.));
#1151=CARTESIAN_POINT('',(-33.275,-15.5,68.));
#1152=CARTESIAN_POINT('',(-33.275,-15.5,22.));
#1153=CARTESIAN_POINT('',(-33.275,-15.5,33.));
#1154=CARTESIAN_POINT('',(-50.275,-15.5,68.));
#1155=CARTESIAN_POINT('',(3.625,-15.5,68.));
#1156=CARTESIAN_POINT('',(-50.275,-15.5,22.));
#1157=CARTESIAN_POINT('',(-50.275,-15.5,33.));
#1158=CARTESIAN_POINT('',(1.875,-15.5,22.));
#1159=CARTESIAN_POINT('Origin',(10.025,10.025,22.));
#1160=CARTESIAN_POINT('',(22.525,-12.5,22.));
#1161=CARTESIAN_POINT('',(22.525,-12.5,22.));
#1162=CARTESIAN_POINT('',(15.962171043519,-1.5,22.));
#1163=CARTESIAN_POINT('Origin',(10.025,-12.5,22.));
#1164=CARTESIAN_POINT('',(21.55,-1.5,22.));
#1165=CARTESIAN_POINT('',(21.55,-1.5,22.));
#1166=CARTESIAN_POINT('',(21.55,21.55,22.));
#1167=CARTESIAN_POINT('',(21.55,21.55,22.));
#1168=CARTESIAN_POINT('',(13.775,21.55,22.));
#1169=CARTESIAN_POINT('',(-1.5,21.55,22.));
#1170=CARTESIAN_POINT('',(13.775,20.15,22.));
#1171=CARTESIAN_POINT('',(13.775,15.0375,22.));
#1172=CARTESIAN_POINT('',(20.1,20.15,22.));
#1173=CARTESIAN_POINT('',(5.0125,20.15,22.));
#1174=CARTESIAN_POINT('',(20.1,0.,22.));
#1175=CARTESIAN_POINT('',(20.1,15.0375,22.));
#1176=CARTESIAN_POINT('',(15.0250000000005,0.,22.));
#1177=CARTESIAN_POINT('',(15.0375,0.,22.));
#1178=CARTESIAN_POINT('',(15.0250000000005,-0.749999999999992,22.));
#1179=CARTESIAN_POINT('',(15.0250000000005,5.0125,22.));
#1180=CARTESIAN_POINT('',(5.02500000000045,-0.749999999999992,22.));
#1181=CARTESIAN_POINT('',(12.5250000000002,-0.749999999999991,22.));
#1182=CARTESIAN_POINT('',(5.02500000000045,20.15,22.));
#1183=CARTESIAN_POINT('',(5.02500000000045,0.,22.));
#1184=CARTESIAN_POINT('',(6.275,20.15,22.));
#1185=CARTESIAN_POINT('',(5.0125,20.15,22.));
#1186=CARTESIAN_POINT('',(6.275,21.55,22.));
#1187=CARTESIAN_POINT('',(6.275,15.7875,22.));
#1188=CARTESIAN_POINT('',(-2.775,21.55,22.));
#1189=CARTESIAN_POINT('',(-1.5,21.55,22.));
#1190=CARTESIAN_POINT('',(-2.775,11.55,22.));
#1191=CARTESIAN_POINT('',(-2.775,10.025,22.));
#1192=CARTESIAN_POINT('',(-33.275,11.55,22.));
#1193=CARTESIAN_POINT('',(-42.775,11.55,22.));
#1194=CARTESIAN_POINT('',(-33.275,-1.5,22.));
#1195=CARTESIAN_POINT('',(-33.275,13.5,22.));
#1196=CARTESIAN_POINT('',(4.08782895648104,-1.5,22.));
#1197=CARTESIAN_POINT('',(-1.5,-1.5,22.));
#1198=CARTESIAN_POINT('',(-2.475,-12.5,22.));
#1199=CARTESIAN_POINT('Origin',(10.025,-12.5,22.));
#1200=CARTESIAN_POINT('',(-2.475,-12.5,22.));
#1201=CARTESIAN_POINT('Origin',(22.525,-12.5,0.));
#1202=CARTESIAN_POINT('',(22.525,-12.5,-2.));
#1203=CARTESIAN_POINT('',(22.525,-12.5,-2.));
#1204=CARTESIAN_POINT('',(22.525,-12.5,0.));
#1205=CARTESIAN_POINT('Origin',(6.525,16.975,22.));
#1206=CARTESIAN_POINT('',(-50.275,-1.5,22.));
#1207=CARTESIAN_POINT('',(-50.275,32.025,22.));
#1208=CARTESIAN_POINT('',(2.5125,-1.5,22.));
#1209=CARTESIAN_POINT('',(-33.275,-12.5,22.));
#1210=CARTESIAN_POINT('Origin',(-50.275,10.025,44.));
#1211=CARTESIAN_POINT('',(-50.275,32.025,68.));
#1212=CARTESIAN_POINT('',(-50.275,-12.5,68.));
#1213=CARTESIAN_POINT('',(-50.275,32.025,22.));
#1214=CARTESIAN_POINT('',(-50.275,32.025,66.));
#1215=CARTESIAN_POINT('',(-50.275,11.55,22.));
#1216=CARTESIAN_POINT('',(-50.275,15.7875,22.));
#1217=CARTESIAN_POINT('',(-50.275,10.025,22.));
#1218=CARTESIAN_POINT('Origin',(5.02500000000045,0.,20.));
#1219=CARTESIAN_POINT('',(5.02500000000045,20.15,20.));
#1220=CARTESIAN_POINT('',(-0.15,20.15,20.));
#1221=CARTESIAN_POINT('',(2.51250000000023,20.15,20.));
#1222=CARTESIAN_POINT('',(5.02500000000045,0.,20.));
#1223=CARTESIAN_POINT('',(5.02500000000045,0.,20.));
#1224=CARTESIAN_POINT('',(-0.15,0.,20.));
#1225=CARTESIAN_POINT('',(12.5375000000002,0.,20.));
#1226=CARTESIAN_POINT('',(-0.15,0.,20.));
#1227=CARTESIAN_POINT('Origin',(0.,20.15,0.));
#1228=CARTESIAN_POINT('',(5.02500000000045,20.15,11.));
#1229=CARTESIAN_POINT('',(-0.15,20.15,-2.));
#1230=CARTESIAN_POINT('',(-0.15,20.15,0.));
#1231=CARTESIAN_POINT('',(6.275,20.15,-2.));
#1232=CARTESIAN_POINT('',(5.0125,20.15,-2.));
#1233=CARTESIAN_POINT('',(6.275,20.15,0.));
#1234=CARTESIAN_POINT('Origin',(-0.15,0.,0.));
#1235=CARTESIAN_POINT('',(-0.15,0.,-2.));
#1236=CARTESIAN_POINT('',(-0.15,0.,0.));
#1237=CARTESIAN_POINT('',(-0.15,15.0375,-2.));
#1238=CARTESIAN_POINT('Origin',(20.05,0.,0.));
#1239=CARTESIAN_POINT('',(5.02500000000046,0.,-2.));
#1240=CARTESIAN_POINT('',(5.02500000000046,0.,0.));
#1241=CARTESIAN_POINT('',(5.0125,0.,-2.));
#1242=CARTESIAN_POINT('Origin',(-26.275,10.025,22.));
#1243=CARTESIAN_POINT('',(-26.275,11.55,-2.));
#1244=CARTESIAN_POINT('Origin',(-26.275,11.55,22.));
#1245=CARTESIAN_POINT('',(-26.275,-1.5,-2.));
#1246=CARTESIAN_POINT('',(-26.275,10.025,-2.));
#1247=CARTESIAN_POINT('Origin',(-26.275,-1.5,22.));
#1248=CARTESIAN_POINT('Origin',(-18.25,11.55,11.));
#1249=CARTESIAN_POINT('',(-42.775,11.55,22.));
#1250=CARTESIAN_POINT('',(-2.775,11.55,-2.));
#1251=CARTESIAN_POINT('',(-2.775,11.55,22.));
#1252=CARTESIAN_POINT('',(-4.1125,11.55,-2.));
#1253=CARTESIAN_POINT('Origin',(10.025,10.025,-2.));
#1254=CARTESIAN_POINT('',(-2.475,-12.5,-2.));
#1255=CARTESIAN_POINT('',(-2.475,-12.5,-2.));
#1256=CARTESIAN_POINT('',(4.08782895648104,-1.5,-2.));
#1257=CARTESIAN_POINT('Origin',(10.025,-12.5,-2.));
#1258=CARTESIAN_POINT('',(21.55,-1.5,-2.));
#1259=CARTESIAN_POINT('',(-2.775,21.55,-2.));
#1260=CARTESIAN_POINT('',(-2.775,15.7875,-2.));
#1261=CARTESIAN_POINT('',(6.275,21.55,-2.));
#1262=CARTESIAN_POINT('',(-1.5,21.55,-2.));
#1263=CARTESIAN_POINT('',(6.275,15.7875,-2.));
#1264=CARTESIAN_POINT('',(5.02500000000046,-0.749999999999993,-2.));
#1265=CARTESIAN_POINT('',(5.02500000000046,4.6375,-2.));
#1266=CARTESIAN_POINT('',(15.0250000000005,-0.749999999999993,-2.));
#1267=CARTESIAN_POINT('',(12.5250000000002,-0.749999999999991,-2.));
#1268=CARTESIAN_POINT('',(15.0250000000005,0.,-2.));
#1269=CARTESIAN_POINT('',(15.0250000000005,5.0125,-2.));
#1270=CARTESIAN_POINT('',(20.1,0.,-2.));
#1271=CARTESIAN_POINT('',(15.0375,0.,-2.));
#1272=CARTESIAN_POINT('',(20.1,20.15,-2.));
#1273=CARTESIAN_POINT('',(20.1,15.0375,-2.));
#1274=CARTESIAN_POINT('',(13.775,20.15,-2.));
#1275=CARTESIAN_POINT('',(5.0125,20.15,-2.));
#1276=CARTESIAN_POINT('',(13.775,21.55,-2.));
#1277=CARTESIAN_POINT('',(13.775,15.0375,-2.));
#1278=CARTESIAN_POINT('',(21.55,21.55,-2.));
#1279=CARTESIAN_POINT('',(-1.5,21.55,-2.));
#1280=CARTESIAN_POINT('',(21.55,-1.5,-2.));
#1281=CARTESIAN_POINT('',(21.55,21.55,-2.));
#1282=CARTESIAN_POINT('',(15.962171043519,-1.5,-2.));
#1283=CARTESIAN_POINT('',(21.55,-1.5,-2.));
#1284=CARTESIAN_POINT('Origin',(10.025,-12.5,-2.));
#1285=CARTESIAN_POINT('Origin',(-2.475,-12.5,22.));
#1286=CARTESIAN_POINT('',(-2.475,-12.5,0.));
#1287=CARTESIAN_POINT('Origin',(-33.275,10.025,44.));
#1288=CARTESIAN_POINT('',(-33.275,32.025,22.));
#1289=CARTESIAN_POINT('',(-33.275,13.5,22.));
#1290=CARTESIAN_POINT('',(-33.275,32.025,68.));
#1291=CARTESIAN_POINT('',(-33.275,32.025,55.));
#1292=CARTESIAN_POINT('',(-33.275,10.025,68.));
#1293=CARTESIAN_POINT('',(-33.275,30.15,25.875));
#1294=CARTESIAN_POINT('',(-33.275,30.15,66.125));
#1295=CARTESIAN_POINT('',(-33.275,30.15,54.0625));
#1296=CARTESIAN_POINT('',(-33.275,-10.1,25.875));
#1297=CARTESIAN_POINT('',(-33.275,20.0875,25.875));
#1298=CARTESIAN_POINT('',(-33.275,-10.1,66.125));
#1299=CARTESIAN_POINT('',(-33.275,-10.1,33.9375));
#1300=CARTESIAN_POINT('',(-33.275,-0.0374999999999992,66.125));
#1301=CARTESIAN_POINT('Origin',(-2.775,30.15,25.875));
#1302=CARTESIAN_POINT('',(-48.275,30.15,25.875));
#1303=CARTESIAN_POINT('',(-2.775,30.15,25.875));
#1304=CARTESIAN_POINT('',(-48.275,-10.1,25.875));
#1305=CARTESIAN_POINT('',(-48.275,20.0875,25.875));
#1306=CARTESIAN_POINT('',(-40.775,-10.1,25.875));
#1307=CARTESIAN_POINT('Origin',(-2.775,30.15,64.125));
#1308=CARTESIAN_POINT('',(-48.275,30.15,66.125));
#1309=CARTESIAN_POINT('',(-40.775,30.15,66.125));
#1310=CARTESIAN_POINT('',(-48.275,30.15,23.875));
#1311=CARTESIAN_POINT('Origin',(10.025,10.025,68.));
#1312=CARTESIAN_POINT('',(-2.775,32.025,68.));
#1313=CARTESIAN_POINT('',(-40.275,4.1625,68.));
#1314=CARTESIAN_POINT('',(-48.275,4.1625,68.));
#1315=CARTESIAN_POINT('',(-11.375,4.1625,68.));
#1316=CARTESIAN_POINT('',(-48.275,15.3625,68.));
#1317=CARTESIAN_POINT('',(-48.275,10.025,68.));
#1318=CARTESIAN_POINT('',(-40.275,15.3625,68.));
#1319=CARTESIAN_POINT('',(-15.375,15.3625,68.));
#1320=CARTESIAN_POINT('',(-40.275,12.69375,68.));
#1321=CARTESIAN_POINT('Origin',(-40.275,15.3625,66.));
#1322=CARTESIAN_POINT('',(-40.275,15.3625,66.125));
#1323=CARTESIAN_POINT('',(-40.275,4.1625,66.125));
#1324=CARTESIAN_POINT('',(-40.275,2.63125,66.125));
#1325=CARTESIAN_POINT('',(-40.275,4.1625,66.));
#1326=CARTESIAN_POINT('',(-40.275,15.3625,66.));
#1327=CARTESIAN_POINT('Origin',(-32.775,4.1625,66.));
#1328=CARTESIAN_POINT('',(-48.275,4.1625,66.125));
#1329=CARTESIAN_POINT('',(-17.775,4.1625,66.125));
#1330=CARTESIAN_POINT('',(-48.275,4.1625,66.));
#1331=CARTESIAN_POINT('Origin',(-48.275,10.025,44.));
#1332=CARTESIAN_POINT('',(-48.275,15.3625,66.125));
#1333=CARTESIAN_POINT('',(-48.275,30.15,66.125));
#1334=CARTESIAN_POINT('',(-48.275,15.3625,66.));
#1335=CARTESIAN_POINT('',(-48.275,-10.1,66.125));
#1336=CARTESIAN_POINT('',(-48.275,30.15,66.125));
#1337=CARTESIAN_POINT('',(-48.275,-10.1,64.125));
#1338=CARTESIAN_POINT('Origin',(0.,20.15,0.));
#1339=CARTESIAN_POINT('',(13.775,20.15,0.));
#1340=CARTESIAN_POINT('',(20.1,20.15,0.));
#1341=CARTESIAN_POINT('Origin',(6.275,21.55,0.));
#1342=CARTESIAN_POINT('',(6.275,21.55,0.));
#1343=CARTESIAN_POINT('Origin',(13.775,20.05,0.));
#1344=CARTESIAN_POINT('',(13.775,21.55,0.));
#1345=CARTESIAN_POINT('Origin',(20.1,20.05,0.));
#1346=CARTESIAN_POINT('',(20.1,0.,0.));
#1347=CARTESIAN_POINT('',(20.1,7.475,11.));
#1348=CARTESIAN_POINT('Origin',(20.1,10.025,11.));
#1349=CARTESIAN_POINT('Origin',(-2.775,-10.1,66.125));
#1350=CARTESIAN_POINT('',(-2.775,-10.1,66.125));
#1351=CARTESIAN_POINT('',(-21.775,15.3625,66.125));
#1352=CARTESIAN_POINT('Origin',(-40.775,15.3625,66.));
#1353=CARTESIAN_POINT('Origin',(-2.775,-10.1,23.875));
#1354=CARTESIAN_POINT('Origin',(-2.775,32.025,66.));
#1355=CARTESIAN_POINT('',(-2.775,32.025,22.));
#1356=CARTESIAN_POINT('Origin',(21.55,10.025,11.));
#1357=CARTESIAN_POINT('',(21.55,7.475,11.));
#1358=CARTESIAN_POINT('Origin',(21.55,10.025,11.));
#1359=CARTESIAN_POINT('',(21.55,7.475,11.));
#1360=CARTESIAN_POINT('Origin',(-2.775,21.55,0.));
#1361=CARTESIAN_POINT('',(-2.775,21.55,0.));
#1362=CARTESIAN_POINT('Origin',(21.55,21.55,0.));
#1363=CARTESIAN_POINT('Origin',(6.525,16.975,22.));
#1364=CARTESIAN_POINT('Origin',(21.55,21.55,0.));
#1365=CARTESIAN_POINT('',(21.55,21.55,0.));
#1366=CARTESIAN_POINT('Origin',(5.02500000000045,-0.749999999999992,22.));
#1367=CARTESIAN_POINT('',(5.02500000000046,-0.749999999999992,0.));
#1368=CARTESIAN_POINT('Origin',(15.0250000000005,-0.749999999999992,22.));
#1369=CARTESIAN_POINT('',(15.0250000000005,-0.749999999999992,0.));
#1370=CARTESIAN_POINT('Origin',(15.0250000000005,0.,22.));
#1371=CARTESIAN_POINT('',(15.0250000000005,0.,11.));
#1372=CARTESIAN_POINT('Origin',(20.05,0.,0.));
#1373=CARTESIAN_POINT('Origin',(10.025,-12.5,0.));
#1374=CARTESIAN_POINT('',(15.962171043519,-1.5,0.));
#1375=CARTESIAN_POINT('Origin',(10.025,-12.5,0.));
#1376=CARTESIAN_POINT('',(4.08782895648104,-1.5,0.));
#1377=CARTESIAN_POINT('Origin',(-1.5,-1.5,0.));
#1378=CARTESIAN_POINT('',(21.55,-1.5,0.));
#1379=CARTESIAN_POINT('Origin',(21.55,-1.5,0.));
#1380=CARTESIAN_POINT('Origin',(-1.5,-1.5,0.));
#1381=UNCERTAINTY_MEASURE_WITH_UNIT(LENGTH_MEASURE(0.01),#1385,
'DISTANCE_ACCURACY_VALUE',
'Maximum model space distance between geometric entities at asserted c
onnectivities');
#1382=UNCERTAINTY_MEASURE_WITH_UNIT(LENGTH_MEASURE(0.01),#1385,
'DISTANCE_ACCURACY_VALUE',
'Maximum model space distance between geometric entities at asserted c
onnectivities');
#1383=(
GEOMETRIC_REPRESENTATION_CONTEXT(3)
GLOBAL_UNCERTAINTY_ASSIGNED_CONTEXT((#1381))
GLOBAL_UNIT_ASSIGNED_CONTEXT((#1385,#1387,#1388))
REPRESENTATION_CONTEXT('','3D')
);
#1384=(
GEOMETRIC_REPRESENTATION_CONTEXT(3)
GLOBAL_UNCERTAINTY_ASSIGNED_CONTEXT((#1382))
GLOBAL_UNIT_ASSIGNED_CONTEXT((#1385,#1387,#1388))
REPRESENTATION_CONTEXT('','3D')
);
#1385=(
LENGTH_UNIT()
NAMED_UNIT(*)
SI_UNIT(.MILLI.,.METRE.)
);
#1386=(
LENGTH_UNIT()
NAMED_UNIT(*)
SI_UNIT($,.METRE.)
);
#1387=(
NAMED_UNIT(*)
PLANE_ANGLE_UNIT()
SI_UNIT($,.RADIAN.)
);
#1388=(
NAMED_UNIT(*)
SI_UNIT($,.STERADIAN.)
SOLID_ANGLE_UNIT()
);
#1389=SHAPE_DEFINITION_REPRESENTATION(#1390,#1391);
#1390=PRODUCT_DEFINITION_SHAPE('',$,#1393);
#1391=SHAPE_REPRESENTATION('',(#873),#1383);
#1392=PRODUCT_DEFINITION_CONTEXT('part definition',#1397,'design');
#1393=PRODUCT_DEFINITION('moton_ctrl_motor','moton_ctrl_motor v16',#1394,
#1392);
#1394=PRODUCT_DEFINITION_FORMATION('',$,#1399);
#1395=PRODUCT_RELATED_PRODUCT_CATEGORY('moton_ctrl_motor v16',
'moton_ctrl_motor v16',(#1399));
#1396=APPLICATION_PROTOCOL_DEFINITION('international standard',
'automotive_design',2009,#1397);
#1397=APPLICATION_CONTEXT(
'Core Data for Automotive Mechanical Design Process');
#1398=PRODUCT_CONTEXT('part definition',#1397,'mechanical');
#1399=PRODUCT('moton_ctrl_motor','moton_ctrl_motor v16',$,(#1398));
#1400=PRESENTATION_STYLE_ASSIGNMENT((#1401));
#1401=SURFACE_STYLE_USAGE(.BOTH.,#1402);
#1402=SURFACE_SIDE_STYLE('',(#1403));
#1403=SURFACE_STYLE_FILL_AREA(#1404);
#1404=FILL_AREA_STYLE('\X2\92FC\X0\ - \X2\30B530C630F3\X0\',(#1405));
#1405=FILL_AREA_STYLE_COLOUR('\X2\92FC\X0\ - \X2\30B530C630F3\X0\',#1406);
#1406=COLOUR_RGB('\X2\92FC\X0\ - \X2\30B530C630F3\X0\',0.627450980392157,
0.627450980392157,0.627450980392157);
ENDSEC;
END-ISO-10303-21;
